<svg width="128" height="38" viewBox="0 0 128 38" fill="none" xmlns="http://www.w3.org/2000/svg">
  <path d="M39.9492 0V1.61733C39.9492 3.98836 39.7797 6.34683 39.4436 8.65505C39.1076 10.9633 38.6051 13.2244 37.9456 15.3944L37.1417 18.0387L37.9456 20.6829C38.6083 22.8561 39.1076 25.1141 39.4436 27.4223C39.7797 29.7305 39.9492 32.089 39.9492 34.4601V36.517H34.0264V34.4601C34.0264 32.089 34.196 30.0446 34.532 27.7364C34.868 25.4281 35.3705 23.167 36.03 20.997L36.8339 18.3527L36.03 15.7085C35.3673 13.5353 34.868 11.2773 34.532 8.9691C34.196 6.66087 34.0264 4.3024 34.0264 1.93137V0H39.9492Z" fill="#333533"></path>
  <path d="M26.8727 11.0198V36.4825H22.071V31.2663C20.193 34.9186 16.8547 37.007 12.3671 37.007C5.48007 37.0038 0 31.1061 0 23.7512C0 16.3963 5.48007 10.4985 12.3671 10.4985C16.8547 10.4985 20.193 12.5869 22.071 16.2393V11.023H26.8727V11.0198ZM22.071 23.7512C22.071 18.7422 18.3653 15.0899 13.3563 15.0899C8.50431 15.0899 4.64157 18.8992 4.64157 23.7512C4.64157 28.6032 8.50431 32.4125 13.3563 32.4125C18.3653 32.4125 22.071 28.7602 22.071 23.7512Z" fill="#333533"></path>
  <path d="M58.1538 36.4825H53.9802L43.2305 11.0198H48.4499L56.0686 30.2204L63.6339 11.0198H68.9036L58.1538 36.4825Z" fill="#333533"></path>
  <path d="M95.5571 24.6368H75.2071C75.6782 29.5422 79.0165 32.6732 83.7114 32.6732C86.9461 32.6732 89.8164 31.2129 91.1197 28.9172L94.9793 31.4201C93.0479 34.8652 88.7707 37.0039 83.5512 37.0039C76.3 37.0039 70.5059 31.2631 70.5059 23.6476C70.5059 16.2895 76.1932 10.4985 83.4979 10.4985C90.3346 10.4985 95.6545 15.8216 95.6545 22.6552C95.6545 23.2299 95.6011 24.0118 95.5509 24.6368H95.5571ZM90.7052 20.9845C90.3911 17.1751 87.3135 14.512 83.2969 14.512C79.2802 14.512 76.3063 17.0683 75.4175 20.9845H90.7052Z" fill="#333533"></path>
  <path d="M127.049 11.0194V36.4821H122.247V31.2658C120.369 34.9181 117.031 37.0065 112.543 37.0065C105.656 37.0065 100.176 31.1088 100.176 23.7539C100.176 16.399 105.656 10.5012 112.543 10.5012C117.031 10.5012 120.369 12.5896 122.247 16.2419V11.0257H127.049V11.0194ZM122.247 23.7507C122.247 18.7417 118.541 15.0894 113.532 15.0894C108.523 15.0894 104.817 18.8988 104.817 23.7507C104.817 28.6027 108.68 32.4121 113.532 32.4121C118.541 32.4121 122.247 28.7597 122.247 23.7507Z" fill="#333533"></path>
</svg>