<svg class="navbar_logo__srP46" fill="none" width="1480" height="595" viewBox="0 0 1480 595" xmlns="http://www.w3.org/2000/svg"><line x1="1460" y1="394" x2="1460" y2="569" stroke="#000" stroke-width="40"></line><circle cx="1282.5" cy="391.5" r="177.5" stroke="#000" stroke-width="40"></circle><path d="M921.5 391.5H1185C1185 366.256 1179.73 342.242 1170.23 320.5C1162.23 302.18 1151.22 285.473 1137.83 271C1105.41 235.946 1059.02 214 1007.5 214C909.469 214 830 293.469 830 391.5C830 489.531 909.469 569 1007.5 569C1056.76 569 1101.34 548.93 1133.5 516.521" stroke="#000" stroke-width="40"></path><path d="M1032.85 391.497L829 391.497" stroke="#000" stroke-width="40"></path><path fill-rule="evenodd" clip-rule="evenodd" d="M665 568.8L665 568.801L664.998 568.8H638.605L638.603 568.801L638.603 568.8H638.6V568.795L465 228.086L500.64 209.926L651.801 506.597L802.963 209.926L838.603 228.085L665 568.8Z" fill="#000"></path><line x1="438" y1="-8.74228e-07" x2="438" y2="573" stroke="#000" stroke-width="40"></line><line x1="375" y1="400" x2="375" y2="575" stroke="#000" stroke-width="40"></line><circle cx="197.5" cy="397.5" r="177.5" stroke="#000" stroke-width="40"></circle></svg>