<svg width="512" height="512" viewBox="0 0 512 512" fill="none" xmlns="http://www.w3.org/2000/svg">
<rect width="512" height="512" rx="256" fill="#031323"/>
<path d="M99.1324 181.341C97.0441 181.341 96 181.761 96 184.701V220.193C96 221.873 97.253 222.713 98.506 222.713C99.9678 222.713 101.638 221.663 101.638 219.983C101.638 206.962 112.706 189.741 131.501 189.741H150.713V269.126C150.713 298.107 149.878 313.018 149.46 318.899C148.416 331.289 142.987 336.33 126.489 336.33C123.983 336.33 122.73 338.01 122.73 339.48C122.73 340.74 123.774 342 125.863 342H200.624C202.712 342 203.756 340.74 203.756 339.48C203.756 338.01 202.503 336.33 199.788 336.33C184.544 336.33 178.07 331.499 176.608 318.899C175.982 313.018 175.355 297.687 175.355 269.336V189.741H219.209C231.321 189.741 232.783 195.201 232.783 217.043V284.457C232.783 298.527 231.948 314.488 231.53 320.369C230.486 332.759 227.145 336.54 215.45 336.54C212.944 336.54 211.691 338.01 211.691 339.48C211.691 340.74 212.736 342 214.824 342H272.67C274.758 342 275.802 340.74 275.802 339.48C275.802 338.01 274.549 336.54 272.043 336.54C259.722 336.54 258.469 332.969 256.799 320.369C255.963 314.488 255.754 298.527 255.754 284.457V248.125C270.581 236.364 278.935 228.593 288.332 228.593C298.773 228.593 305.247 235.524 305.247 279.626C305.247 328.979 301.488 336.54 289.167 336.54C286.661 336.54 285.408 338.01 285.408 339.48C285.408 340.74 286.452 342 288.541 342H345.133C347.222 342 348.266 340.74 348.266 339.48C348.266 338.01 347.013 336.54 344.507 336.54C333.23 336.54 329.262 332.969 329.262 320.369V245.394C329.262 227.333 319.03 213.893 301.697 213.893C286.661 213.893 275.802 222.713 262.437 234.054L255.754 239.724V175.25C255.754 171.26 254.084 170 251.578 170C245.104 170 243.434 181.341 218.583 181.341H99.1324Z" fill="white"/>
<path d="M393.238 181.551C393.238 180.291 392.82 179.871 391.567 179.871C388.017 179.871 370.266 183.861 354.187 187.641C352.516 188.061 351.889 189.111 351.889 190.161C351.889 191.421 352.725 192.471 353.978 192.471H370.893C375.905 192.471 376.74 194.151 376.74 199.402V229.643C376.74 236.784 376.531 244.344 375.696 247.284C374.025 253.375 364.21 255.685 356.275 255.685C354.395 255.685 353.56 256.735 353.56 257.785C353.56 258.835 354.186 260.095 355.648 260.095H413.703C415.165 260.095 416 259.255 416 257.785C416 256.525 414.956 255.685 413.703 255.685C405.559 255.685 396.161 253.585 394.282 247.284C393.446 244.344 393.238 236.784 393.238 229.643V181.551Z" fill="white"/>
</svg>
