<svg width="1080" height="130" viewBox="0 0 1080 130" fill="none" xmlns="http://www.w3.org/2000/svg">
<path d="M2.34908 8.44198C0.783027 8.44198 0 8.75465 0 10.9433V37.3636C0 38.6142 0.939632 39.2396 1.87926 39.2396C2.9755 39.2396 4.22834 38.4579 4.22834 37.2072C4.22834 27.5146 12.5284 14.6953 26.6229 14.6953H41.0306V73.7891C41.0306 95.3631 40.4042 106.463 40.091 110.84C39.3079 120.064 35.2362 123.816 22.8644 123.816C20.9851 123.816 20.0455 125.066 20.0455 126.161C20.0455 127.099 20.8285 128.037 22.3946 128.037H78.4593C80.0253 128.037 80.8084 127.099 80.8084 126.161C80.8084 125.066 79.8687 123.816 77.8329 123.816C66.4007 123.816 61.5459 120.22 60.4497 110.84C59.9799 106.463 59.51 95.0504 59.51 73.9455V14.6953H92.3972C101.48 14.6953 102.577 18.76 102.577 35.0186V85.2015C102.577 95.6758 101.95 107.557 101.637 111.934C100.854 121.158 98.3482 123.972 89.5783 123.972C87.699 123.972 86.7594 125.066 86.7594 126.161C86.7594 127.099 87.5424 128.037 89.1085 128.037H132.488C134.054 128.037 134.837 127.099 134.837 126.161C134.837 125.066 133.898 123.972 132.018 123.972C122.779 123.972 121.839 121.314 120.586 111.934C119.96 107.557 119.803 95.6758 119.803 85.2015V58.1559C130.922 49.4012 137.186 43.6169 144.234 43.6169C152.064 43.6169 156.919 48.7759 156.919 81.6058C156.919 118.344 154.1 123.972 144.86 123.972C142.981 123.972 142.041 125.066 142.041 126.161C142.041 127.099 142.824 128.037 144.39 128.037H186.83C188.396 128.037 189.179 127.099 189.179 126.161C189.179 125.066 188.24 123.972 186.36 123.972C177.904 123.972 174.928 121.314 174.928 111.934V56.1235C174.928 42.6789 167.255 32.6736 154.256 32.6736C142.981 32.6736 134.837 39.2396 124.814 47.6816L119.803 51.9025V3.90833C119.803 0.938004 118.55 0 116.671 0C111.816 0 110.563 8.44198 91.9273 8.44198H2.34908Z" fill="white"/>
<path d="M265.658 102.867C265.658 101.773 265.345 100.991 264.405 100.991C263.778 100.991 263.152 101.304 262.682 102.242C256.888 114.279 249.527 117.562 238.878 117.562C221.652 117.562 210.846 100.522 210.846 70.8188H256.105C262.839 70.8188 265.658 68.7865 265.658 63.1585C265.658 39.7086 248.588 32.6736 235.59 32.6736C206.774 32.6736 192.523 55.0292 192.523 83.9508C192.523 114.592 208.967 129.6 232.301 129.6C256.261 129.6 265.658 112.56 265.658 102.867ZM232.457 37.6762C241.541 37.6762 246.082 44.5549 246.082 58.9375C246.082 62.3768 245.142 64.4092 239.974 64.7218L211.159 66.7542C213.038 51.4335 219.303 37.6762 232.457 37.6762Z" fill="white"/>
<path d="M312.332 129.6C338.016 129.6 356.965 114.279 356.965 78.3228C356.965 49.7139 342.4 32.6736 317.657 32.6736C291.974 32.6736 273.181 48.9322 273.181 84.8888C273.181 113.498 287.589 129.6 312.332 129.6ZM316.561 124.128C299.491 124.128 292.287 104.899 292.287 79.2608C292.287 55.6545 298.238 37.9889 314.368 37.9889C331.125 37.9889 337.702 58.1559 337.702 83.7945C337.702 107.401 332.848 124.128 316.561 124.128Z" fill="white"/>
<path d="M393.96 59.2502C393.96 46.1182 392.864 34.5496 386.913 34.5496C384.407 34.5496 366.085 37.2072 359.664 38.9269C357.941 39.3959 357.315 40.3339 357.315 41.1156C357.315 42.0536 358.098 42.8352 359.664 42.8352H363.422C376.421 42.8352 377.36 58.9375 377.36 78.4791V85.2015C377.36 95.6758 376.734 106.463 376.421 110.84C375.638 120.064 372.505 123.972 364.362 123.972C362.483 123.972 361.543 125.066 361.543 126.161C361.543 127.099 362.326 128.037 363.892 128.037H412.753C414.319 128.037 415.102 127.099 415.102 126.161C415.102 125.066 414.162 123.972 412.283 123.972C399.442 123.972 395.683 120.22 394.43 110.84C393.96 106.463 393.49 99.7404 393.49 80.8241C393.49 62.3768 400.851 46.8999 409.621 46.8999C416.355 46.8999 416.511 54.0912 416.511 56.9052C421.21 56.9052 430.606 54.8729 430.606 45.3366C430.606 36.5819 425.125 32.6736 417.138 32.6736C408.681 32.6736 398.972 37.6762 393.96 59.2502Z" fill="white"/>
<path d="M502.126 102.867C502.126 101.773 501.812 100.991 500.873 100.991C500.246 100.991 499.62 101.304 499.15 102.242C493.356 114.279 485.995 117.562 475.346 117.562C458.12 117.562 447.314 100.522 447.314 70.8188H492.573C499.307 70.8188 502.126 68.7865 502.126 63.1585C502.126 39.7086 485.056 32.6736 472.057 32.6736C443.242 32.6736 428.991 55.0292 428.991 83.9508C428.991 114.592 445.435 129.6 468.769 129.6C492.729 129.6 502.126 112.56 502.126 102.867ZM468.925 37.6762C478.008 37.6762 482.55 44.5549 482.55 58.9375C482.55 62.3768 481.61 64.4092 476.442 64.7218L447.627 66.7542C449.506 51.4335 455.771 37.6762 468.925 37.6762Z" fill="white"/>
<path d="M590.927 52.0589C589.518 40.8029 582.784 32.6736 571.195 32.6736C559.919 32.6736 553.655 39.2396 543.632 47.6816L538.934 51.5899C539.091 48.3069 539.091 44.0859 539.091 42.2099C539.091 36.7382 536.585 34.5496 533.14 34.5496C527.658 34.5496 505.107 38.1452 505.107 41.2719C505.107 42.0536 505.577 42.8352 507.143 42.8352H511.528C521.551 42.8352 521.707 58.1559 521.707 77.6975V85.2015C521.707 115.843 521.707 123.816 508.709 123.972C506.83 123.972 505.89 125.066 505.89 126.161C505.89 127.099 506.673 128.037 508.239 128.037H551.306C552.872 128.037 553.655 127.099 553.655 126.161C553.655 125.066 552.715 123.972 550.679 123.972C540.97 123.972 540.657 120.533 539.404 111.153C538.777 106.775 538.464 95.6758 538.464 85.2015V78.4791C538.464 70.9752 538.464 63.3148 538.621 58.1559C549.74 49.4012 554.908 44.2422 561.485 44.2422C568.689 44.2422 573.231 48.7759 573.231 81.6058C573.231 118.344 570.412 123.972 561.172 123.972C559.293 123.972 558.353 125.066 558.353 126.161C558.353 127.099 559.136 128.037 560.702 128.037H603.142C604.708 128.037 605.491 127.099 605.491 126.161C605.491 125.066 604.552 123.972 602.672 123.972C594.216 123.972 591.24 121.314 591.24 111.934V58.1559C602.359 49.4012 607.527 44.2422 614.105 44.2422C621.308 44.2422 625.85 48.7759 625.85 81.6058C625.85 118.344 623.031 123.972 613.791 123.972C611.912 123.972 610.973 125.066 610.973 126.161C610.973 127.099 611.756 128.037 613.322 128.037H655.762C657.328 128.037 658.111 127.099 658.111 126.161C658.111 125.066 657.171 123.972 655.292 123.972C646.835 123.972 643.86 121.314 643.86 111.934V56.1235C643.86 42.6789 636.812 32.6736 623.814 32.6736C612.539 32.6736 606.431 39.3959 596.252 47.6816L590.927 52.0589Z" fill="white"/>
<path d="M659.855 68.0048C659.855 107.244 682.093 129.6 717.33 129.6C752.409 129.6 774.647 107.401 774.647 68.0048C774.647 28.6089 752.409 6.25332 717.33 6.25332C682.093 6.25332 659.855 29.2343 659.855 68.0048ZM716.547 12.194C744.109 12.194 752.722 39.2396 752.722 69.2555C752.722 97.3954 744.266 123.659 716.86 123.659C689.767 123.659 681.31 95.8321 681.31 66.7542C681.31 39.3959 689.454 12.194 716.547 12.194Z" fill="white"/>
<path d="M808.856 51.5899C809.012 48.3069 809.012 44.0859 809.012 42.2099C809.012 36.7382 806.507 34.5496 803.061 34.5496C797.58 34.5496 777.729 38.1452 777.729 41.2719C777.729 42.0536 778.199 42.8352 779.765 42.8352H781.45C791.473 42.8352 791.629 58.1559 791.629 77.6975V85.2015C791.629 115.843 791.629 123.816 778.631 123.972C776.752 123.972 775.812 125.066 775.812 126.161C775.812 127.099 776.595 128.037 778.161 128.037H821.228C822.794 128.037 823.577 127.099 823.577 126.161C823.577 125.066 822.637 123.972 820.601 123.972C810.892 123.972 810.578 120.533 809.326 111.153C808.699 106.775 808.386 95.6758 808.386 85.2015V78.4791C808.386 70.9752 808.386 63.3148 808.543 58.1559C819.662 49.4012 825.926 43.6169 832.973 43.6169C840.803 43.6169 845.658 48.7759 845.658 81.6058C845.658 118.344 842.839 123.972 833.599 123.972C831.72 123.972 830.781 125.066 830.781 126.161C830.781 127.099 831.564 128.037 833.13 128.037H875.57C877.136 128.037 877.919 127.099 877.919 126.161C877.919 125.066 876.979 123.972 875.1 123.972C866.643 123.972 863.668 121.314 863.668 111.934V56.1235C863.668 42.6789 855.994 32.6736 842.996 32.6736C831.72 32.6736 823.577 39.2396 813.554 47.6816L808.856 51.5899Z" fill="white"/>
<path d="M950.4 102.867C950.4 101.773 950.087 100.991 949.147 100.991C948.521 100.991 947.894 101.304 947.425 102.242C941.63 114.279 934.27 117.562 923.621 117.562C906.394 117.562 895.588 100.522 895.588 70.8188H940.847C947.581 70.8188 950.4 68.7865 950.4 63.1585C950.4 39.7086 933.33 32.6736 920.332 32.6736C891.516 32.6736 877.265 55.0292 877.265 83.9508C877.265 114.592 893.709 129.6 917.043 129.6C941.004 129.6 950.4 112.56 950.4 102.867ZM917.2 37.6762C926.283 37.6762 930.824 44.5549 930.824 58.9375C930.824 62.3768 929.885 64.4092 924.717 64.7218L895.901 66.7542C897.781 51.4335 904.045 37.6762 917.2 37.6762Z" fill="white"/>
<path fill-rule="evenodd" clip-rule="evenodd" d="M1063.8 48.6H999V113.4H1063.8V48.6ZM982.8 32.4V129.6H1080V32.4H982.8Z" fill="white"/>
</svg>
