<?xml version="1.0" encoding="UTF-8"?><svg id="Layer_1" xmlns="http://www.w3.org/2000/svg" xmlns:xlink="http://www.w3.org/1999/xlink" viewBox="0 0 500 500"><defs><style>.cls-1{clip-path:url(#clippath);}.cls-2{fill:none;}.cls-2,.cls-3,.cls-4,.cls-5,.cls-6,.cls-7{stroke-width:0px;}.cls-8,.cls-6{fill:#5771b7;}.cls-9{clip-path:url(#clippath-1);}.cls-3{fill:#f3f6fb;}.cls-4{fill:#f9f5f9;}.cls-5{fill:#5671ba;}.cls-7{fill:#c25555;}</style><clipPath id="clippath"><polygon class="cls-6" points="295.09 152.74 284.58 170.49 268.92 196.92 268.92 196.93 241.08 243.92 213.25 290.89 185.41 337.88 159.34 381.9 142.16 319.76 58.57 9.5 136.02 56.4 137.2 57.12 295.09 152.74"/></clipPath><clipPath id="clippath-1"><rect class="cls-2" x="-81.06" y="8.47" width="456" height="423.76" transform="translate(-117.64 232.17) rotate(-58.86)"/></clipPath></defs><polygon class="cls-5" points="137.56 329.3 154.8 391.64 154.96 392.19 176.04 468.39 38.08 490.5 137.56 329.3"/><polygon class="cls-7" points="316.15 238.74 442.49 211.15 427.99 228.71 331.75 345.25 316.15 238.74"/><polygon class="cls-7" points="191.5 380.31 164.9 386.17 187 348.87 191.5 380.31"/><polygon class="cls-7" points="424.12 244.33 451.48 211.21 473.41 240.08 462.61 259.97 424.12 244.33"/><polygon class="cls-7" points="468.13 263.05 474.43 250.67 482.42 260.85 481.29 270.5 468.13 263.05"/><polygon class="cls-7" points="325.52 350.81 292.02 358.18 270.5 207.93 297.44 162.46 297.44 162.45 297.83 161.79 297.88 162.17 308.78 236.54 310.01 244.96 325.52 350.81"/><polygon class="cls-4" points="292.02 358.18 258.5 365.57 242.65 254.92 242.65 254.9 270.5 207.93 292.02 358.18"/><polygon class="cls-7" points="258.5 365.57 225 372.94 214.83 301.91 214.83 301.9 238.12 262.58 242.65 254.92 258.5 365.57"/><polygon class="cls-4" points="225 372.94 191.5 380.31 187 348.87 214.83 301.91 225 372.94"/><polygon class="cls-8" points="295.09 152.74 284.58 170.49 268.92 196.92 268.92 196.93 241.08 243.92 213.25 290.89 185.41 337.88 159.34 381.9 142.16 319.76 58.57 9.5 136.02 56.4 137.2 57.12 295.09 152.74"/><g class="cls-1"><g class="cls-9"><polygon class="cls-3" points="343.1 8.06 333.96 -9.95 313.93 -12.63 328.24 -26.89 324.6 -46.77 342.59 -37.57 360.36 -47.17 357.17 -27.22 371.79 -13.28 351.84 -10.15 343.1 8.06"/><polygon class="cls-3" points="439.73 66.45 430.59 48.44 410.57 45.75 424.87 31.49 421.24 11.62 439.22 20.82 457 11.22 453.81 31.17 468.43 45.11 448.47 48.24 439.73 66.45"/><polygon class="cls-3" points="188.89 44.97 179.75 26.95 159.72 24.27 174.03 10.01 170.4 -9.86 188.38 -.66 206.16 -10.26 202.96 9.69 217.59 23.63 197.63 26.75 188.89 44.97"/><polygon class="cls-3" points="285.52 103.35 276.38 85.34 256.36 82.66 270.67 68.4 267.03 48.52 285.01 57.72 302.79 48.12 299.6 68.07 314.22 82.01 294.26 85.14 285.52 103.35"/><polygon class="cls-3" points="382.16 161.74 373.02 143.73 352.99 141.04 367.3 126.78 363.66 106.91 381.65 116.11 399.42 106.51 396.23 126.46 410.85 140.4 390.9 143.53 382.16 161.74"/><polygon class="cls-3" points="34.68 81.87 25.54 63.86 5.52 61.18 19.83 46.91 16.19 27.04 34.17 36.24 51.95 26.64 48.76 46.59 63.38 60.53 43.42 63.66 34.68 81.87"/><polygon class="cls-3" points="131.32 140.26 122.17 122.24 102.15 119.56 116.46 105.3 112.82 85.43 130.81 94.63 148.58 85.03 145.39 104.98 160.01 118.92 140.05 122.04 131.32 140.26"/><polygon class="cls-3" points="227.95 198.64 218.81 180.63 198.78 177.95 213.09 163.69 209.46 143.81 227.44 153.01 245.22 143.41 242.02 163.36 256.65 177.3 236.69 180.43 227.95 198.64"/><polygon class="cls-3" points="324.58 257.03 315.44 239.02 295.42 236.33 309.73 222.07 306.09 202.2 324.07 211.4 341.85 201.8 338.66 221.75 353.28 235.69 333.32 238.82 324.58 257.03"/><polygon class="cls-3" points="421.22 315.42 412.07 297.4 392.05 294.72 406.36 280.46 402.72 260.59 420.71 269.79 438.48 260.19 435.29 280.13 449.91 294.07 429.95 297.2 421.22 315.42"/><polygon class="cls-3" points="-22.89 177.16 -32.03 159.15 -52.06 156.47 -37.75 142.2 -41.39 122.33 -23.4 131.53 -5.63 121.93 -8.82 141.88 5.81 155.82 -14.15 158.95 -22.89 177.16"/><polygon class="cls-3" points="73.74 235.55 64.6 217.53 44.58 214.85 58.88 200.59 55.25 180.72 73.23 189.92 91.01 180.32 87.82 200.27 102.44 214.21 82.48 217.33 73.74 235.55"/><polygon class="cls-3" points="170.38 293.93 161.23 275.92 141.21 273.24 155.52 258.98 151.88 239.1 169.87 248.3 187.64 238.7 184.45 258.65 199.07 272.59 179.11 275.72 170.38 293.93"/><polygon class="cls-3" points="267.01 352.32 257.87 334.31 237.84 331.62 252.15 317.36 248.51 297.49 266.5 306.69 284.28 297.09 281.08 317.04 295.71 330.98 275.75 334.11 267.01 352.32"/><polygon class="cls-3" points="363.64 410.71 354.5 392.69 334.48 390.01 348.79 375.75 345.15 355.88 363.13 365.08 380.91 355.48 377.72 375.42 392.34 389.36 372.38 392.49 363.64 410.71"/><polygon class="cls-3" points="16.17 330.84 7.03 312.82 -13 310.14 1.31 295.88 -2.33 276.01 15.66 285.21 33.43 275.61 30.24 295.56 44.86 309.5 24.91 312.62 16.17 330.84"/><polygon class="cls-3" points="112.8 389.22 103.66 371.21 83.64 368.53 97.94 354.27 94.31 334.39 112.29 343.59 130.07 333.99 126.88 353.94 141.5 367.88 121.54 371.01 112.8 389.22"/><polygon class="cls-3" points="209.43 447.61 200.29 429.6 180.27 426.91 194.58 412.65 190.94 392.78 208.93 401.98 226.7 392.38 223.51 412.33 238.13 426.27 218.17 429.4 209.43 447.61"/><polygon class="cls-3" points="306.07 506 296.93 487.98 276.9 485.3 291.21 471.04 287.57 451.17 305.56 460.37 323.33 450.77 320.14 470.72 334.76 484.65 314.81 487.78 306.07 506"/><polygon class="cls-3" points="55.23 484.51 46.08 466.5 26.06 463.82 40.37 449.56 36.73 429.68 54.72 438.88 72.49 429.28 69.3 449.23 83.92 463.17 63.97 466.3 55.23 484.51"/><polygon class="cls-3" points="151.86 542.9 142.72 524.89 122.69 522.2 137 507.94 133.37 488.07 151.35 497.27 169.13 487.67 165.93 507.62 180.56 521.56 160.6 524.69 151.86 542.9"/></g></g></svg>