<svg width="701" height="219" xmlns="http://www.w3.org/2000/svg">
 <g>
  <g stroke="null" id="svg_1">
   <polygon stroke="null" id="svg_1" points="506.7442016444206,173.1706542968752 295.8273315272331,173.1706542968752 330.6807250819206,201.78590393066426 478.211578353405,201.78590393066426 " fill="#538CC6"/>
   <polygon stroke="null" id="svg_2" points="449.5092773280144,15.708364486694535 421.0028076014519,33.15681457519551 421.0028076014519,48.69556427001973 671.1014404139519,48.75212097167989 618.7039184412956,15.708364486694535 " fill="#538CC6"/>
   <path stroke="null" id="svg_3" d="m701.06958,48.69989l-77.76757,-48.69989l-179.18687,0l-74.14825,48.83039l-99.16158,0l-10.04014,10.2794l-10.2881,-10.2794l-85.88929,0l-10.436,10.2011l-38.96861,-39.9648l-115.18317,0l0,199.84137l116.64047,0l45.76789,-45.73744l87.8077,0l9.56163,-9.79653l66.13527,55.63403l334.15649,-0.08701l41.11758,-41.27419l0,-128.95138l-0.11745,0l0,0.00435zm-251.56026,-32.99151l169.19459,0l52.39751,33.04371l-250.09861,-0.05655l0,-15.53873l28.50651,-17.44843zm-153.68197,157.46224l210.91249,0l-28.53261,28.61527l-147.52651,0l-34.85337,-28.61527z" fill="#1A1A1A"/>
   <g stroke="null" id="svg_11">
    <path stroke="null" id="svg_4" d="m17.24833,36.31067l0,165.47522l90.73535,0l38.5249,-40.51292l0,-85.47602l-38.5075,-39.48628l-90.75275,0zm53.69386,23.13408l13.55505,0l0,116.19676l-13.55505,0l0,-116.19676z" fill="#F2F2F2"/>
    <path stroke="null" id="svg_5" d="m212.68735,146.79134l-11.22337,0l0,-22.338l53.93746,-22.2075l0,-22.92962l-13.2636,-13.2549l-70.48542,0l-13.25054,12.94604l0,64.0907l0,12.91994l84.41459,0l12.58497,-12.89819l0,-29.25473l-42.71409,17.26138l0,15.66488zm-11.22337,-71.50336l11.22337,0l0,31.66907l-11.22337,0l0,-31.66907z" fill="#F2F2F2"/>
    <polygon stroke="null" id="svg_6" points="362.57168577528,114.55239868164082 308.6428832850456,91.98821258544942 308.6428832850456,75.63599395751973 319.86630247449875,75.63599395751973 319.86630247449875,85.30638885498067 362.57168577528,102.56773376464864 362.57168577528,66.0569839477541 278.174468978405,66.0569839477541 265.56338499403,79.29878997802754 265.56338499403,100.55801391601582 319.86630247449875,125.58872985839864 319.86630247449875,146.7913055419924 308.6428832850456,146.7913055419924 308.6428832850456,132.0965576171877 265.56338499403,111.9858398437502 265.56338499403,143.68536376953145 277.8656005702019,156.0136718750002 349.3211059412956,156.0136718750002 362.57168577528,143.06764221191426 " fill="#F2F2F2"/>
    <polygon stroke="null" id="svg_7" points="428.84609983778,156.0136718750002 428.84609983778,123.52238464355489 408.3917236170769,123.52238464355489 408.3917236170769,95.38131713867207 428.84609983778,95.38131713867207 428.84609983778,66.0569839477541 408.3917236170769,66.0569839477541 408.3917236170769,40.86528396606465 372.7292480311394,64.84764862060567 372.7292480311394,143.11541748046895 385.3229369959831,156.0136718750002 " fill="#F2F2F2"/>
    <polygon stroke="null" id="svg_8" points="474.67489622449875,66.0569839477541 439.01242063856125,66.0569839477541 439.01242063856125,156.0136718750002 462.81210325574875,156.0136718750002 474.67489622449875,144.15516662597676 " fill="#F2F2F2"/>
    <polygon stroke="null" id="svg_9" points="487.3120727381706,66.0569839477541 487.3120727381706,156.0136718750002 526.4982299647331,156.0136718750002 526.4982299647331,88.33409881591817 538.0652465662956,88.33409881591817 538.0652465662956,156.0136718750002 577.2644653162956,156.0136718750002 577.2644653162956,79.33795928955098 563.9833984217644,66.0569839477541 " fill="#F2F2F2"/>
    <polygon stroke="null" id="svg_10" points="631.1844482264519,66.0569839477541 599.6589965662956,66.0569839477541 587.0653076014519,78.97255706787129 587.0653076014519,143.09805297851582 599.9938964686394,156.0136718750002 642.4165649256706,156.0136718750002 642.4165649256706,166.8846435546877 537.5650024256706,166.8846435546877 502.7203368983269,201.78590393066426 652.8829955897331,201.78590393066426 684.0735473475456,170.59100341796895 684.0735473475456,66.0569839477541 642.4165649256706,66.0569839477541 642.4165649256706,125.29289245605489 631.1844482264519,125.29289245605489 " fill="#F2F2F2"/>
   </g>
  </g>
 </g>
</svg>