<?xml version="1.0" encoding="UTF-8"?><svg id="Layer_1" xmlns="http://www.w3.org/2000/svg" xmlns:xlink="http://www.w3.org/1999/xlink" viewBox="0 0 1000 792"><defs><style>.cls-1{fill:url(#linear-gradient);}.cls-2{fill:#fff;}.cls-3{fill:#edb939;}.cls-4{fill:url(#linear-gradient-3);}.cls-5{fill:url(#linear-gradient-4);}.cls-6{fill:url(#linear-gradient-2);}.cls-7{fill:url(#linear-gradient-5);}</style><linearGradient id="linear-gradient" x1="52.62" y1="210.79" x2="371.7" y2="210.79" gradientUnits="userSpaceOnUse"><stop offset="0" stop-color="#4338ca"/><stop offset="1" stop-color="#392d77"/></linearGradient><linearGradient id="linear-gradient-2" x1="206.62" y1="400.62" x2="2423.75" y2="400.62" gradientUnits="userSpaceOnUse"><stop offset=".1" stop-color="#e63648"/><stop offset=".93" stop-color="#fbd1d1"/></linearGradient><linearGradient id="linear-gradient-3" x1="879.71" y1="602.17" x2="330.97" y2="603.85" gradientUnits="userSpaceOnUse"><stop offset="0" stop-color="#39b54a"/><stop offset=".49" stop-color="#009245"/></linearGradient><linearGradient id="linear-gradient-4" x1="43.59" y1="184.25" x2="357.94" y2="574.03" gradientUnits="userSpaceOnUse"><stop offset=".32" stop-color="#6060c6"/><stop offset=".99" stop-color="#4338ca"/></linearGradient><linearGradient id="linear-gradient-5" x1="140.99" y1="301.15" x2="922.32" y2="514.89" gradientUnits="userSpaceOnUse"><stop offset=".18" stop-color="#e63648"/><stop offset="1" stop-color="#fbd1d1"/></linearGradient></defs><polygon class="cls-1" points="194.88 256.32 194.88 256.32 93.69 263.7 91.76 263.84 191.37 157.74 194.88 256.32"/><polygon class="cls-6" points="667.35 124.55 550.98 359.01 419.51 623.91 419.51 623.92 393.32 676.68 377.89 671.3 206.62 611.59 402.69 404.32 403.3 403.68 523.57 276.55 667.35 124.55"/><polygon class="cls-2" points="483.95 708.29 483.95 708.3 393.31 676.69 206.62 611.59 377.89 671.3 393.32 676.68 483.95 708.29"/><polygon class="cls-4" points="908.73 496.99 580.6 742 619.66 464.05 696.52 472.81 908.73 496.99"/><polygon class="cls-2" points="194.95 281.43 206.62 611.59 194.94 281.43 194.88 279.57 190.57 157.74 194.88 279.57 194.95 281.43"/><polygon class="cls-2" points="403.3 403.68 402.69 404.32 370.6 367.02 190.57 157.74 370.93 366.25 403.3 403.68"/><polygon class="cls-5" points="402.69 404.32 206.62 611.59 194.95 281.43 194.88 279.57 190.57 157.74 370.6 367.02 402.69 404.32"/><polygon class="cls-7" points="667.35 124.55 643.99 290.79 631.03 383.08 631.03 383.09 619.66 464.05 580.6 742 483.95 708.3 483.95 708.29 393.32 676.68 419.51 623.92 419.51 623.91 550.98 359.01 667.35 124.55"/><polygon class="cls-2" points="483.95 708.29 483.95 708.3 393.31 676.69 393.32 676.68 483.95 708.29"/><circle class="cls-3" cx="682.96" cy="94.4" r="34.81"/><circle class="cls-3" cx="58.81" cy="276.99" r="34.81"/><circle class="cls-3" cx="941.55" cy="485.4" r="34.81"/></svg>