<?xml version="1.0" encoding="UTF-8"?><svg id="Layer_1" xmlns="http://www.w3.org/2000/svg" xmlns:xlink="http://www.w3.org/1999/xlink" viewBox="0 0 1000 792"><defs><style>.cls-1{fill:url(#linear-gradient);}.cls-2{fill:#fff;}.cls-3{fill:#edb939;}.cls-4{fill:url(#linear-gradient-3);}.cls-5{fill:url(#linear-gradient-4);}.cls-6{fill:url(#linear-gradient-2);}.cls-7{fill:url(#linear-gradient-5);}</style><linearGradient id="linear-gradient" x1="74.06" y1="219.85" x2="372.26" y2="219.85" gradientUnits="userSpaceOnUse"><stop offset="0" stop-color="#4338ca"/><stop offset="1" stop-color="#392d77"/></linearGradient><linearGradient id="linear-gradient-2" x1="217.98" y1="397.25" x2="2290.01" y2="397.25" gradientUnits="userSpaceOnUse"><stop offset=".1" stop-color="#e63648"/><stop offset=".93" stop-color="#fbd1d1"/></linearGradient><linearGradient id="linear-gradient-3" x1="847.02" y1="585.61" x2="334.2" y2="587.18" gradientUnits="userSpaceOnUse"><stop offset="0" stop-color="#39b54a"/><stop offset=".49" stop-color="#009245"/></linearGradient><linearGradient id="linear-gradient-4" x1="65.62" y1="195.04" x2="359.4" y2="559.32" gradientUnits="userSpaceOnUse"><stop offset=".32" stop-color="#6060c6"/><stop offset=".99" stop-color="#4338ca"/></linearGradient><linearGradient id="linear-gradient-5" x1="156.64" y1="304.29" x2="886.85" y2="504.05" gradientUnits="userSpaceOnUse"><stop offset=".18" stop-color="#e63648"/><stop offset="1" stop-color="#fbd1d1"/></linearGradient></defs><polygon class="cls-1" points="207.01 262.4 207.01 262.4 112.44 269.29 110.64 269.42 203.73 170.27 207.01 262.4"/><polygon class="cls-6" points="648.56 139.25 539.81 358.37 416.94 605.93 416.94 605.93 392.46 655.25 378.04 650.22 217.98 594.42 401.22 400.71 401.79 400.11 514.19 281.3 648.56 139.25"/><polygon class="cls-2" points="477.17 684.79 477.17 684.8 392.46 655.26 217.98 594.42 378.04 650.22 392.46 655.25 477.17 684.79"/><polygon class="cls-4" points="874.15 487.31 567.49 716.29 603.99 456.53 675.82 464.72 874.15 487.31"/><polygon class="cls-2" points="207.08 285.86 217.98 594.42 207.07 285.86 207.01 284.13 202.99 170.27 207.01 284.13 207.08 285.86"/><polygon class="cls-2" points="401.79 400.11 401.22 400.71 371.23 365.85 202.99 170.27 371.54 365.13 401.79 400.11"/><polygon class="cls-5" points="401.22 400.71 217.98 594.42 207.08 285.86 207.01 284.13 202.99 170.27 371.23 365.85 401.22 400.71"/><polygon class="cls-7" points="648.56 139.25 626.73 294.61 614.62 380.86 614.62 380.87 603.99 456.53 567.49 716.29 477.17 684.8 477.17 684.79 392.46 655.25 416.94 605.93 416.94 605.93 539.81 358.37 648.56 139.25"/><polygon class="cls-2" points="477.17 684.79 477.17 684.8 392.46 655.26 392.46 655.25 477.17 684.79"/><circle class="cls-3" cx="671.47" cy="90.27" r="55.27"/><circle class="cls-3" cx="924.73" cy="464.77" r="55.27"/><circle class="cls-3" cx="60.27" cy="286.27" r="55.27"/></svg>