<svg
  xmlns="http://www.w3.org/2000/svg"
  viewBox="0 0 1500 1500"
  xmlns:v="https://vecta.io/nano"
>
  <path
    d="M1243.52 750.2c0 296.35-196.45 542.79-455.4 593.54-32.1 6.3-65.17 9.59-98.95 9.59-306.16 0-554.35-270.04-554.35-603.13 0-306.62 210.28-559.8 482.51-598.12a515.25 515.25 0 0 1 71.84-5.02c306.16 0 554.35 270.03 554.35 603.14z"
    fill="#a5b4fc"
  />
  <path
    d="M1463.44 991.35c-92.4 295.59-349.68 508.26-652.62 508.26l-116.75.37a643.6 643.6 0 0 0 58.02-3.06c275.37-27.12 504.01-230.47 589.83-505.57h121.53zm28.18-124.5c-2.35 16.38-5.2 32.57-8.52 48.59h-121.56a802.34 802.34 0 0 0 8.5-48.59h121.58zm6.53-172.08h-121.67c-24.65-367.09-292.23-660.8-628.57-691.69C728.54 1.31 708.96.4 689.17.4h144.2c353.3 12.36 639.42 314.02 664.78 694.38z"
    fill="#6366f1"
  />
  <g fill="#a5b4fc">
    <path
      d="M833.32.39h-44.99C795.8.13 803.3 0 810.82 0a647.22 647.22 0 0 1 22.5.39zM689.17 147.06a515.25 515.25 0 0 0-71.84 5.02C358.48 202.91 162.1 449.31 162.1 745.6c0 333.11 248.2 603.14 554.35 603.14 24.28 0 48.21-1.7 71.67-5 258.96-50.75 455.4-297.19 455.4-593.54 0-333.1-248.19-603.14-554.35-603.14z"
    />
    <path
      d="M1376.48 694.77c-24.65-367.09-292.23-660.8-628.57-691.69C728.54 1.31 708.96.4 689.17.4 308.55.39 0 336.09 0 750.2S308.55 1500 689.17 1500l4.9-.02a643.6 643.6 0 0 0 58.02-3.06c275.37-27.12 504.01-230.47 589.83-505.57 7.73-24.75 14.3-50.08 19.64-75.92a802.34 802.34 0 0 0 8.5-48.59c5.46-38.01 8.3-76.97 8.3-116.65a820.01 820.01 0 0 0-1.86-55.43zm-588.36 648.98c-32.1 6.3-65.17 9.59-98.95 9.59-306.16 0-554.35-270.04-554.35-603.13 0-306.62 210.28-559.8 482.51-598.12a515.25 515.25 0 0 1 71.84-5.02c306.16 0 554.35 270.03 554.35 603.14 0 296.35-196.45 542.79-455.4 593.54z"
    />
  </g>
  <path
    d="M788.12 1343.75c-32.1 6.3-65.17 9.59-98.95 9.59-306.16 0-554.35-270.04-554.35-603.13 0-306.62 210.28-559.8 482.51-598.12C358.48 202.92 162.1 449.32 162.1 745.61c0 333.11 248.2 603.14 554.35 603.14 24.28 0 48.21-1.7 71.67-5z"
    fill="#312e81"
  />
  <path
    d="M1243.52 750.2c0 296.35-196.45 542.79-455.4 593.54-23.46 3.3-47.39 5-71.67 5-306.15 0-554.35-270.03-554.35-603.14 0-296.29 196.38-542.69 455.23-593.52a515.25 515.25 0 0 1 71.84-5.02c306.16 0 554.35 270.03 554.35 603.14z"
    fill="#4338ca"
  />
  <g fill="#312e81">
    <path
      d="M1056.52 375.75v771.01H939.09v-568.2L708.26 948.5l-229.8-366.8v565.06H361.02V375.75h125.53l222.51 357.04 220.92-357.04h126.54z"
    />
    <path
      d="M273.74 911.11v-67.18h869.97v67.18zm0 141.79v-67.18h869.97v67.18z"
    />
  </g>
  <g fill="#a5b4fc">
    <path
      d="M1036.92 364.69v771.01H919.48V567.5L688.65 937.44l-229.79-366.8v565.06H341.42V364.69h125.53l222.51 357.04 220.91-357.04h126.55z"
    />
    <path
      d="M254.14 900.05v-67.18h869.97v67.18zm0 141.79v-67.18h869.97v67.18z"
    />
  </g>
  <path
    d="M1499.98 749.81c0 39.82-2.86 78.91-8.36 117.04h-121.58c5.46-38.01 8.3-76.97 8.3-116.65a820.01 820.01 0 0 0-1.86-55.43h121.67c1.22 18.17 1.83 36.53 1.83 55.03zm-16.87 165.62c-5.35 25.83-11.93 51.17-19.67 75.92h-121.53c7.73-24.75 14.3-50.08 19.64-75.92h121.56z"
    fill="#818cf8"
  />
</svg>
