<?xml version="1.0" encoding="UTF-8"?><svg id="Icon" xmlns="http://www.w3.org/2000/svg" viewBox="0 0 20 20"><defs><style>.cls-1{fill:#6366f1;}.cls-1,.cls-2,.cls-3,.cls-4{stroke-width:0px;}.cls-2{fill:none;}.cls-3{fill:#3730a3;}.cls-4{fill:#a5b4fc;}</style></defs><path class="cls-3" d="M19.42,13.49c-1.31,3.8-4.69,6.51-8.66,6.51h-1.4c.23,0,.46,0,.69-.03,3.62-.34,6.64-2.93,7.86-6.48h1.52Z"/><path class="cls-3" d="M19.76,12.28c-.04.18-.08.36-.13.54h-1.52c.05-.18.09-.36.13-.54h1.52Z"/><path class="cls-3" d="M20,9.81h-1.52C18.39,4.63,14.66.43,9.95.04c-.23-.02-.47-.03-.71-.03h1.4s.02,0,.02,0h.1c5.04,0,9.15,4.37,9.24,9.81Z"/><path class="cls-3" d="M17.31,10.01c0,4.45-3.08,8.12-7.06,8.64-.32.04-.65.06-.98.06-.03,0-.06,0-.08,0-.01,0-.02,0-.03,0-.03,0-.06,0-.09,0-.14,0-.28-.01-.42-.02-.03,0-.06,0-.09,0-.1,0-.2-.02-.3-.03-.01,0-.02,0-.03,0-.09-.01-.18-.03-.28-.04-.03,0-.05,0-.08-.01,0,0,0,0,0,0,0,0-.02,0-.03,0,0,0,0,0,0,0-.02,0-.05,0-.07-.01,0,0-.01,0-.02,0-.02,0-.05,0-.07-.01-.01,0-.02,0-.03,0-.02,0-.04,0-.06-.01,0,0,0,0,0,0-.01,0-.02,0-.04,0-.02,0-.05-.01-.07-.02-.02,0-.04,0-.05-.01-.02,0-.04,0-.06-.01-.03,0-.07-.02-.1-.03-.03,0-.06-.02-.09-.02,0,0-.01,0-.02,0-.02,0-.05-.01-.07-.02,0,0-.01,0-.02,0-.03,0-.06-.02-.09-.03-.03,0-.06-.02-.09-.03,0,0,0,0-.01,0,0,0,0,0-.01,0-.03,0-.06-.02-.08-.03-.03,0-.05-.02-.07-.03-.11-.04-.21-.08-.32-.12-.02,0-.04-.02-.06-.03,0,0-.01,0-.02,0-.02-.01-.05-.02-.07-.03-.02,0-.04-.02-.06-.03-.02,0-.03-.01-.05-.02-.03-.01-.06-.03-.08-.04-.03-.01-.05-.02-.08-.04-.03-.01-.05-.03-.08-.04,0,0-.01,0-.02-.01-.01,0-.03-.01-.04-.02-.02-.01-.04-.02-.06-.03-.01,0-.02-.01-.03-.02-.03-.02-.07-.04-.1-.05-.02,0-.04-.02-.05-.03-.01,0-.02-.01-.03-.02,0,0-.01,0-.02-.01-.02,0-.03-.02-.05-.03,0,0-.01,0-.02-.01-.02-.01-.04-.02-.06-.04,0,0-.02,0-.02-.01-.02-.01-.04-.03-.06-.04-.01,0-.03-.02-.04-.03-.03-.02-.05-.03-.08-.05-.02-.01-.03-.02-.05-.03-.01,0-.03-.02-.04-.03-.03-.02-.06-.04-.09-.06-.02-.01-.03-.02-.05-.03s-.03-.02-.04-.03c0,0,0,0,0,0-.03-.02-.05-.04-.08-.05,0,0-.02-.01-.03-.02-.01-.01-.03-.02-.04-.03-.01,0-.03-.02-.04-.03-.02-.01-.04-.03-.05-.04,0,0-.02-.01-.03-.02-.02-.01-.04-.03-.05-.04-.01,0-.02-.02-.03-.02-.01,0-.02-.02-.03-.03-.02-.01-.03-.03-.05-.04-.01-.01-.03-.02-.04-.03-.01-.01-.03-.02-.04-.03-.03-.02-.06-.05-.08-.07-.02-.02-.05-.04-.07-.06-.02-.02-.04-.03-.06-.05-.01-.01-.03-.02-.04-.03-.03-.02-.05-.05-.08-.07-.03-.03-.06-.06-.09-.09-.02-.02-.04-.03-.05-.05,0,0-.02-.02-.03-.02-.01-.01-.02-.02-.04-.03-.04-.04-.07-.07-.11-.11,0,0,0,0,0,0-.08-.08-.15-.16-.22-.24-.02-.02-.04-.05-.06-.07-.02-.02-.04-.04-.06-.07,0,0-.02-.02-.03-.03,0,0,0,0,0,0,0,0,0,0,0-.01-.01-.01-.02-.02-.03-.04-.01-.01-.02-.02-.03-.04-.03-.03-.06-.07-.08-.1-.02-.02-.04-.05-.06-.08,0,0,0,0,0,0-1.03-1.61-1.63-3.56-1.63-5.67s.56-3.93,1.53-5.51c0,0,0,0,0,0,0,0,0,0,0,0,0-.01.02-.02.03-.03,0,0,.02-.02.02-.03,0,0,0,0,.01-.01.01-.02.03-.04.04-.05,0,0,0,0,.01-.01.01-.01.02-.03.03-.04,0,0,0,0,0,0,0-.01.02-.02.03-.04,0,0,0,0,0-.01.01-.02.03-.03.04-.05,0-.01.02-.02.03-.03.01-.01.02-.03.03-.04.01-.01.02-.03.03-.04,0,0,.02-.02.02-.03,0,0,0,0,0,0,0,0,0,0,0,0,.04-.05.09-.1.13-.14.01-.02.03-.03.04-.05.01-.02.03-.03.04-.05.02-.02.04-.04.06-.06.02-.02.03-.04.05-.05,0,0,0,0,.01-.01.02-.02.04-.04.06-.06h0s.03-.04.04-.05c.04-.04.07-.07.11-.11.01-.01.03-.02.04-.04.02-.02.04-.04.06-.06.01-.01.02-.02.03-.03.07-.06.14-.12.21-.18.02-.02.04-.03.06-.05,0,0,0,0,.01,0,.02-.02.05-.04.07-.06.02-.02.04-.04.07-.05,0,0,0,0,.01,0,.02-.02.04-.03.06-.05.09-.07.17-.13.26-.19.01-.01.03-.02.04-.03.03-.02.06-.04.09-.06,0,0,.02-.01.02-.02.02-.01.04-.02.05-.04.02-.01.04-.03.06-.04.05-.04.11-.07.16-.1.02-.01.04-.03.07-.04.02-.01.04-.03.07-.04.04-.03.09-.05.13-.08,0,0,0,0,0,0,.01,0,.03-.02.04-.02,0,0,0,0,0,0,.01,0,.03-.02.04-.02.05-.02.09-.05.14-.07.01,0,.03-.01.04-.02.16-.08.32-.16.49-.23.03-.01.06-.02.09-.04.06-.02.12-.05.18-.07.02,0,.04-.02.06-.02,0,0,0,0,.01,0,.01,0,.02,0,.03-.01,0,0,0,0,0,0,.02,0,.04-.02.06-.02.03,0,.05-.02.08-.03.04-.01.08-.03.12-.04.03,0,.05-.02.08-.02.03,0,.06-.02.09-.03.02,0,.04-.01.06-.02.04-.01.08-.02.12-.03.03,0,.06-.02.09-.02.06-.02.13-.03.19-.05.03,0,.06-.01.09-.02.16-.03.32-.06.48-.09.03,0,.06,0,.1-.01.06,0,.12-.02.18-.02,0,0,.01,0,.02,0,0,0,.01,0,.02,0,.02,0,.04,0,.06,0,0,0,.01,0,.02,0,.03,0,.06,0,.08,0,0,0,.01,0,.02,0,.03,0,.06,0,.09,0,.18-.01.36-.02.54-.02,4.44,0,8.05,3.9,8.05,8.7Z"/><path class="cls-4" d="M5.41,2.37s.09-.05.13-.08c-.05.03-.09.05-.13.08ZM6.86,18.32s0,0,0,0c0,0,0,0,.01,0,0,0,0,0,0,0ZM6.86,18.32s0,0,0,0c0,0,0,0,.01,0,0,0,0,0,0,0ZM5.55,2.29s-.09.05-.13.08c.04-.03.09-.05.13-.08ZM1.29,8.86c0,.07-.02.14-.02.21,0-.07.01-.14.02-.21ZM9.26,1.31c-.18,0-.36,0-.54.02-1.74.23-3.31,1.06-4.53,2.29-.07.07-.13.13-.19.2-1.45,1.57-2.35,3.75-2.35,6.14,0,4.81,3.6,8.7,8.05,8.7.18,0,.36,0,.54-.02,3.98-.52,7.06-4.19,7.06-8.64,0-4.81-3.6-8.7-8.05-8.7Z"/><path class="cls-4" d="M18.48,9.81C18.39,4.63,14.66.43,9.95.04c-.23-.02-.47-.03-.71-.03C4.14,0,0,4.48,0,10s4.14,10,9.24,10h.12c.23,0,.46-.02.69-.04,3.62-.34,6.64-2.93,7.86-6.48.07-.22.14-.43.2-.66.05-.18.09-.36.13-.54.16-.73.24-1.5.24-2.28,0-.07,0-.13,0-.2ZM10.25,18.65c-.32.04-.65.06-.98.06-.03,0-.06,0-.08,0-.01,0-.02,0-.03,0-.03,0-.06,0-.09,0-.14,0-.28-.01-.42-.02-.03,0-.06,0-.09,0-.1,0-.2-.02-.3-.03-.01,0-.02,0-.03,0-.09-.01-.18-.03-.28-.04-.03,0-.05,0-.08-.01,0,0,0,0,0,0,0,0-.02,0-.03,0,0,0,0,0,0,0-.02,0-.05,0-.07-.01,0,0-.01,0-.02,0-.02,0-.05,0-.07-.01-.01,0-.02,0-.03,0-.02,0-.04,0-.06-.01,0,0,0,0,0,0-.01,0-.02,0-.04,0-.02,0-.05-.01-.07-.02-.02,0-.04,0-.05-.01-.02,0-.04,0-.06-.01-.03,0-.07-.02-.1-.03-.03,0-.06-.02-.09-.02,0,0-.01,0-.02,0-.02,0-.05-.01-.07-.02,0,0-.01,0-.02,0-.03,0-.06-.02-.09-.03-.03,0-.06-.02-.09-.03,0,0,0,0-.01,0,0,0,0,0-.01,0-.03,0-.06-.02-.08-.03-.03,0-.05-.02-.07-.03-.11-.04-.21-.08-.32-.12-.02,0-.04-.02-.06-.03,0,0-.01,0-.02,0-.02-.01-.05-.02-.07-.03-.02,0-.04-.02-.06-.03-.02,0-.03-.01-.05-.02-.03-.01-.06-.03-.08-.04-.03-.01-.05-.02-.08-.04-.03-.01-.05-.03-.08-.04,0,0-.01,0-.02-.01-.01,0-.03-.01-.04-.02-.02-.01-.04-.02-.06-.03-.01,0-.02-.01-.03-.02-.03-.02-.07-.04-.1-.05-.02,0-.04-.02-.05-.03-.01,0-.02-.01-.03-.02,0,0-.01,0-.02-.01-.02,0-.03-.02-.05-.03,0,0-.01,0-.02-.01-.02-.01-.04-.02-.06-.04,0,0-.02,0-.02-.01-.02-.01-.04-.03-.06-.04-.01,0-.03-.02-.04-.03-.03-.02-.05-.03-.08-.05-.02-.01-.03-.02-.05-.03-.01,0-.03-.02-.04-.03-.03-.02-.06-.04-.09-.06-.02-.01-.03-.02-.05-.03s-.03-.02-.04-.03c0,0,0,0,0,0-.03-.02-.05-.04-.08-.05,0,0-.02-.01-.03-.02-.01-.01-.03-.02-.04-.03-.01,0-.03-.02-.04-.03-.02-.01-.04-.03-.05-.04,0,0-.02-.01-.03-.02-.02-.01-.04-.03-.05-.04-.01,0-.02-.02-.03-.02-.01,0-.02-.02-.03-.03-.02-.01-.03-.03-.05-.04-.01-.01-.03-.02-.04-.03-.01-.01-.03-.02-.04-.03-.03-.02-.06-.05-.08-.07-.02-.02-.05-.04-.07-.06-.02-.02-.04-.03-.06-.05-.01-.01-.03-.02-.04-.03-.03-.02-.05-.05-.08-.07-.03-.03-.06-.06-.09-.09-.02-.02-.04-.03-.05-.05,0,0-.02-.02-.03-.02-.01-.01-.02-.02-.04-.03-.04-.04-.07-.07-.11-.11,0,0,0,0,0,0-.08-.08-.15-.16-.22-.24-.02-.02-.04-.05-.06-.07-.02-.02-.04-.04-.06-.07,0,0-.02-.02-.03-.03,0,0,0,0,0,0,0,0,0,0,0-.01-.01-.01-.02-.02-.03-.04-.01-.01-.02-.02-.03-.04-.03-.03-.06-.07-.08-.1-.02-.02-.04-.05-.06-.08,0,0,0,0,0,0-.02-.02-.03-.04-.05-.06-.03-.04-.06-.07-.08-.11-.01-.02-.03-.03-.04-.05-.02-.02-.04-.05-.05-.07-.02-.02-.04-.05-.05-.07s-.04-.05-.05-.07c-.02-.02-.03-.05-.05-.08-.01-.02-.03-.04-.04-.06,0,0,0,0,0,0,0,0,0-.01-.01-.02-.01-.02-.03-.04-.04-.06,0,0,0-.01-.01-.02,0,0,0,0,0,0-.01-.02-.03-.04-.04-.06,0,0,0-.01-.01-.02-.01-.02-.03-.04-.04-.06,0,0,0,0,0,0-.01-.02-.03-.04-.04-.06-.01-.02-.02-.04-.03-.06,0-.01-.01-.02-.02-.04-.06-.11-.12-.21-.18-.32,0-.02-.02-.03-.03-.05,0-.02-.02-.03-.03-.05,0-.02-.02-.03-.03-.05,0,0,0,0,0,0,0-.02-.02-.03-.03-.05-.02-.05-.05-.1-.07-.15-.01-.02-.02-.04-.03-.07-.04-.08-.08-.17-.12-.26-.01-.03-.03-.06-.04-.1-.01-.03-.02-.06-.04-.09,0,0,0-.01,0-.02,0-.02-.02-.05-.03-.07,0,0,0,0,0,0,0-.02-.01-.04-.02-.06-.02-.04-.03-.09-.05-.13,0-.02-.01-.03-.02-.05,0-.02-.01-.03-.02-.05,0-.02-.01-.04-.02-.06-.01-.03-.02-.06-.03-.09-.01-.03-.02-.06-.03-.09-.01-.03-.02-.06-.03-.1-.02-.05-.03-.1-.05-.15,0-.02,0-.03-.01-.05,0,0,0-.01,0-.02,0-.02-.01-.05-.02-.07-.02-.06-.03-.12-.05-.18,0-.02,0-.03-.01-.05,0-.02,0-.04-.01-.06,0-.01,0-.03-.01-.04,0-.03-.01-.06-.02-.09,0-.03-.02-.07-.02-.11s-.01-.07-.02-.11c0-.03-.01-.06-.02-.08,0,0,0,0,0,0,0-.02,0-.04-.01-.07,0-.01,0-.03,0-.04,0-.01,0-.02,0-.03,0-.02,0-.05-.01-.07,0-.01,0-.03,0-.04,0,0,0,0,0,0,0-.01,0-.03,0-.04,0,0,0,0,0-.01,0-.01,0-.02,0-.04,0-.02,0-.04,0-.06,0-.02,0-.05-.01-.07,0-.03,0-.05-.01-.08,0-.06-.01-.11-.02-.17,0-.02,0-.04,0-.05,0-.02,0-.04,0-.06,0,0,0-.02,0-.02,0-.02,0-.04,0-.06,0-.04,0-.07,0-.11,0-.02,0-.03,0-.05,0,0,0,0,0-.01,0,0,0-.02,0-.02,0,0,0-.01,0-.02,0-.02,0-.03,0-.05,0,0,0,0,0-.01,0-.01,0-.02,0-.03,0-.04,0-.07,0-.11,0-.02,0-.03,0-.05,0-.03,0-.06,0-.09,0-.02,0-.05,0-.07,0-.04,0-.08,0-.12,0-.04,0-.07,0-.11,0-.03,0-.07,0-.1,0-.02,0-.04,0-.05,0-.02,0-.03,0-.05,0-.01,0-.03,0-.04,0-.02,0-.04,0-.07,0-.01,0-.03,0-.04,0-.02,0-.04,0-.06,0-.01,0-.02,0-.03,0-.04,0-.08,0-.12,0-.02,0-.05,0-.07,0-.03,0-.06,0-.09,0,0,0-.02,0-.03h0s0-.05,0-.07c0,0,0,0,0-.01,0-.03,0-.07,0-.1,0-.07.01-.14.02-.21,0-.03,0-.06.01-.09.01-.1.03-.21.05-.31,0-.02,0-.04,0-.06,0-.05.02-.11.03-.16,0-.01,0-.03,0-.04,0-.02,0-.04.01-.07,0-.01,0-.02,0-.04.01-.07.03-.13.04-.2,0-.02,0-.04.01-.05,0-.01,0-.03.01-.04,0-.03.01-.06.02-.09,0-.03.01-.05.02-.08,0,0,0-.01,0-.02.02-.07.04-.14.06-.21,0-.01,0-.02.01-.04,0,0,0,0,0-.01.02-.07.04-.14.06-.21,0-.02.01-.03.02-.05,0-.03.02-.06.03-.09,0-.03.02-.06.03-.08,0-.02.02-.05.03-.07.01-.04.03-.08.04-.12,0-.02.01-.04.02-.06,0-.02.01-.03.02-.05.04-.1.08-.21.13-.31,0-.02.02-.04.03-.06.02-.05.04-.1.07-.14.01-.02.02-.05.03-.07.01-.02.02-.04.03-.06.02-.05.05-.1.07-.15.01-.02.02-.04.03-.06,0-.01.01-.03.02-.04.01-.02.02-.04.03-.06.03-.06.06-.12.09-.17,0-.01.02-.03.02-.04,0,0,0,0,0,0,0-.01.02-.03.02-.04,0,0,0,0,0,0,0-.01.01-.02.02-.03.05-.08.1-.16.15-.24.01-.02.03-.05.05-.07.02-.04.05-.07.07-.11,0-.01.01-.02.02-.03,0,0,0-.01.01-.02.02-.03.04-.06.06-.1,0,0,.01-.02.02-.03.01-.02.02-.03.03-.05.02-.03.04-.06.06-.09,0,0,0-.01.01-.02.01-.02.02-.03.04-.05.01-.02.03-.04.04-.05.01-.01.02-.03.03-.04,0,0,0,0,0,0,0,0,0,0,0,0,0-.01.02-.02.03-.03,0,0,.02-.02.02-.03,0,0,0,0,.01-.01.01-.02.03-.04.04-.05,0,0,0,0,.01-.01.01-.01.02-.03.03-.04,0,0,0,0,0,0,0-.01.02-.02.03-.04,0,0,0,0,0-.01.01-.02.03-.03.04-.05,0-.01.02-.02.03-.03.01-.01.02-.03.03-.04.01-.01.02-.03.03-.04,0,0,.02-.02.02-.03,0,0,0,0,0,0,0,0,0,0,0,0,.04-.05.09-.1.13-.14.01-.02.03-.03.04-.05.01-.02.03-.03.04-.05.02-.02.04-.04.06-.06.02-.02.03-.04.05-.05,0,0,0,0,.01-.01.02-.02.04-.04.06-.06h0s.03-.04.04-.05c.04-.04.07-.07.11-.11.01-.01.03-.02.04-.04.02-.02.04-.04.06-.06.01-.01.02-.02.03-.03.07-.06.14-.12.21-.18.02-.02.04-.03.06-.05,0,0,0,0,.01,0,.02-.02.05-.04.07-.06.02-.02.04-.04.07-.05,0,0,0,0,.01,0,.02-.02.04-.03.06-.05.09-.07.17-.13.26-.19.01-.01.03-.02.04-.03.03-.02.06-.04.09-.06,0,0,.02-.01.02-.02.02-.01.04-.02.05-.04.02-.01.04-.03.06-.04.05-.04.11-.07.16-.1.02-.01.04-.03.07-.04.02-.01.04-.03.07-.04.04-.03.09-.05.13-.08,0,0,0,0,0,0,.01,0,.03-.02.04-.02,0,0,0,0,0,0,.01,0,.03-.02.04-.02.05-.02.09-.05.14-.07.01,0,.03-.01.04-.02.16-.08.32-.16.49-.23.03-.01.06-.02.09-.04.06-.02.12-.05.18-.07.02,0,.04-.02.06-.02,0,0,0,0,.01,0,.01,0,.02,0,.03-.01,0,0,0,0,0,0,.02,0,.04-.02.06-.02.03,0,.05-.02.08-.03.04-.01.08-.03.12-.04.03,0,.05-.02.08-.02.03,0,.06-.02.09-.03.02,0,.04-.01.06-.02.04-.01.08-.02.12-.03.03,0,.06-.02.09-.02.06-.02.13-.03.19-.05.03,0,.06-.01.09-.02.16-.03.32-.06.48-.09.03,0,.06,0,.1-.01.06,0,.12-.02.18-.02,0,0,.01,0,.02,0,0,0,.01,0,.02,0,.02,0,.04,0,.06,0,0,0,.01,0,.02,0,.03,0,.06,0,.08,0,0,0,.01,0,.02,0,.03,0,.06,0,.09,0,.18-.01.36-.02.54-.02,4.44,0,8.05,3.9,8.05,8.7,0,4.45-3.08,8.12-7.06,8.64Z"/><path class="cls-3" d="M10.25,18.65c-.32.04-.65.06-.98.06-.03,0-.06,0-.08,0-.01,0-.02,0-.03,0-.03,0-.06,0-.09,0-.14,0-.28-.01-.42-.02-.03,0-.06,0-.09,0-.1,0-.2-.02-.3-.03-.01,0-.02,0-.03,0-.09-.01-.18-.03-.28-.04-.03,0-.05,0-.08-.01,0,0,0,0,0,0,0,0-.02,0-.03,0,0,0,0,0,0,0-.02,0-.05,0-.07-.01,0,0-.01,0-.02,0-.02,0-.05,0-.07-.01-.01,0-.02,0-.03,0-.02,0-.04,0-.06-.01,0,0,0,0,0,0-.01,0-.02,0-.04,0-.02,0-.05-.01-.07-.02-.02,0-.04,0-.05-.01-.02,0-.04,0-.06-.01-.03,0-.07-.02-.1-.03-.03,0-.06-.02-.09-.02,0,0-.01,0-.02,0-.02,0-.05-.01-.07-.02,0,0-.01,0-.02,0-.03,0-.06-.02-.09-.03-.03,0-.06-.02-.09-.03,0,0,0,0-.01,0,0,0,0,0-.01,0-.03,0-.06-.02-.08-.03-.03,0-.05-.02-.07-.03-.11-.04-.21-.08-.32-.12-.02,0-.04-.02-.06-.03,0,0-.01,0-.02,0-.02-.01-.05-.02-.07-.03-.02,0-.04-.02-.06-.03-.02,0-.03-.01-.05-.02-.03-.01-.06-.03-.08-.04-.03-.01-.05-.02-.08-.04-.03-.01-.05-.03-.08-.04,0,0-.01,0-.02-.01-.01,0-.03-.01-.04-.02-.02-.01-.04-.02-.06-.03-.01,0-.02-.01-.03-.02-.03-.02-.07-.04-.1-.05-.02,0-.04-.02-.05-.03-.01,0-.02-.01-.03-.02,0,0-.01,0-.02-.01-.02,0-.03-.02-.05-.03,0,0-.01,0-.02-.01-.02-.01-.04-.02-.06-.04,0,0-.02,0-.02-.01-.02-.01-.04-.03-.06-.04-.01,0-.03-.02-.04-.03-.03-.02-.05-.03-.08-.05-.02-.01-.03-.02-.05-.03-.01,0-.03-.02-.04-.03-.03-.02-.06-.04-.09-.06-.02-.01-.03-.02-.05-.03s-.03-.02-.04-.03c0,0,0,0,0,0-.03-.02-.05-.04-.08-.05,0,0-.02-.01-.03-.02-.01-.01-.03-.02-.04-.03-.01,0-.03-.02-.04-.03-.02-.01-.04-.03-.05-.04,0,0-.02-.01-.03-.02-.02-.01-.04-.03-.05-.04-.01,0-.02-.02-.03-.02-.01,0-.02-.02-.03-.03-.02-.01-.03-.03-.05-.04-.01-.01-.03-.02-.04-.03-.01-.01-.03-.02-.04-.03-.03-.02-.06-.05-.08-.07-.02-.02-.05-.04-.07-.06-.02-.02-.04-.03-.06-.05-.01-.01-.03-.02-.04-.03-.03-.02-.05-.05-.08-.07-.03-.03-.06-.06-.09-.09-.02-.02-.04-.03-.05-.05,0,0-.02-.02-.03-.02-.01-.01-.02-.02-.04-.03-.04-.04-.07-.07-.11-.11,0,0,0,0,0,0-.08-.08-.15-.16-.22-.24-.02-.02-.04-.05-.06-.07-.02-.02-.04-.04-.06-.07,0,0-.02-.02-.03-.03,0,0,0,0,0,0,0,0,0,0,0-.01-.01-.01-.02-.02-.03-.04-.01-.01-.02-.02-.03-.04-.03-.03-.06-.07-.08-.1-.02-.02-.04-.05-.06-.08,0,0,0,0,0,0-.02-.02-.03-.04-.05-.06-.03-.04-.06-.07-.08-.11-.01-.02-.03-.03-.04-.05-.02-.02-.04-.05-.05-.07-.02-.02-.04-.05-.05-.07s-.04-.05-.05-.07c-.02-.02-.03-.05-.05-.08-.01-.02-.03-.04-.04-.06,0,0,0,0,0,0,0,0,0-.01-.01-.02-.01-.02-.03-.04-.04-.06,0,0,0-.01-.01-.02,0,0,0,0,0,0-.01-.02-.03-.04-.04-.06,0,0,0-.01-.01-.02-.01-.02-.03-.04-.04-.06,0,0,0,0,0,0-.01-.02-.03-.04-.04-.06-.01-.02-.02-.04-.03-.06,0-.01-.01-.02-.02-.04-.06-.11-.12-.21-.18-.32,0-.02-.02-.03-.03-.05,0-.02-.02-.03-.03-.05,0-.02-.02-.03-.03-.05,0,0,0,0,0,0,0-.02-.02-.03-.03-.05-.02-.05-.05-.1-.07-.15-.01-.02-.02-.04-.03-.07-.04-.08-.08-.17-.12-.26-.01-.03-.03-.06-.04-.1-.01-.03-.02-.06-.04-.09,0,0,0-.01,0-.02,0-.02-.02-.05-.03-.07,0,0,0,0,0,0,0-.02-.01-.04-.02-.06-.02-.04-.03-.09-.05-.13,0-.02-.01-.03-.02-.05,0-.02-.01-.03-.02-.05,0-.02-.01-.04-.02-.06-.01-.03-.02-.06-.03-.09-.01-.03-.02-.06-.03-.09-.01-.03-.02-.06-.03-.1-.02-.05-.03-.1-.05-.15,0-.02,0-.03-.01-.05,0,0,0-.01,0-.02,0-.02-.01-.05-.02-.07-.02-.06-.03-.12-.05-.18,0-.02,0-.03-.01-.05,0-.02,0-.04-.01-.06,0-.01,0-.03-.01-.04,0-.03-.01-.06-.02-.09,0-.04-.02-.07-.02-.11,0-.04-.01-.07-.02-.11,0-.03-.01-.06-.02-.08,0,0,0,0,0,0,0-.02,0-.04-.01-.07,0-.01,0-.03,0-.04,0-.01,0-.02,0-.03,0-.02,0-.05-.01-.07,0-.01,0-.03,0-.04,0,0,0,0,0,0,0-.01,0-.03,0-.04,0,0,0,0,0-.01,0-.01,0-.02,0-.04,0-.02,0-.04,0-.06,0-.02,0-.05-.01-.07,0-.03,0-.05-.01-.08,0-.06-.01-.11-.02-.17,0-.02,0-.04,0-.05,0-.02,0-.04,0-.06,0,0,0-.02,0-.02,0-.02,0-.04,0-.06,0-.04,0-.07,0-.11,0-.02,0-.03,0-.05,0,0,0,0,0-.01,0,0,0-.02,0-.02,0,0,0-.01,0-.02,0-.02,0-.03,0-.05,0,0,0,0,0-.01,0-.01,0-.02,0-.03,0-.04,0-.07,0-.11,0-.02,0-.03,0-.05,0-.03,0-.06,0-.09,0-.02,0-.05,0-.07,0-.04,0-.08,0-.12,0-.04,0-.07,0-.11,0-.03,0-.07,0-.1,0-.02,0-.04,0-.05,0-.02,0-.03,0-.05,0-.01,0-.03,0-.04,0-.02,0-.04,0-.07,0-.01,0-.03,0-.04,0-.02,0-.04,0-.06,0-.01,0-.02,0-.03,0-.04,0-.08,0-.12,0-.02,0-.05,0-.07,0-.03,0-.06,0-.09,0,0,0-.02,0-.03h0s0-.05,0-.07c0,0,0,0,0-.01,0-.03,0-.07,0-.1,0-.07.01-.14.02-.21,0-.03,0-.06.01-.09.01-.1.03-.21.05-.31,0-.02,0-.04,0-.06,0-.05.02-.11.03-.16,0-.01,0-.03,0-.04,0-.02,0-.04.01-.07,0-.01,0-.02,0-.04.01-.07.03-.13.04-.2,0-.02,0-.04.01-.05,0-.01,0-.03.01-.04,0-.03.01-.06.02-.09,0-.03.01-.05.02-.08,0,0,0-.01,0-.02.02-.07.04-.14.06-.21,0-.02,0-.03.01-.05.02-.07.04-.14.06-.21,0-.02.01-.03.02-.05,0-.03.02-.06.03-.09,0-.03.02-.06.03-.08,0-.02.02-.05.03-.07.01-.04.03-.08.04-.12,0-.02.01-.04.02-.06,0-.02.01-.03.02-.05.04-.1.08-.21.13-.31,0-.02.02-.04.03-.06.02-.05.04-.1.07-.14.01-.02.02-.05.03-.07.01-.02.02-.04.03-.06.02-.05.05-.1.07-.15.01-.02.02-.04.03-.06,0-.01.01-.03.02-.04.01-.02.02-.04.03-.06.03-.06.06-.12.09-.17,0-.01.02-.03.02-.04,0,0,0,0,0,0,0-.01.02-.03.02-.04,0,0,0,0,0,0,0-.01.01-.02.02-.03.05-.08.1-.16.15-.24.01-.02.03-.05.05-.07.02-.04.05-.07.07-.11,0-.01.01-.02.02-.03,0,0,0-.01.01-.02.02-.03.04-.06.06-.1.02-.03.04-.05.05-.08.02-.03.04-.06.06-.09.02-.02.03-.05.05-.07.01-.02.03-.04.04-.05.01-.01.02-.03.03-.04,0,0,0,0,0,0,0,0,0,0,0,0,0,0,0,0,0,0,0-.01.02-.02.03-.03,0,0,.02-.02.02-.03.02-.02.04-.05.05-.07,0,0,0,0,.01-.01.01-.01.02-.03.03-.04,0,0,0,0,0,0,0-.01.02-.02.03-.04,0,0,0,0,0-.01.01-.02.03-.03.04-.05,0-.01.02-.02.03-.03.01-.01.02-.03.03-.04.01-.01.02-.03.03-.04,0-.01.02-.02.03-.03,0,0,0,0,0,0,.04-.05.09-.1.13-.14.01-.02.03-.03.04-.05.01-.02.03-.03.04-.05.02-.02.04-.04.06-.06.02-.02.03-.04.05-.05.02-.02.04-.05.07-.07h0s.03-.04.04-.05c.04-.04.07-.07.11-.11.01-.01.03-.02.04-.04.02-.02.04-.04.06-.06.01-.01.02-.02.03-.03.07-.06.14-.12.21-.18.02-.02.04-.03.06-.05,0,0,0,0,.01,0,.02-.02.05-.04.07-.06.02-.02.04-.04.07-.05,0,0,0,0,.01,0,.02-.02.04-.03.06-.05.09-.07.17-.13.26-.19.01-.01.03-.02.04-.03.03-.02.06-.04.09-.06,0,0,.02-.01.02-.02.02-.01.04-.02.05-.04.02-.01.04-.03.06-.04.05-.04.11-.07.16-.1.02-.01.04-.03.07-.04.02-.01.04-.03.07-.04.04-.03.09-.05.13-.08,0,0,0,0,0,0,.01,0,.03-.02.04-.02,0,0,0,0,0,0,.01,0,.03-.02.04-.02.05-.02.09-.05.14-.07.01,0,.03-.01.04-.02.16-.08.32-.16.49-.23.03-.01.06-.02.09-.04.06-.02.12-.05.18-.07.02,0,.04-.02.06-.02,0,0,0,0,.01,0,.01,0,.02,0,.03-.01,0,0,0,0,0,0,.02,0,.04-.02.06-.02.03,0,.05-.02.08-.03.04-.01.08-.03.12-.04.03,0,.05-.02.08-.02.03,0,.06-.02.09-.03.02,0,.04-.01.06-.02.04-.01.08-.02.12-.03.03,0,.06-.02.09-.02.06-.02.13-.03.19-.05.03,0,.06-.01.09-.02.16-.03.32-.06.48-.09.03,0,.06,0,.1-.01.06,0,.12-.02.18-.02,0,0,.01,0,.02,0,0,0,.01,0,.02,0,.02,0,.04,0,.06,0,0,0,.01,0,.02,0,.03,0,.06,0,.08,0,0,0,.01,0,.02,0,.03,0,.06,0,.09,0-1.74.23-3.31,1.06-4.53,2.29-.07.07-.13.13-.19.2-1.45,1.57-2.35,3.75-2.35,6.14,0,4.81,3.6,8.7,8.05,8.7.18,0,.36,0,.54-.02Z"/><path class="cls-1" d="M17.31,10.01c0,4.45-3.08,8.12-7.06,8.64-.18.01-.36.02-.54.02-4.44,0-8.05-3.9-8.05-8.7,0-2.4.9-4.57,2.35-6.14.06-.07.13-.14.19-.2,1.22-1.23,2.79-2.07,4.53-2.29.18-.01.36-.02.54-.02,4.44,0,8.05,3.9,8.05,8.7Z"/><polygon class="cls-3" points="13.85 5.55 13.85 15.07 12.39 15.07 12.39 8.06 9.52 12.62 6.67 8.1 6.67 15.07 5.21 15.07 5.21 5.55 6.77 5.55 9.53 9.96 12.27 5.55 13.85 5.55"/><polygon class="cls-4" points="13.57 5.25 13.57 14.77 12.11 14.77 12.11 7.76 9.25 12.32 6.39 7.79 6.39 14.77 4.94 14.77 4.94 5.25 6.5 5.25 9.26 9.66 12 5.25 13.57 5.25"/><line class="cls-2" x1="9.24" y1="20" x2="9.36" y2="20"/><path class="cls-1" d="M20,10c0,.79-.08,1.55-.24,2.29h-1.52c.16-.73.24-1.5.24-2.28,0-.07,0-.13,0-.2h1.52c0,.06,0,.13,0,.19Z"/><path class="cls-1" d="M19.62,12.83c-.06.22-.13.44-.2.66h-1.52c.07-.22.14-.43.2-.66h1.52Z"/></svg>