<?xml version="1.0" encoding="UTF-8"?><svg
  id="Layer_3"
  xmlns="http://www.w3.org/2000/svg"
  viewBox="0 0 1500 1500"
>
  <defs>
    <style>
      .cls-1 {
        fill: none;
      }
      .cls-2 {
        fill: #a88bfa;
      }
      .cls-3 {
        fill: #a5b4fc;
      }
      .cls-4 {
        fill: #c5b5fd;
      }
      .cls-5 {
        fill: #6d29d9;
      }
      .cls-6 {
        fill: #4c1d95;
      }
      .cls-7 {
        fill: #8b5cf6;
      }
    </style>
  </defs>
  <path
    class="cls-3"
    d="M1243.52,750.2c0,296.35-196.45,542.79-455.4,593.54-32.1,6.3-65.17,9.59-98.95,9.59-306.16,0-554.35-270.04-554.35-603.13,0-306.62,210.28-559.8,482.51-598.12,23.52-3.31,47.5-5.02,71.84-5.02,306.16,0,554.35,270.03,554.35,603.14Z"
  />
  <path
    class="cls-7"
    d="M1463.44,991.35c-92.4,295.59-349.68,508.26-652.62,508.26l-116.75.37c19.54-.15,38.89-1.18,58.02-3.06,275.37-27.12,504.01-230.47,589.83-505.57h121.53Z"
  />
  <path
    class="cls-7"
    d="M1491.62,866.85c-2.35,16.38-5.2,32.57-8.52,48.59h-121.56c3.31-16,6.15-32.21,8.5-48.59h121.58Z"
  />
  <path
    class="cls-7"
    d="M1498.15,694.77h-121.67C1351.83,327.68,1084.25,33.97,747.91,3.08c-19.37-1.77-38.95-2.68-58.74-2.68h144.2c353.3,12.36,639.42,314.02,664.78,694.38Z"
  />
  <path
    class="cls-3"
    d="M689.17,147.06c-24.34,0-48.32,1.71-71.84,5.02-258.85,50.83-455.23,297.23-455.23,593.52,0,333.11,248.2,603.14,554.35,603.14,24.28,0,48.21-1.7,71.67-5,258.96-50.75,455.4-297.19,455.4-593.54,0-333.1-248.19-603.14-554.35-603.14Z"
  />
  <path
    class="cls-4"
    d="M1376.48,694.77C1351.83,327.68,1084.25,33.97,747.91,3.08c-19.37-1.77-38.95-2.68-58.74-2.68C308.55.39,0,336.09,0,750.2s308.55,749.8,689.17,749.8l4.9-.02c19.54-.15,38.89-1.18,58.02-3.06,275.37-27.12,504.01-230.47,589.83-505.57,7.73-24.75,14.3-50.08,19.64-75.92,3.31-16,6.15-32.21,8.5-48.59,5.46-38.01,8.3-76.97,8.3-116.65,0-18.64-.62-37.13-1.86-55.43ZM788.12,1343.75c-32.1,6.3-65.17,9.59-98.95,9.59-306.16,0-554.35-270.04-554.35-603.13,0-306.62,210.28-559.8,482.51-598.12,23.52-3.31,47.5-5.02,71.84-5.02,306.16,0,554.35,270.03,554.35,603.14,0,296.35-196.45,542.79-455.4,593.54Z"
  />
  <path
    class="cls-6"
    d="M788.12,1343.75c-32.1,6.3-65.17,9.59-98.95,9.59-306.16,0-554.35-270.04-554.35-603.13,0-306.62,210.28-559.8,482.51-598.12-258.85,50.83-455.23,297.23-455.23,593.52,0,333.11,248.2,603.14,554.35,603.14,24.28,0,48.21-1.7,71.67-5Z"
  />
  <path
    class="cls-5"
    d="M1243.52,750.2c0,296.35-196.45,542.79-455.4,593.54-23.46,3.3-47.39,5-71.67,5-306.15,0-554.35-270.03-554.35-603.14,0-296.29,196.38-542.69,455.23-593.52,23.52-3.31,47.5-5.02,71.84-5.02,306.16,0,554.35,270.03,554.35,603.14Z"
  />
  <polygon
    class="cls-6"
    points="1056.52 375.75 1056.52 1146.76 939.09 1146.76 939.09 578.56 708.26 948.5 478.46 581.7 478.46 1146.76 361.02 1146.76 361.02 375.75 486.55 375.75 709.06 732.79 929.98 375.75 1056.52 375.75"
  />
  <rect
    class="cls-6"
    x="675.18"
    y="442.59"
    width="67.18"
    height="869.97"
    transform="translate(-168.85 1586.29) rotate(-90)"
  />
  <rect
    class="cls-6"
    x="675.18"
    y="584.39"
    width="67.18"
    height="869.97"
    transform="translate(-310.65 1728.08) rotate(-90)"
  />
  <polygon
    class="cls-4"
    points="1036.92 364.69 1036.92 1135.7 919.48 1135.7 919.48 567.5 688.65 937.44 458.86 570.64 458.86 1135.7 341.42 1135.7 341.42 364.69 466.95 364.69 689.46 721.73 910.37 364.69 1036.92 364.69"
  />
  <rect
    class="cls-4"
    x="655.58"
    y="431.53"
    width="67.18"
    height="869.97"
    transform="translate(-177.39 1555.63) rotate(-90)"
  />
  <rect
    class="cls-4"
    x="655.58"
    y="573.33"
    width="67.18"
    height="869.97"
    transform="translate(-319.19 1697.42) rotate(-90)"
  />
  <line class="cls-1" x1="689.17" y1="1500" x2="694.07" y2="1499.98" />
  <path
    class="cls-2"
    d="M1499.98,749.81c0,39.82-2.86,78.91-8.36,117.04h-121.58c5.46-38.01,8.3-76.97,8.3-116.65,0-18.64-.62-37.13-1.86-55.43h121.67c1.22,18.17,1.83,36.53,1.83,55.03Z"
  />
  <path
    class="cls-2"
    d="M1483.11,915.43c-5.35,25.83-11.93,51.17-19.67,75.92h-121.53c7.73-24.75,14.3-50.08,19.64-75.92h121.56Z"
  />
</svg>
