<?xml version="1.0" encoding="UTF-8"?><svg id="Layer_2" xmlns="http://www.w3.org/2000/svg" viewBox="0 0 196 58"><defs><style>.cls-1{fill:#fff;}</style></defs><path class="cls-1" d="M9.68,40.68V15.48h2.3v25.2h-2.3Zm11.52-7.6L10.25,16.81l.83-.65,.9-.68,10.33,15.3-1.12,2.3Zm0,0l-1.04-2.3,10.3-15.3,.9,.68,.79,.61-10.94,16.31Zm9.25,7.6V15.48h2.3v25.2h-2.3Z"/><path class="cls-1" d="M36.71,40.68l10.37-25.2h2.38l-10.3,25.2h-2.45Zm20.66,0l-10.3-25.2h2.38l10.37,25.2h-2.45Z"/><path class="cls-1" d="M63.78,40.68V15.48h2.3v25.2h-2.3Zm18.36,0l-17.82-23.9,1.76-1.3,17.82,23.87-1.76,1.33Zm0,0V15.48h2.3v25.2h-2.3Z"/><path class="cls-1" d="M91.65,40.68V15.48h2.3v25.2h-2.3Z"/><path class="cls-1" d="M101.15,40.68V15.48h2.3v25.2h-2.3Zm2.3-23.11v-2.09h12.2v2.09h-12.2Zm0,11.7v-2.09h10.98v2.09h-10.98Z"/><path class="cls-1" d="M130.96,41.11c-2.38,0-4.48-.55-6.32-1.66-1.84-1.1-3.28-2.64-4.32-4.61s-1.57-4.22-1.57-6.77,.52-4.83,1.55-6.79c1.03-1.96,2.45-3.49,4.27-4.59,1.81-1.1,3.91-1.66,6.28-1.66s4.48,.56,6.3,1.67c1.82,1.12,3.25,2.65,4.27,4.61,1.02,1.96,1.53,4.21,1.53,6.75s-.51,4.8-1.53,6.77c-1.02,1.97-2.43,3.5-4.23,4.61-1.8,1.1-3.88,1.66-6.23,1.66Zm0-2.09c1.9,0,3.57-.47,5.02-1.4,1.45-.94,2.59-2.23,3.42-3.87,.83-1.64,1.24-3.53,1.24-5.67s-.42-4.03-1.26-5.67c-.84-1.64-1.99-2.93-3.46-3.87-1.46-.94-3.16-1.4-5.08-1.4s-3.58,.47-5.06,1.4c-1.48,.94-2.63,2.23-3.47,3.87-.84,1.64-1.26,3.53-1.26,5.67s.42,4.03,1.26,5.67c.84,1.64,2.01,2.93,3.51,3.87,1.5,.94,3.21,1.4,5.13,1.4Z"/><path class="cls-1" d="M148.34,40.68V15.48h2.3v25.2h-2.3Zm2.3,0v-2.09h12.2v2.09h-12.2Z"/><path class="cls-1" d="M166.81,40.68V15.48h2.3v25.2h-2.3Zm2.3-23.11v-2.09h5.22v2.09h-5.22Zm0,23.11v-2.09h5.22v2.09h-5.22Zm5.22,0v-2.09c1.3,0,2.51-.27,3.64-.81,1.13-.54,2.12-1.3,2.99-2.27,.86-.97,1.54-2.09,2.02-3.37,.48-1.27,.72-2.63,.72-4.07s-.24-2.79-.72-4.07c-.48-1.27-1.15-2.39-2.02-3.37s-1.86-1.73-2.99-2.27c-1.13-.54-2.34-.81-3.64-.81v-2.09c2.28,0,4.3,.53,6.05,1.6,1.75,1.07,3.13,2.55,4.12,4.45,1,1.9,1.49,4.08,1.49,6.55s-.5,4.62-1.49,6.52-2.37,3.38-4.12,4.46c-1.75,1.08-3.77,1.62-6.05,1.62Z"/></svg>