<svg
  width="1500"
  height="1500"
  viewBox="0 0 1500 1500"
  fill="none"
  xmlns="http://www.w3.org/2000/svg"
>
  <g clip-path="url(#clip0_2_3)">
    <g filter="url(#filter0_d_2_3)">
      <path
        d="M750 1490.77C1159.12 1490.77 1490.77 1159.12 1490.77 750C1490.77 340.884 1159.12 9.22998 750 9.22998C340.884 9.22998 9.22998 340.884 9.22998 750C9.22998 1159.12 340.884 1490.77 750 1490.77Z"
        fill="#FDD34E"
      />
      <path
        d="M750 1345.86C1079.08 1345.86 1345.86 1079.08 1345.86 750C1345.86 420.916 1079.08 154.14 750 154.14C420.916 154.14 154.14 420.916 154.14 750C154.14 1079.08 420.916 1345.86 750 1345.86Z"
        fill="#D97708"
      />
      <path
        d="M757.87 1203.63C711.91 1203.63 669.92 1198.19 631.91 1187.35C593.9 1176.49 560.48 1161.45 531.66 1142.23C502.84 1123.02 479.03 1101.5 460.23 1077.7C441.43 1053.89 428.28 1029.04 420.77 1003.14L563.62 959.28C574.46 990.2 595.78 1017.35 627.52 1040.73C659.27 1064.13 698.52 1076.24 745.32 1077.08C799.61 1077.08 842.64 1065.81 874.39 1043.25C906.14 1020.69 922.01 991.03 922.01 954.27C922.01 920.85 908.63 893.5 881.9 872.19C855.17 850.9 819.25 834.39 774.14 822.69L666.37 795.12C625.42 784.28 588.46 768.4 555.47 747.52C522.48 726.64 496.58 700.31 477.78 668.57C458.98 636.82 449.59 599.23 449.59 555.78C449.59 473.92 476.31 410.21 529.77 364.67C583.24 319.14 659.68 296.37 759.1 296.37C815.06 296.37 864.14 304.94 906.33 322.06C948.51 339.2 983.38 362.58 1010.96 392.24C1038.53 421.9 1059.01 455.53 1072.38 493.12L932.02 538.22C919.48 504.82 897.76 477.24 866.85 455.52C835.94 433.8 797.51 422.94 751.57 422.94C705.63 422.94 666.56 434.23 639.42 456.77C612.26 479.33 598.69 510.67 598.69 550.76C598.69 583.34 609.33 608.61 630.64 626.57C651.93 644.53 680.96 658.11 717.73 667.3L825.5 693.62C904.03 712.85 965 745.84 1008.45 792.62C1051.89 839.4 1073.62 891.19 1073.62 947.99C1073.62 998.12 1061.49 1042.41 1037.27 1080.82C1013.05 1119.25 977.34 1149.32 930.13 1171.04C882.92 1192.76 825.5 1203.62 757.84 1203.62L757.87 1203.63Z"
        fill="#FDD34E"
      />
    </g>
    <mask
      id="mask0_2_3"
      style="mask-type: alpha"
      maskUnits="userSpaceOnUse"
      x="0"
      y="0"
      width="1500"
      height="1500"
    >
      <path
        d="M750 1490.77C1159.12 1490.77 1490.77 1159.12 1490.77 750C1490.77 340.884 1159.12 9.22998 750 9.22998C340.884 9.22998 9.22998 340.884 9.22998 750C9.22998 1159.12 340.884 1490.77 750 1490.77Z"
        fill="#FDD34E"
      />
      <path
        d="M750 1345.86C1079.08 1345.86 1345.86 1079.08 1345.86 750C1345.86 420.916 1079.08 154.14 750 154.14C420.916 154.14 154.14 420.916 154.14 750C154.14 1079.08 420.916 1345.86 750 1345.86Z"
        fill="#D97708"
      />
      <path
        d="M757.87 1203.63C711.91 1203.63 669.92 1198.19 631.91 1187.35C593.9 1176.49 560.48 1161.45 531.66 1142.23C502.84 1123.02 479.03 1101.5 460.23 1077.7C441.43 1053.89 428.28 1029.04 420.77 1003.14L563.62 959.28C574.46 990.2 595.78 1017.35 627.52 1040.73C659.27 1064.13 698.52 1076.24 745.32 1077.08C799.61 1077.08 842.64 1065.81 874.39 1043.25C906.14 1020.69 922.01 991.03 922.01 954.27C922.01 920.85 908.63 893.5 881.9 872.19C855.17 850.9 819.25 834.39 774.14 822.69L666.37 795.12C625.42 784.28 588.46 768.4 555.47 747.52C522.48 726.64 496.58 700.31 477.78 668.57C458.98 636.82 449.59 599.23 449.59 555.78C449.59 473.92 476.31 410.21 529.77 364.67C583.24 319.14 659.68 296.37 759.1 296.37C815.06 296.37 864.14 304.94 906.33 322.06C948.51 339.2 983.38 362.58 1010.96 392.24C1038.53 421.9 1059.01 455.53 1072.38 493.12L932.02 538.22C919.48 504.82 897.76 477.24 866.85 455.52C835.94 433.8 797.51 422.94 751.57 422.94C705.63 422.94 666.56 434.23 639.42 456.77C612.26 479.33 598.69 510.67 598.69 550.76C598.69 583.34 609.33 608.61 630.64 626.57C651.93 644.53 680.96 658.11 717.73 667.3L825.5 693.62C904.03 712.85 965 745.84 1008.45 792.62C1051.89 839.4 1073.62 891.19 1073.62 947.99C1073.62 998.12 1061.49 1042.41 1037.27 1080.82C1013.05 1119.25 977.34 1149.32 930.13 1171.04C882.92 1192.76 825.5 1203.62 757.84 1203.62L757.87 1203.63Z"
        fill="#FDD34E"
      />
    </mask>
    <g mask="url(#mask0_2_3)">
      <g filter="url(#filter1_d_2_3)">
        <line
          x1="1695.5"
          y1="-160.503"
          x2="-266.502"
          y2="1801.5"
          stroke="#D10202"
          stroke-width="140"
        />
        <line
          x1="-266.503"
          y1="-259.497"
          x2="1695.5"
          y2="1702.5"
          stroke="#D10202"
          stroke-width="140"
        />
      </g>
    </g>
  </g>
  <defs>
    <filter
      id="filter0_d_2_3"
      x="-4"
      y="0"
      width="1508"
      height="1508"
      filterUnits="userSpaceOnUse"
      color-interpolation-filters="sRGB"
    >
      <feFlood flood-opacity="0" result="BackgroundImageFix" />
      <feColorMatrix
        in="SourceAlpha"
        type="matrix"
        values="0 0 0 0 0 0 0 0 0 0 0 0 0 0 0 0 0 0 127 0"
        result="hardAlpha"
      />
      <feOffset dy="4" />
      <feGaussianBlur stdDeviation="2" />
      <feComposite in2="hardAlpha" operator="out" />
      <feColorMatrix
        type="matrix"
        values="0 0 0 0 0 0 0 0 0 0 0 0 0 0 0 0 0 0 0.25 0"
      />
      <feBlend
        mode="normal"
        in2="BackgroundImageFix"
        result="effect1_dropShadow_2_3"
      />
      <feBlend
        mode="normal"
        in="SourceGraphic"
        in2="effect1_dropShadow_2_3"
        result="shape"
      />
    </filter>
    <filter
      id="filter1_d_2_3"
      x="-320"
      y="-308.995"
      width="2068.99"
      height="2167.99"
      filterUnits="userSpaceOnUse"
      color-interpolation-filters="sRGB"
    >
      <feFlood flood-opacity="0" result="BackgroundImageFix" />
      <feColorMatrix
        in="SourceAlpha"
        type="matrix"
        values="0 0 0 0 0 0 0 0 0 0 0 0 0 0 0 0 0 0 127 0"
        result="hardAlpha"
      />
      <feOffset dy="4" />
      <feGaussianBlur stdDeviation="2" />
      <feComposite in2="hardAlpha" operator="out" />
      <feColorMatrix
        type="matrix"
        values="0 0 0 0 0 0 0 0 0 0 0 0 0 0 0 0 0 0 0.25 0"
      />
      <feBlend
        mode="normal"
        in2="BackgroundImageFix"
        result="effect1_dropShadow_2_3"
      />
      <feBlend
        mode="normal"
        in="SourceGraphic"
        in2="effect1_dropShadow_2_3"
        result="shape"
      />
    </filter>
    <clipPath id="clip0_2_3">
      <rect width="1500" height="1500" fill="white" />
    </clipPath>
  </defs>
</svg>
