<svg width="557" height="314" viewBox="0 0 557 314" fill="none" xmlns="http://www.w3.org/2000/svg">
<rect x="10" y="10" width="537" height="294" rx="25" fill="url(#paint0_linear_8_38)"/>
<path d="M163.35 74V39H170.2V74H163.35ZM140.3 74V38.95H147.15V74H140.3ZM145.4 59.25V52.95H166.6V59.25H145.4ZM188.6 74.6C186.067 74.6 183.8 74.05 181.8 72.95C179.833 71.8167 178.283 70.2667 177.15 68.3C176.05 66.3333 175.5 64.0667 175.5 61.5C175.5 58.9333 176.05 56.6667 177.15 54.7C178.25 52.7333 179.783 51.2 181.75 50.1C183.717 48.9667 185.967 48.4 188.5 48.4C191.067 48.4 193.333 48.9667 195.3 50.1C197.267 51.2 198.8 52.7333 199.9 54.7C201 56.6667 201.55 58.9333 201.55 61.5C201.55 64.0667 201 66.3333 199.9 68.3C198.8 70.2667 197.267 71.8167 195.3 72.95C193.367 74.05 191.133 74.6 188.6 74.6ZM188.6 68.5C189.833 68.5 190.917 68.2 191.85 67.6C192.783 67 193.5 66.1833 194 65.15C194.533 64.0833 194.8 62.8667 194.8 61.5C194.8 60.1333 194.533 58.9333 194 57.9C193.467 56.8333 192.717 56 191.75 55.4C190.817 54.8 189.733 54.5 188.5 54.5C187.3 54.5 186.217 54.8 185.25 55.4C184.317 56 183.583 56.8333 183.05 57.9C182.517 58.9333 182.25 60.1333 182.25 61.5C182.25 62.8667 182.517 64.0833 183.05 65.15C183.583 66.1833 184.333 67 185.3 67.6C186.267 68.2 187.367 68.5 188.6 68.5ZM228.229 74L236.529 49H243.229L234.729 74H228.229ZM211.629 74L219.629 49H225.379L217.479 74H211.629ZM210.979 74L202.479 49H209.179L217.129 74H210.979ZM228.229 74L220.429 49H226.129L234.079 74H228.229ZM268.791 74.6C266.024 74.6 263.924 73.9167 262.491 72.55C261.091 71.1833 260.391 69.2333 260.391 66.7V41.2H266.991V65.25C266.991 66.3167 267.224 67.1333 267.691 67.7C268.157 68.2333 268.841 68.5 269.741 68.5C270.074 68.5 270.441 68.4333 270.841 68.3C271.241 68.1333 271.657 67.9 272.091 67.6L274.391 72.55C273.591 73.15 272.691 73.6333 271.691 74C270.724 74.4 269.757 74.6 268.791 74.6ZM256.341 54.6V49H273.241V54.6H256.341ZM289.918 74.6C287.385 74.6 285.118 74.05 283.118 72.95C281.152 71.8167 279.602 70.2667 278.468 68.3C277.368 66.3333 276.818 64.0667 276.818 61.5C276.818 58.9333 277.368 56.6667 278.468 54.7C279.568 52.7333 281.102 51.2 283.068 50.1C285.035 48.9667 287.285 48.4 289.818 48.4C292.385 48.4 294.652 48.9667 296.618 50.1C298.585 51.2 300.118 52.7333 301.218 54.7C302.318 56.6667 302.868 58.9333 302.868 61.5C302.868 64.0667 302.318 66.3333 301.218 68.3C300.118 70.2667 298.585 71.8167 296.618 72.95C294.685 74.05 292.452 74.6 289.918 74.6ZM289.918 68.5C291.152 68.5 292.235 68.2 293.168 67.6C294.102 67 294.818 66.1833 295.318 65.15C295.852 64.0833 296.118 62.8667 296.118 61.5C296.118 60.1333 295.852 58.9333 295.318 57.9C294.785 56.8333 294.035 56 293.068 55.4C292.135 54.8 291.052 54.5 289.818 54.5C288.618 54.5 287.535 54.8 286.568 55.4C285.635 56 284.902 56.8333 284.368 57.9C283.835 58.9333 283.568 60.1333 283.568 61.5C283.568 62.8667 283.835 64.0833 284.368 65.15C284.902 66.1833 285.652 67 286.618 67.6C287.585 68.2 288.685 68.5 289.918 68.5ZM320.085 74V39H342.235V45.25H326.935V53.2H340.135V59.3H326.935V67.75H342.435V74H320.085ZM363.679 74L363.479 68.95V61.35C363.479 59.85 363.312 58.5667 362.979 57.5C362.679 56.4333 362.179 55.6167 361.479 55.05C360.812 54.45 359.895 54.15 358.729 54.15C357.662 54.15 356.695 54.3833 355.829 54.85C354.962 55.3167 354.229 56.0333 353.629 57L347.829 55C348.295 53.9333 348.979 52.9 349.879 51.9C350.779 50.8667 351.945 50.0333 353.379 49.4C354.845 48.7333 356.629 48.4 358.729 48.4C361.262 48.4 363.362 48.8833 365.029 49.85C366.729 50.8167 367.979 52.1833 368.779 53.95C369.612 55.6833 370.012 57.75 369.979 60.15L369.829 74H363.679ZM356.679 74.6C353.679 74.6 351.345 73.9333 349.679 72.6C348.045 71.2667 347.229 69.3833 347.229 66.95C347.229 64.2833 348.112 62.2833 349.879 60.95C351.679 59.5833 354.195 58.9 357.429 58.9H363.779V63.8H359.729C357.562 63.8 356.062 64.0667 355.229 64.6C354.395 65.1 353.979 65.8167 353.979 66.75C353.979 67.4833 354.312 68.0667 354.979 68.5C355.645 68.9 356.579 69.1 357.779 69.1C358.879 69.1 359.845 68.85 360.679 68.35C361.545 67.8167 362.229 67.15 362.729 66.35C363.229 65.5167 363.479 64.6667 363.479 63.8H365.079C365.079 67.2 364.429 69.85 363.129 71.75C361.862 73.65 359.712 74.6 356.679 74.6ZM379.889 60.85C379.889 58.15 380.405 55.9167 381.439 54.15C382.505 52.3833 383.855 51.0667 385.489 50.2C387.155 49.3333 388.889 48.9 390.689 48.9V55.3C389.155 55.3 387.705 55.4833 386.339 55.85C385.005 56.2167 383.922 56.8167 383.089 57.65C382.255 58.4833 381.839 59.55 381.839 60.85H379.889ZM375.239 74V49H381.839V74H375.239ZM394.184 74V49H400.384L400.784 53.6V74H394.184ZM410.734 74V61.2H417.334V74H410.734ZM410.734 61.2C410.734 59.5 410.534 58.1833 410.134 57.25C409.767 56.3167 409.234 55.65 408.534 55.25C407.834 54.8167 407.017 54.6 406.084 54.6C404.384 54.5667 403.067 55.0833 402.134 56.15C401.234 57.2167 400.784 58.8 400.784 60.9H398.584C398.584 58.2333 398.967 55.9833 399.734 54.15C400.534 52.2833 401.634 50.8667 403.034 49.9C404.467 48.9 406.134 48.4 408.034 48.4C410.001 48.4 411.684 48.8 413.084 49.6C414.484 50.4 415.551 51.65 416.284 53.35C417.017 55.0167 417.367 57.1833 417.334 59.85V61.2H410.734Z" fill="white"/>
<path d="M80.7362 124.5V122.052H90.6242V124.5H80.7362ZM84.3842 124.5V109.188L84.6242 107.7H87.0722V124.5H84.3842ZM80.7362 112.62V110.1C81.1042 110.116 81.5202 110.012 81.9842 109.788C82.4482 109.548 82.9122 109.236 83.3762 108.852C83.8562 108.468 84.2722 108.076 84.6242 107.676L86.3762 109.476C85.8162 110.068 85.2242 110.612 84.6002 111.108C83.9922 111.604 83.3682 111.988 82.7282 112.26C82.0882 112.532 81.4242 112.652 80.7362 112.62ZM95.206 124.836C94.742 124.836 94.342 124.676 94.006 124.356C93.686 124.02 93.526 123.62 93.526 123.156C93.526 122.692 93.686 122.292 94.006 121.956C94.342 121.62 94.742 121.452 95.206 121.452C95.67 121.452 96.07 121.62 96.406 121.956C96.742 122.292 96.91 122.692 96.91 123.156C96.91 123.62 96.742 124.02 96.406 124.356C96.07 124.676 95.67 124.836 95.206 124.836ZM113.296 124.5L119.872 107.7H122.848L116.056 124.5H113.296ZM113.008 124.5L106.216 107.7H109.168L115.744 124.5H113.008ZM128.942 124.788C127.774 124.788 126.734 124.524 125.822 123.996C124.926 123.452 124.214 122.708 123.686 121.764C123.174 120.82 122.918 119.732 122.918 118.5C122.918 117.268 123.182 116.18 123.71 115.236C124.238 114.292 124.958 113.556 125.87 113.028C126.798 112.484 127.854 112.212 129.038 112.212C130.11 112.212 131.078 112.492 131.942 113.052C132.806 113.596 133.486 114.388 133.982 115.428C134.494 116.468 134.75 117.708 134.75 119.148H125.318L125.678 118.812C125.678 119.548 125.838 120.188 126.158 120.732C126.478 121.26 126.902 121.668 127.43 121.956C127.958 122.244 128.542 122.388 129.182 122.388C129.918 122.388 130.526 122.228 131.006 121.908C131.486 121.572 131.862 121.14 132.134 120.612L134.51 121.62C134.174 122.26 133.742 122.82 133.214 123.3C132.702 123.78 132.086 124.148 131.366 124.404C130.662 124.66 129.854 124.788 128.942 124.788ZM125.846 117.42L125.462 117.084H132.23L131.87 117.42C131.87 116.764 131.726 116.228 131.438 115.812C131.15 115.38 130.782 115.06 130.334 114.852C129.902 114.628 129.446 114.516 128.966 114.516C128.486 114.516 128.006 114.628 127.526 114.852C127.046 115.06 126.646 115.38 126.326 115.812C126.006 116.228 125.846 116.764 125.846 117.42ZM138.584 118.116C138.584 116.82 138.832 115.756 139.328 114.924C139.824 114.092 140.464 113.476 141.248 113.076C142.048 112.66 142.88 112.452 143.744 112.452V115.02C143.008 115.02 142.312 115.124 141.656 115.332C141.016 115.524 140.496 115.844 140.096 116.292C139.696 116.74 139.496 117.332 139.496 118.068L138.584 118.116ZM136.808 124.5V112.5H139.496V124.5H136.808ZM145.695 124.5V112.5H148.359V124.5H145.695ZM147.039 110.22C146.607 110.22 146.231 110.068 145.911 109.764C145.607 109.444 145.455 109.068 145.455 108.636C145.455 108.204 145.607 107.836 145.911 107.532C146.231 107.228 146.607 107.076 147.039 107.076C147.471 107.076 147.839 107.228 148.143 107.532C148.463 107.836 148.623 108.204 148.623 108.636C148.623 109.068 148.463 109.444 148.143 109.764C147.839 110.068 147.471 110.22 147.039 110.22ZM152.727 124.5V111.228C152.727 109.964 153.039 108.996 153.663 108.324C154.303 107.636 155.263 107.292 156.543 107.292C156.959 107.292 157.399 107.364 157.863 107.508C158.343 107.636 158.799 107.812 159.231 108.036L158.247 110.028C157.943 109.884 157.671 109.78 157.431 109.716C157.207 109.652 157.007 109.62 156.831 109.62C156.351 109.62 155.991 109.78 155.751 110.1C155.527 110.404 155.415 110.908 155.415 111.612V124.5H152.727ZM150.663 114.708V112.5H158.559V114.708H150.663ZM162.634 129.588C162.25 129.588 161.818 129.516 161.338 129.372C160.874 129.228 160.426 129.044 159.994 128.82L161.002 126.636C161.306 126.78 161.586 126.892 161.842 126.972C162.098 127.068 162.306 127.116 162.466 127.116C162.85 127.116 163.17 127.012 163.426 126.804C163.698 126.612 163.914 126.324 164.074 125.94L165.49 122.628L169.546 112.5H172.474L166.906 125.772C166.57 126.54 166.226 127.212 165.874 127.788C165.538 128.364 165.114 128.804 164.602 129.108C164.09 129.428 163.434 129.588 162.634 129.588ZM164.77 124.5L159.394 112.5H162.322L166.498 122.604L167.362 124.5H164.77ZM187.183 124.5L187.063 122.244V118.332C187.063 117.516 186.975 116.836 186.799 116.292C186.639 115.732 186.367 115.308 185.983 115.02C185.615 114.716 185.119 114.564 184.495 114.564C183.919 114.564 183.415 114.684 182.983 114.924C182.551 115.164 182.183 115.54 181.879 116.052L179.527 115.188C179.783 114.66 180.119 114.172 180.535 113.724C180.967 113.26 181.503 112.892 182.143 112.62C182.799 112.348 183.583 112.212 184.495 112.212C185.663 112.212 186.639 112.444 187.423 112.908C188.207 113.356 188.783 114.004 189.151 114.852C189.535 115.7 189.727 116.724 189.727 117.924L189.655 124.5H187.183ZM183.727 124.788C182.287 124.788 181.167 124.468 180.367 123.828C179.583 123.188 179.191 122.284 179.191 121.116C179.191 119.868 179.607 118.916 180.439 118.26C181.287 117.604 182.463 117.276 183.967 117.276H187.183V119.34H184.831C183.759 119.34 183.007 119.492 182.575 119.796C182.143 120.084 181.927 120.5 181.927 121.044C181.927 121.508 182.111 121.876 182.479 122.148C182.863 122.404 183.391 122.532 184.063 122.532C184.671 122.532 185.199 122.396 185.647 122.124C186.095 121.852 186.439 121.492 186.679 121.044C186.935 120.596 187.063 120.092 187.063 119.532H187.855C187.855 121.164 187.527 122.452 186.871 123.396C186.215 124.324 185.167 124.788 183.727 124.788ZM192.449 124.5V112.5H194.969L195.137 114.708V124.5H192.449ZM200.585 124.5V118.356H203.273V124.5H200.585ZM200.585 118.356C200.585 117.396 200.473 116.66 200.249 116.148C200.041 115.62 199.737 115.252 199.337 115.044C198.953 114.836 198.497 114.732 197.969 114.732C197.073 114.716 196.377 115.012 195.881 115.62C195.385 116.228 195.137 117.1 195.137 118.236H194.129C194.129 116.972 194.313 115.892 194.681 114.996C195.049 114.084 195.577 113.396 196.265 112.932C196.953 112.452 197.769 112.212 198.713 112.212C199.673 112.212 200.489 112.404 201.161 112.788C201.849 113.172 202.369 113.772 202.721 114.588C203.089 115.388 203.273 116.436 203.273 117.732V118.356H200.585ZM214.66 124.5L214.54 122.268V107.7H217.204V124.5H214.66ZM210.748 124.788C209.66 124.788 208.708 124.532 207.892 124.02C207.092 123.492 206.46 122.756 205.996 121.812C205.548 120.868 205.324 119.764 205.324 118.5C205.324 117.22 205.548 116.116 205.996 115.188C206.46 114.244 207.092 113.516 207.892 113.004C208.708 112.476 209.66 112.212 210.748 112.212C211.756 112.212 212.62 112.476 213.34 113.004C214.076 113.516 214.636 114.244 215.02 115.188C215.404 116.116 215.596 117.22 215.596 118.5C215.596 119.764 215.404 120.868 215.02 121.812C214.636 122.756 214.076 123.492 213.34 124.02C212.62 124.532 211.756 124.788 210.748 124.788ZM211.42 122.34C212.028 122.34 212.564 122.18 213.028 121.86C213.508 121.524 213.876 121.068 214.132 120.492C214.404 119.916 214.54 119.252 214.54 118.5C214.54 117.748 214.404 117.084 214.132 116.508C213.876 115.932 213.508 115.484 213.028 115.164C212.564 114.844 212.02 114.684 211.396 114.684C210.756 114.684 210.188 114.844 209.692 115.164C209.196 115.484 208.804 115.932 208.516 116.508C208.244 117.084 208.1 117.748 208.084 118.5C208.1 119.252 208.244 119.916 208.516 120.492C208.804 121.068 209.196 121.524 209.692 121.86C210.204 122.18 210.78 122.34 211.42 122.34ZM231.581 124.788C230.349 124.788 229.261 124.524 228.317 123.996C227.373 123.452 226.629 122.708 226.085 121.764C225.557 120.82 225.293 119.732 225.293 118.5C225.293 117.268 225.557 116.18 226.085 115.236C226.629 114.292 227.365 113.556 228.293 113.028C229.237 112.484 230.317 112.212 231.533 112.212C232.717 112.212 233.789 112.5 234.749 113.076C235.709 113.636 236.421 114.444 236.885 115.5L234.389 116.46C234.133 115.932 233.741 115.508 233.213 115.188C232.685 114.868 232.085 114.708 231.413 114.708C230.757 114.708 230.173 114.876 229.661 115.212C229.149 115.532 228.749 115.98 228.461 116.556C228.173 117.116 228.029 117.764 228.029 118.5C228.029 119.236 228.173 119.892 228.461 120.468C228.765 121.028 229.173 121.476 229.685 121.812C230.213 122.132 230.805 122.292 231.461 122.292C232.133 122.292 232.733 122.124 233.261 121.788C233.789 121.436 234.181 120.964 234.437 120.372L236.933 121.332C236.469 122.42 235.757 123.268 234.797 123.876C233.853 124.484 232.781 124.788 231.581 124.788ZM239.019 124.5V107.7H241.707V124.5H239.019ZM252.011 124.5L251.891 122.244V118.332C251.891 117.516 251.803 116.836 251.627 116.292C251.467 115.732 251.195 115.308 250.811 115.02C250.443 114.716 249.947 114.564 249.323 114.564C248.747 114.564 248.243 114.684 247.811 114.924C247.379 115.164 247.011 115.54 246.707 116.052L244.355 115.188C244.611 114.66 244.947 114.172 245.363 113.724C245.795 113.26 246.331 112.892 246.971 112.62C247.627 112.348 248.411 112.212 249.323 112.212C250.491 112.212 251.467 112.444 252.251 112.908C253.035 113.356 253.611 114.004 253.979 114.852C254.363 115.7 254.555 116.724 254.555 117.924L254.483 124.5H252.011ZM248.555 124.788C247.115 124.788 245.995 124.468 245.195 123.828C244.411 123.188 244.019 122.284 244.019 121.116C244.019 119.868 244.435 118.916 245.267 118.26C246.115 117.604 247.291 117.276 248.795 117.276H252.011V119.34H249.659C248.587 119.34 247.835 119.492 247.403 119.796C246.971 120.084 246.755 120.5 246.755 121.044C246.755 121.508 246.939 121.876 247.307 122.148C247.691 122.404 248.219 122.532 248.891 122.532C249.499 122.532 250.027 122.396 250.475 122.124C250.923 121.852 251.267 121.492 251.507 121.044C251.763 120.596 251.891 120.092 251.891 119.532H252.683C252.683 121.164 252.355 122.452 251.699 123.396C251.043 124.324 249.995 124.788 248.555 124.788ZM257.445 124.5V112.5H260.109V124.5H257.445ZM258.789 110.22C258.357 110.22 257.981 110.068 257.661 109.764C257.357 109.444 257.205 109.068 257.205 108.636C257.205 108.204 257.357 107.836 257.661 107.532C257.981 107.228 258.357 107.076 258.789 107.076C259.221 107.076 259.589 107.228 259.893 107.532C260.213 107.836 260.373 108.204 260.373 108.636C260.373 109.068 260.213 109.444 259.893 109.764C259.589 110.068 259.221 110.22 258.789 110.22ZM263.277 124.5V112.5H265.797L265.917 114.108C266.285 113.484 266.757 113.012 267.333 112.692C267.909 112.372 268.565 112.212 269.301 112.212C270.261 112.212 271.077 112.428 271.749 112.86C272.421 113.292 272.909 113.948 273.213 114.828C273.565 113.98 274.061 113.332 274.701 112.884C275.341 112.436 276.093 112.212 276.957 112.212C278.349 112.212 279.421 112.66 280.173 113.556C280.925 114.436 281.293 115.796 281.277 117.636V124.5H278.613V118.356C278.613 117.396 278.509 116.66 278.301 116.148C278.093 115.62 277.813 115.252 277.461 115.044C277.109 114.836 276.701 114.732 276.237 114.732C275.405 114.716 274.757 115.012 274.293 115.62C273.845 116.228 273.621 117.1 273.621 118.236V124.5H270.933V118.356C270.933 117.396 270.829 116.66 270.621 116.148C270.429 115.62 270.157 115.252 269.805 115.044C269.453 114.836 269.045 114.732 268.581 114.732C267.749 114.716 267.101 115.012 266.637 115.62C266.189 116.228 265.965 117.1 265.965 118.236V124.5H263.277ZM291.704 129.588C291.32 129.588 290.888 129.516 290.408 129.372C289.944 129.228 289.496 129.044 289.064 128.82L290.072 126.636C290.376 126.78 290.656 126.892 290.912 126.972C291.168 127.068 291.376 127.116 291.536 127.116C291.92 127.116 292.24 127.012 292.496 126.804C292.768 126.612 292.984 126.324 293.144 125.94L294.56 122.628L298.616 112.5H301.544L295.976 125.772C295.64 126.54 295.296 127.212 294.944 127.788C294.608 128.364 294.184 128.804 293.672 129.108C293.16 129.428 292.504 129.588 291.704 129.588ZM293.84 124.5L288.464 112.5H291.392L295.568 122.604L296.432 124.5H293.84ZM308.336 124.788C307.136 124.788 306.064 124.524 305.12 123.996C304.192 123.452 303.464 122.708 302.936 121.764C302.408 120.82 302.144 119.732 302.144 118.5C302.144 117.268 302.4 116.18 302.912 115.236C303.44 114.292 304.168 113.556 305.096 113.028C306.024 112.484 307.088 112.212 308.288 112.212C309.488 112.212 310.552 112.484 311.48 113.028C312.408 113.556 313.128 114.292 313.64 115.236C314.168 116.18 314.432 117.268 314.432 118.5C314.432 119.732 314.176 120.82 313.664 121.764C313.152 122.708 312.432 123.452 311.504 123.996C310.576 124.524 309.52 124.788 308.336 124.788ZM308.336 122.316C308.992 122.316 309.576 122.156 310.088 121.836C310.6 121.5 311 121.052 311.288 120.492C311.576 119.916 311.72 119.252 311.72 118.5C311.72 117.748 311.568 117.092 311.264 116.532C310.976 115.956 310.576 115.508 310.064 115.188C309.552 114.852 308.96 114.684 308.288 114.684C307.616 114.684 307.024 114.844 306.512 115.164C306 115.484 305.6 115.932 305.312 116.508C305.024 117.084 304.88 117.748 304.88 118.5C304.88 119.252 305.024 119.916 305.312 120.492C305.616 121.052 306.024 121.5 306.536 121.836C307.064 122.156 307.664 122.316 308.336 122.316ZM324.801 124.5L324.657 122.292V112.5H327.321V124.5H324.801ZM316.497 118.644V112.5H319.185V118.644H316.497ZM319.185 118.644C319.185 119.588 319.297 120.324 319.521 120.852C319.745 121.38 320.049 121.748 320.433 121.956C320.833 122.164 321.289 122.268 321.801 122.268C322.713 122.284 323.417 121.988 323.913 121.38C324.409 120.772 324.657 119.9 324.657 118.764H325.665C325.665 120.028 325.473 121.116 325.089 122.028C324.721 122.924 324.193 123.612 323.505 124.092C322.833 124.556 322.017 124.788 321.057 124.788C320.113 124.788 319.297 124.596 318.609 124.212C317.937 123.828 317.417 123.228 317.049 122.412C316.681 121.596 316.497 120.548 316.497 119.268V118.644H319.185ZM332.084 118.116C332.084 116.82 332.332 115.756 332.828 114.924C333.324 114.092 333.964 113.476 334.748 113.076C335.548 112.66 336.38 112.452 337.244 112.452V115.02C336.508 115.02 335.812 115.124 335.156 115.332C334.516 115.524 333.996 115.844 333.596 116.292C333.196 116.74 332.996 117.332 332.996 118.068L332.084 118.116ZM330.308 124.5V112.5H332.996V124.5H330.308ZM346.016 124.5V111.228C346.016 109.964 346.328 108.996 346.952 108.324C347.592 107.636 348.552 107.292 349.832 107.292C350.248 107.292 350.688 107.364 351.152 107.508C351.632 107.636 352.088 107.812 352.52 108.036L351.536 110.028C351.232 109.884 350.96 109.78 350.72 109.716C350.496 109.652 350.296 109.62 350.12 109.62C349.64 109.62 349.28 109.78 349.04 110.1C348.816 110.404 348.704 110.908 348.704 111.612V124.5H346.016ZM343.952 114.708V112.5H351.848V114.708H343.952ZM355.803 118.116C355.803 116.82 356.051 115.756 356.547 114.924C357.043 114.092 357.683 113.476 358.467 113.076C359.267 112.66 360.099 112.452 360.963 112.452V115.02C360.227 115.02 359.531 115.124 358.875 115.332C358.235 115.524 357.715 115.844 357.315 116.292C356.915 116.74 356.715 117.332 356.715 118.068L355.803 118.116ZM354.027 124.5V112.5H356.715V124.5H354.027ZM368.098 124.788C366.93 124.788 365.89 124.524 364.978 123.996C364.082 123.452 363.37 122.708 362.842 121.764C362.33 120.82 362.074 119.732 362.074 118.5C362.074 117.268 362.338 116.18 362.866 115.236C363.394 114.292 364.114 113.556 365.026 113.028C365.954 112.484 367.01 112.212 368.194 112.212C369.266 112.212 370.234 112.492 371.098 113.052C371.962 113.596 372.642 114.388 373.138 115.428C373.65 116.468 373.906 117.708 373.906 119.148H364.474L364.834 118.812C364.834 119.548 364.994 120.188 365.314 120.732C365.634 121.26 366.058 121.668 366.586 121.956C367.114 122.244 367.698 122.388 368.338 122.388C369.074 122.388 369.682 122.228 370.162 121.908C370.642 121.572 371.018 121.14 371.29 120.612L373.666 121.62C373.33 122.26 372.898 122.82 372.37 123.3C371.858 123.78 371.242 124.148 370.522 124.404C369.818 124.66 369.01 124.788 368.098 124.788ZM365.002 117.42L364.618 117.084H371.386L371.026 117.42C371.026 116.764 370.882 116.228 370.594 115.812C370.306 115.38 369.938 115.06 369.49 114.852C369.058 114.628 368.602 114.516 368.122 114.516C367.642 114.516 367.162 114.628 366.682 114.852C366.202 115.06 365.802 115.38 365.482 115.812C365.162 116.228 365.002 116.764 365.002 117.42ZM381.317 124.788C380.149 124.788 379.109 124.524 378.197 123.996C377.301 123.452 376.589 122.708 376.061 121.764C375.549 120.82 375.293 119.732 375.293 118.5C375.293 117.268 375.557 116.18 376.085 115.236C376.613 114.292 377.333 113.556 378.245 113.028C379.173 112.484 380.229 112.212 381.413 112.212C382.485 112.212 383.453 112.492 384.317 113.052C385.181 113.596 385.861 114.388 386.357 115.428C386.869 116.468 387.125 117.708 387.125 119.148H377.693L378.053 118.812C378.053 119.548 378.213 120.188 378.533 120.732C378.853 121.26 379.277 121.668 379.805 121.956C380.333 122.244 380.917 122.388 381.557 122.388C382.293 122.388 382.901 122.228 383.381 121.908C383.861 121.572 384.237 121.14 384.509 120.612L386.885 121.62C386.549 122.26 386.117 122.82 385.589 123.3C385.077 123.78 384.461 124.148 383.741 124.404C383.037 124.66 382.229 124.788 381.317 124.788ZM378.221 117.42L377.837 117.084H384.605L384.245 117.42C384.245 116.764 384.101 116.228 383.813 115.812C383.525 115.38 383.157 115.06 382.709 114.852C382.277 114.628 381.821 114.516 381.341 114.516C380.861 114.516 380.381 114.628 379.901 114.852C379.421 115.06 379.021 115.38 378.701 115.812C378.381 116.228 378.221 116.764 378.221 117.42ZM394.972 124.5V107.7H397.66V122.268L397.516 124.5H394.972ZM401.452 124.788C400.444 124.788 399.572 124.532 398.836 124.02C398.116 123.492 397.564 122.756 397.18 121.812C396.796 120.868 396.604 119.764 396.604 118.5C396.604 117.22 396.796 116.116 397.18 115.188C397.564 114.244 398.116 113.516 398.836 113.004C399.572 112.476 400.444 112.212 401.452 112.212C402.54 112.212 403.484 112.476 404.284 113.004C405.1 113.516 405.732 114.244 406.18 115.188C406.644 116.116 406.876 117.22 406.876 118.5C406.876 119.764 406.644 120.868 406.18 121.812C405.732 122.756 405.1 123.492 404.284 124.02C403.484 124.532 402.54 124.788 401.452 124.788ZM400.78 122.34C401.42 122.34 401.988 122.18 402.484 121.86C402.98 121.524 403.372 121.068 403.66 120.492C403.964 119.916 404.116 119.252 404.116 118.5C404.116 117.748 403.972 117.084 403.684 116.508C403.412 115.932 403.028 115.484 402.532 115.164C402.036 114.844 401.46 114.684 400.804 114.684C400.196 114.684 399.652 114.844 399.172 115.164C398.692 115.484 398.316 115.932 398.044 116.508C397.788 117.084 397.66 117.748 397.66 118.5C397.66 119.252 397.788 119.916 398.044 120.492C398.316 121.068 398.684 121.524 399.148 121.86C399.628 122.18 400.172 122.34 400.78 122.34ZM414.696 124.788C413.496 124.788 412.424 124.524 411.48 123.996C410.552 123.452 409.824 122.708 409.296 121.764C408.768 120.82 408.504 119.732 408.504 118.5C408.504 117.268 408.76 116.18 409.271 115.236C409.8 114.292 410.528 113.556 411.456 113.028C412.384 112.484 413.448 112.212 414.648 112.212C415.848 112.212 416.912 112.484 417.84 113.028C418.768 113.556 419.488 114.292 420 115.236C420.528 116.18 420.792 117.268 420.792 118.5C420.792 119.732 420.536 120.82 420.023 121.764C419.512 122.708 418.792 123.452 417.864 123.996C416.936 124.524 415.88 124.788 414.696 124.788ZM414.696 122.316C415.352 122.316 415.936 122.156 416.448 121.836C416.96 121.5 417.36 121.052 417.648 120.492C417.936 119.916 418.08 119.252 418.08 118.5C418.08 117.748 417.928 117.092 417.624 116.532C417.336 115.956 416.936 115.508 416.424 115.188C415.912 114.852 415.32 114.684 414.648 114.684C413.976 114.684 413.384 114.844 412.872 115.164C412.36 115.484 411.96 115.932 411.672 116.508C411.384 117.084 411.24 117.748 411.24 118.5C411.24 119.252 411.384 119.916 411.672 120.492C411.976 121.052 412.384 121.5 412.896 121.836C413.424 122.156 414.024 122.316 414.696 122.316ZM423.121 124.5V112.5H425.641L425.809 114.708V124.5H423.121ZM431.257 124.5V118.356H433.945V124.5H431.257ZM431.257 118.356C431.257 117.396 431.145 116.66 430.921 116.148C430.713 115.62 430.409 115.252 430.009 115.044C429.625 114.836 429.169 114.732 428.641 114.732C427.745 114.716 427.049 115.012 426.553 115.62C426.057 116.228 425.809 117.1 425.809 118.236H424.801C424.801 116.972 424.985 115.892 425.353 114.996C425.721 114.084 426.249 113.396 426.937 112.932C427.625 112.452 428.441 112.212 429.385 112.212C430.345 112.212 431.161 112.404 431.833 112.788C432.521 113.172 433.041 113.772 433.393 114.588C433.761 115.388 433.945 116.436 433.945 117.732V118.356H431.257ZM444.708 124.5L444.564 122.292V112.5H447.228V124.5H444.708ZM436.404 118.644V112.5H439.092V118.644H436.404ZM439.092 118.644C439.092 119.588 439.204 120.324 439.428 120.852C439.652 121.38 439.956 121.748 440.34 121.956C440.74 122.164 441.196 122.268 441.708 122.268C442.62 122.284 443.324 121.988 443.82 121.38C444.316 120.772 444.564 119.9 444.564 118.764H445.572C445.572 120.028 445.38 121.116 444.996 122.028C444.628 122.924 444.1 123.612 443.412 124.092C442.74 124.556 441.924 124.788 440.964 124.788C440.02 124.788 439.204 124.596 438.516 124.212C437.844 123.828 437.324 123.228 436.956 122.412C436.588 121.596 436.404 120.548 436.404 119.268V118.644H439.092ZM454.583 124.788C453.783 124.788 453.047 124.668 452.375 124.428C451.703 124.188 451.127 123.852 450.647 123.42C450.167 122.972 449.799 122.452 449.543 121.86L451.871 120.828C452.111 121.276 452.463 121.652 452.927 121.956C453.407 122.26 453.935 122.412 454.511 122.412C455.135 122.412 455.631 122.308 455.999 122.1C456.383 121.876 456.575 121.572 456.575 121.188C456.575 120.82 456.431 120.54 456.143 120.348C455.855 120.14 455.447 119.972 454.919 119.844L453.791 119.532C452.655 119.244 451.767 118.788 451.127 118.164C450.487 117.524 450.167 116.796 450.167 115.98C450.167 114.78 450.551 113.852 451.319 113.196C452.103 112.54 453.223 112.212 454.679 112.212C455.415 112.212 456.087 112.324 456.695 112.548C457.319 112.756 457.855 113.06 458.303 113.46C458.751 113.844 459.063 114.3 459.239 114.828L457.007 115.836C456.847 115.436 456.543 115.132 456.095 114.924C455.647 114.7 455.151 114.588 454.607 114.588C454.063 114.588 453.639 114.708 453.335 114.948C453.031 115.172 452.879 115.492 452.879 115.908C452.879 116.148 453.015 116.372 453.287 116.58C453.559 116.772 453.951 116.932 454.463 117.06L455.879 117.396C456.663 117.588 457.303 117.892 457.799 118.308C458.295 118.708 458.663 119.164 458.903 119.676C459.143 120.172 459.263 120.676 459.263 121.188C459.263 121.908 459.055 122.54 458.639 123.084C458.239 123.628 457.687 124.052 456.983 124.356C456.279 124.644 455.479 124.788 454.583 124.788ZM79.4642 160.5V158.364C79.4642 157.868 79.5922 157.356 79.8482 156.828C80.1042 156.284 80.4642 155.74 80.9282 155.196C81.4082 154.652 81.9682 154.14 82.6082 153.66L85.5362 151.548C85.9042 151.292 86.2402 150.996 86.5442 150.66C86.8642 150.324 87.1202 149.972 87.3122 149.604C87.5042 149.22 87.6002 148.844 87.6002 148.476C87.6002 148.012 87.4802 147.588 87.2402 147.204C87.0162 146.82 86.6882 146.516 86.2562 146.292C85.8402 146.068 85.3282 145.956 84.7202 145.956C84.1762 145.956 83.6882 146.068 83.2562 146.292C82.8402 146.5 82.4962 146.78 82.2242 147.132C81.9522 147.484 81.7602 147.868 81.6482 148.284L78.7922 147.756C78.9522 146.988 79.2882 146.276 79.8002 145.62C80.3282 144.948 81.0002 144.412 81.8162 144.012C82.6482 143.612 83.5922 143.412 84.6482 143.412C85.8322 143.412 86.8562 143.628 87.7202 144.06C88.6002 144.492 89.2722 145.092 89.7362 145.86C90.2162 146.612 90.4562 147.476 90.4562 148.452C90.4562 149.444 90.1842 150.34 89.6402 151.14C89.1122 151.924 88.3682 152.676 87.4082 153.396L84.7202 155.388C84.1922 155.772 83.7602 156.188 83.4242 156.636C83.0882 157.068 82.8562 157.532 82.7282 158.028H90.6722V160.5H79.4642ZM95.206 160.836C94.742 160.836 94.342 160.676 94.006 160.356C93.686 160.02 93.526 159.62 93.526 159.156C93.526 158.692 93.686 158.292 94.006 157.956C94.342 157.62 94.742 157.452 95.206 157.452C95.67 157.452 96.07 157.62 96.406 157.956C96.742 158.292 96.91 158.692 96.91 159.156C96.91 159.62 96.742 160.02 96.406 160.356C96.07 160.676 95.67 160.836 95.206 160.836ZM115.264 160.788C113.648 160.788 112.208 160.42 110.944 159.684C109.696 158.932 108.712 157.908 107.992 156.612C107.288 155.3 106.936 153.796 106.936 152.1C106.936 150.404 107.288 148.908 107.992 147.612C108.712 146.3 109.696 145.276 110.944 144.54C112.192 143.788 113.624 143.412 115.24 143.412C116.328 143.412 117.352 143.612 118.312 144.012C119.272 144.396 120.12 144.932 120.856 145.62C121.608 146.308 122.184 147.108 122.584 148.02L120.04 149.052C119.752 148.444 119.36 147.908 118.864 147.444C118.384 146.964 117.832 146.596 117.208 146.34C116.584 146.084 115.928 145.956 115.24 145.956C114.184 145.956 113.24 146.22 112.408 146.748C111.592 147.276 110.944 148.004 110.464 148.932C110 149.844 109.768 150.9 109.768 152.1C109.768 153.3 110 154.364 110.464 155.292C110.944 156.22 111.6 156.948 112.432 157.476C113.28 158.004 114.24 158.268 115.312 158.268C116.016 158.268 116.672 158.132 117.28 157.86C117.904 157.572 118.456 157.18 118.936 156.684C119.432 156.188 119.824 155.612 120.112 154.956L122.656 155.988C122.256 156.932 121.688 157.772 120.952 158.508C120.216 159.228 119.36 159.788 118.384 160.188C117.408 160.588 116.368 160.788 115.264 160.788ZM130.352 160.788C129.152 160.788 128.08 160.524 127.136 159.996C126.208 159.452 125.48 158.708 124.952 157.764C124.424 156.82 124.16 155.732 124.16 154.5C124.16 153.268 124.416 152.18 124.928 151.236C125.456 150.292 126.184 149.556 127.112 149.028C128.04 148.484 129.104 148.212 130.304 148.212C131.504 148.212 132.568 148.484 133.496 149.028C134.424 149.556 135.144 150.292 135.656 151.236C136.184 152.18 136.448 153.268 136.448 154.5C136.448 155.732 136.192 156.82 135.68 157.764C135.168 158.708 134.448 159.452 133.52 159.996C132.592 160.524 131.536 160.788 130.352 160.788ZM130.352 158.316C131.008 158.316 131.592 158.156 132.104 157.836C132.616 157.5 133.016 157.052 133.304 156.492C133.592 155.916 133.736 155.252 133.736 154.5C133.736 153.748 133.584 153.092 133.28 152.532C132.992 151.956 132.592 151.508 132.08 151.188C131.568 150.852 130.976 150.684 130.304 150.684C129.632 150.684 129.04 150.844 128.528 151.164C128.016 151.484 127.616 151.932 127.328 152.508C127.04 153.084 126.896 153.748 126.896 154.5C126.896 155.252 127.04 155.916 127.328 156.492C127.632 157.052 128.04 157.5 128.552 157.836C129.08 158.156 129.68 158.316 130.352 158.316ZM140.553 154.116C140.553 152.82 140.801 151.756 141.297 150.924C141.793 150.092 142.433 149.476 143.217 149.076C144.017 148.66 144.849 148.452 145.713 148.452V151.02C144.977 151.02 144.281 151.124 143.625 151.332C142.985 151.524 142.465 151.844 142.065 152.292C141.665 152.74 141.465 153.332 141.465 154.068L140.553 154.116ZM138.777 160.5V148.5H141.465V160.5H138.777ZM149.272 154.116C149.272 152.82 149.52 151.756 150.016 150.924C150.512 150.092 151.152 149.476 151.936 149.076C152.736 148.66 153.568 148.452 154.432 148.452V151.02C153.696 151.02 153 151.124 152.344 151.332C151.704 151.524 151.184 151.844 150.784 152.292C150.384 152.74 150.184 153.332 150.184 154.068L149.272 154.116ZM147.496 160.5V148.5H150.184V160.5H147.496ZM161.567 160.788C160.399 160.788 159.359 160.524 158.447 159.996C157.551 159.452 156.839 158.708 156.311 157.764C155.799 156.82 155.543 155.732 155.543 154.5C155.543 153.268 155.807 152.18 156.335 151.236C156.863 150.292 157.583 149.556 158.495 149.028C159.423 148.484 160.479 148.212 161.663 148.212C162.735 148.212 163.703 148.492 164.567 149.052C165.431 149.596 166.111 150.388 166.607 151.428C167.119 152.468 167.375 153.708 167.375 155.148H157.943L158.303 154.812C158.303 155.548 158.463 156.188 158.783 156.732C159.103 157.26 159.527 157.668 160.055 157.956C160.583 158.244 161.167 158.388 161.807 158.388C162.543 158.388 163.151 158.228 163.631 157.908C164.111 157.572 164.487 157.14 164.759 156.612L167.135 157.62C166.799 158.26 166.367 158.82 165.839 159.3C165.327 159.78 164.711 160.148 163.991 160.404C163.287 160.66 162.479 160.788 161.567 160.788ZM158.471 153.42L158.087 153.084H164.855L164.495 153.42C164.495 152.764 164.351 152.228 164.063 151.812C163.775 151.38 163.407 151.06 162.959 150.852C162.527 150.628 162.071 150.516 161.591 150.516C161.111 150.516 160.631 150.628 160.151 150.852C159.671 151.06 159.271 151.38 158.951 151.812C158.631 152.228 158.471 152.764 158.471 153.42ZM175.049 160.788C173.817 160.788 172.729 160.524 171.785 159.996C170.841 159.452 170.097 158.708 169.553 157.764C169.025 156.82 168.761 155.732 168.761 154.5C168.761 153.268 169.025 152.18 169.553 151.236C170.097 150.292 170.833 149.556 171.761 149.028C172.705 148.484 173.785 148.212 175.001 148.212C176.185 148.212 177.257 148.5 178.217 149.076C179.177 149.636 179.889 150.444 180.353 151.5L177.857 152.46C177.601 151.932 177.209 151.508 176.681 151.188C176.153 150.868 175.553 150.708 174.881 150.708C174.225 150.708 173.641 150.876 173.129 151.212C172.617 151.532 172.217 151.98 171.929 152.556C171.641 153.116 171.497 153.764 171.497 154.5C171.497 155.236 171.641 155.892 171.929 156.468C172.233 157.028 172.641 157.476 173.153 157.812C173.681 158.132 174.273 158.292 174.929 158.292C175.601 158.292 176.201 158.124 176.729 157.788C177.257 157.436 177.649 156.964 177.905 156.372L180.401 157.332C179.937 158.42 179.225 159.268 178.265 159.876C177.321 160.484 176.249 160.788 175.049 160.788ZM187.264 160.788C186 160.788 185.032 160.476 184.36 159.852C183.704 159.212 183.376 158.3 183.376 157.116V144.756H186.04V156.612C186.04 157.172 186.168 157.596 186.424 157.884C186.696 158.172 187.088 158.316 187.6 158.316C187.76 158.316 187.936 158.284 188.128 158.22C188.32 158.156 188.536 158.036 188.776 157.86L189.76 159.9C189.344 160.188 188.928 160.404 188.512 160.548C188.096 160.708 187.68 160.788 187.264 160.788ZM181.384 150.804V148.5H189.28V150.804H181.384ZM191.91 160.5V143.7H194.598V160.5H191.91ZM199.478 165.588C199.094 165.588 198.662 165.516 198.182 165.372C197.718 165.228 197.27 165.044 196.838 164.82L197.846 162.636C198.15 162.78 198.43 162.892 198.686 162.972C198.942 163.068 199.15 163.116 199.31 163.116C199.694 163.116 200.014 163.012 200.27 162.804C200.542 162.612 200.758 162.324 200.918 161.94L202.334 158.628L206.39 148.5H209.318L203.75 161.772C203.414 162.54 203.07 163.212 202.718 163.788C202.382 164.364 201.958 164.804 201.446 165.108C200.934 165.428 200.278 165.588 199.478 165.588ZM201.614 160.5L196.238 148.5H199.166L203.342 158.604L204.206 160.5H201.614ZM216.827 165.3V148.5H219.347L219.515 150.708V165.3H216.827ZM223.307 160.788C222.299 160.788 221.427 160.532 220.691 160.02C219.971 159.492 219.419 158.756 219.035 157.812C218.651 156.868 218.459 155.764 218.459 154.5C218.459 153.22 218.651 152.116 219.035 151.188C219.419 150.244 219.971 149.516 220.691 149.004C221.427 148.476 222.299 148.212 223.307 148.212C224.395 148.212 225.339 148.476 226.139 149.004C226.955 149.516 227.587 150.244 228.035 151.188C228.499 152.116 228.731 153.22 228.731 154.5C228.731 155.764 228.499 156.868 228.035 157.812C227.587 158.756 226.955 159.492 226.139 160.02C225.339 160.532 224.395 160.788 223.307 160.788ZM222.635 158.34C223.275 158.34 223.843 158.18 224.339 157.86C224.835 157.524 225.227 157.068 225.515 156.492C225.819 155.916 225.971 155.252 225.971 154.5C225.971 153.748 225.827 153.084 225.539 152.508C225.267 151.932 224.883 151.484 224.387 151.164C223.891 150.844 223.315 150.684 222.659 150.684C222.051 150.684 221.507 150.844 221.027 151.164C220.547 151.484 220.171 151.932 219.899 152.508C219.643 153.084 219.515 153.748 219.515 154.5C219.515 155.252 219.643 155.916 219.899 156.492C220.171 157.068 220.539 157.524 221.003 157.86C221.483 158.18 222.027 158.34 222.635 158.34ZM232.803 154.116C232.803 152.82 233.051 151.756 233.547 150.924C234.043 150.092 234.683 149.476 235.467 149.076C236.267 148.66 237.099 148.452 237.963 148.452V151.02C237.227 151.02 236.531 151.124 235.875 151.332C235.235 151.524 234.715 151.844 234.315 152.292C233.915 152.74 233.715 153.332 233.715 154.068L232.803 154.116ZM231.027 160.5V148.5H233.715V160.5H231.027ZM245.098 160.788C243.93 160.788 242.89 160.524 241.978 159.996C241.082 159.452 240.37 158.708 239.842 157.764C239.33 156.82 239.074 155.732 239.074 154.5C239.074 153.268 239.338 152.18 239.866 151.236C240.394 150.292 241.114 149.556 242.026 149.028C242.954 148.484 244.01 148.212 245.194 148.212C246.266 148.212 247.234 148.492 248.098 149.052C248.962 149.596 249.642 150.388 250.138 151.428C250.65 152.468 250.906 153.708 250.906 155.148H241.474L241.834 154.812C241.834 155.548 241.994 156.188 242.314 156.732C242.634 157.26 243.058 157.668 243.586 157.956C244.114 158.244 244.698 158.388 245.338 158.388C246.074 158.388 246.682 158.228 247.162 157.908C247.642 157.572 248.018 157.14 248.29 156.612L250.666 157.62C250.33 158.26 249.898 158.82 249.37 159.3C248.858 159.78 248.242 160.148 247.522 160.404C246.818 160.66 246.01 160.788 245.098 160.788ZM242.002 153.42L241.618 153.084H248.386L248.026 153.42C248.026 152.764 247.882 152.228 247.594 151.812C247.306 151.38 246.938 151.06 246.49 150.852C246.058 150.628 245.602 150.516 245.122 150.516C244.642 150.516 244.162 150.628 243.682 150.852C243.202 151.06 242.802 151.38 242.482 151.812C242.162 152.228 242.002 152.764 242.002 153.42ZM261.629 160.5L261.509 158.268V143.7H264.173V160.5H261.629ZM257.717 160.788C256.629 160.788 255.677 160.532 254.861 160.02C254.061 159.492 253.429 158.756 252.965 157.812C252.517 156.868 252.293 155.764 252.293 154.5C252.293 153.22 252.517 152.116 252.965 151.188C253.429 150.244 254.061 149.516 254.861 149.004C255.677 148.476 256.629 148.212 257.717 148.212C258.725 148.212 259.589 148.476 260.309 149.004C261.045 149.516 261.605 150.244 261.989 151.188C262.373 152.116 262.565 153.22 262.565 154.5C262.565 155.764 262.373 156.868 261.989 157.812C261.605 158.756 261.045 159.492 260.309 160.02C259.589 160.532 258.725 160.788 257.717 160.788ZM258.389 158.34C258.997 158.34 259.533 158.18 259.997 157.86C260.477 157.524 260.845 157.068 261.101 156.492C261.373 155.916 261.509 155.252 261.509 154.5C261.509 153.748 261.373 153.084 261.101 152.508C260.845 151.932 260.477 151.484 259.997 151.164C259.533 150.844 258.989 150.684 258.365 150.684C257.725 150.684 257.157 150.844 256.661 151.164C256.165 151.484 255.773 151.932 255.485 152.508C255.213 153.084 255.069 153.748 255.053 154.5C255.069 155.252 255.213 155.916 255.485 156.492C255.773 157.068 256.165 157.524 256.661 157.86C257.173 158.18 257.749 158.34 258.389 158.34ZM267.312 160.5V148.5H269.976V160.5H267.312ZM268.656 146.22C268.224 146.22 267.848 146.068 267.528 145.764C267.224 145.444 267.072 145.068 267.072 144.636C267.072 144.204 267.224 143.836 267.528 143.532C267.848 143.228 268.224 143.076 268.656 143.076C269.088 143.076 269.456 143.228 269.76 143.532C270.08 143.836 270.24 144.204 270.24 144.636C270.24 145.068 270.08 145.444 269.76 145.764C269.456 146.068 269.088 146.22 268.656 146.22ZM278.76 160.788C277.528 160.788 276.44 160.524 275.496 159.996C274.552 159.452 273.808 158.708 273.264 157.764C272.736 156.82 272.472 155.732 272.472 154.5C272.472 153.268 272.736 152.18 273.264 151.236C273.808 150.292 274.544 149.556 275.472 149.028C276.416 148.484 277.496 148.212 278.712 148.212C279.896 148.212 280.968 148.5 281.928 149.076C282.888 149.636 283.6 150.444 284.064 151.5L281.568 152.46C281.312 151.932 280.92 151.508 280.392 151.188C279.864 150.868 279.264 150.708 278.592 150.708C277.936 150.708 277.352 150.876 276.84 151.212C276.328 151.532 275.928 151.98 275.64 152.556C275.352 153.116 275.208 153.764 275.208 154.5C275.208 155.236 275.352 155.892 275.64 156.468C275.944 157.028 276.352 157.476 276.864 157.812C277.392 158.132 277.984 158.292 278.64 158.292C279.312 158.292 279.912 158.124 280.44 157.788C280.968 157.436 281.36 156.964 281.616 156.372L284.112 157.332C283.648 158.42 282.936 159.268 281.976 159.876C281.032 160.484 279.96 160.788 278.76 160.788ZM290.975 160.788C289.711 160.788 288.743 160.476 288.071 159.852C287.415 159.212 287.087 158.3 287.087 157.116V144.756H289.751V156.612C289.751 157.172 289.879 157.596 290.135 157.884C290.407 158.172 290.799 158.316 291.311 158.316C291.471 158.316 291.647 158.284 291.839 158.22C292.031 158.156 292.247 158.036 292.487 157.86L293.471 159.9C293.055 160.188 292.639 160.404 292.223 160.548C291.807 160.708 291.391 160.788 290.975 160.788ZM285.095 150.804V148.5H292.991V150.804H285.095ZM305.778 160.788C304.978 160.788 304.242 160.668 303.57 160.428C302.898 160.188 302.322 159.852 301.842 159.42C301.362 158.972 300.994 158.452 300.738 157.86L303.066 156.828C303.306 157.276 303.658 157.652 304.122 157.956C304.602 158.26 305.13 158.412 305.706 158.412C306.33 158.412 306.826 158.308 307.194 158.1C307.578 157.876 307.77 157.572 307.77 157.188C307.77 156.82 307.626 156.54 307.338 156.348C307.05 156.14 306.642 155.972 306.114 155.844L304.986 155.532C303.85 155.244 302.962 154.788 302.322 154.164C301.682 153.524 301.362 152.796 301.362 151.98C301.362 150.78 301.746 149.852 302.514 149.196C303.298 148.54 304.418 148.212 305.874 148.212C306.61 148.212 307.282 148.324 307.89 148.548C308.514 148.756 309.05 149.06 309.498 149.46C309.946 149.844 310.258 150.3 310.434 150.828L308.202 151.836C308.042 151.436 307.738 151.132 307.29 150.924C306.842 150.7 306.346 150.588 305.802 150.588C305.258 150.588 304.834 150.708 304.53 150.948C304.226 151.172 304.074 151.492 304.074 151.908C304.074 152.148 304.21 152.372 304.482 152.58C304.754 152.772 305.146 152.932 305.658 153.06L307.074 153.396C307.858 153.588 308.498 153.892 308.994 154.308C309.49 154.708 309.858 155.164 310.098 155.676C310.338 156.172 310.458 156.676 310.458 157.188C310.458 157.908 310.25 158.54 309.834 159.084C309.434 159.628 308.882 160.052 308.178 160.356C307.474 160.644 306.674 160.788 305.778 160.788ZM323.702 160.5L327.71 148.5H330.422L326.342 160.5H323.702ZM315.662 160.5L319.574 148.5H321.95L318.086 160.5H315.662ZM315.422 160.5L311.342 148.5H314.054L317.966 160.5H315.422ZM323.678 160.5L319.838 148.5H322.214L326.126 160.5H323.678ZM337.184 160.788C336.016 160.788 334.976 160.524 334.064 159.996C333.168 159.452 332.456 158.708 331.928 157.764C331.416 156.82 331.16 155.732 331.16 154.5C331.16 153.268 331.424 152.18 331.952 151.236C332.48 150.292 333.2 149.556 334.112 149.028C335.04 148.484 336.096 148.212 337.28 148.212C338.352 148.212 339.32 148.492 340.184 149.052C341.048 149.596 341.728 150.388 342.224 151.428C342.736 152.468 342.992 153.708 342.992 155.148H333.56L333.92 154.812C333.92 155.548 334.08 156.188 334.4 156.732C334.72 157.26 335.144 157.668 335.672 157.956C336.2 158.244 336.784 158.388 337.424 158.388C338.16 158.388 338.768 158.228 339.248 157.908C339.728 157.572 340.104 157.14 340.376 156.612L342.752 157.62C342.416 158.26 341.984 158.82 341.456 159.3C340.944 159.78 340.328 160.148 339.608 160.404C338.904 160.66 338.096 160.788 337.184 160.788ZM334.088 153.42L333.704 153.084H340.472L340.112 153.42C340.112 152.764 339.968 152.228 339.68 151.812C339.392 151.38 339.024 151.06 338.576 150.852C338.144 150.628 337.688 150.516 337.208 150.516C336.728 150.516 336.248 150.628 335.768 150.852C335.288 151.06 334.888 151.38 334.568 151.812C334.248 152.228 334.088 152.764 334.088 153.42ZM350.403 160.788C349.235 160.788 348.195 160.524 347.283 159.996C346.387 159.452 345.675 158.708 345.146 157.764C344.635 156.82 344.379 155.732 344.379 154.5C344.379 153.268 344.643 152.18 345.171 151.236C345.699 150.292 346.419 149.556 347.331 149.028C348.259 148.484 349.315 148.212 350.499 148.212C351.571 148.212 352.539 148.492 353.403 149.052C354.267 149.596 354.947 150.388 355.443 151.428C355.955 152.468 356.211 153.708 356.211 155.148H346.779L347.139 154.812C347.139 155.548 347.299 156.188 347.619 156.732C347.939 157.26 348.363 157.668 348.891 157.956C349.419 158.244 350.003 158.388 350.643 158.388C351.379 158.388 351.987 158.228 352.467 157.908C352.947 157.572 353.323 157.14 353.595 156.612L355.971 157.62C355.635 158.26 355.203 158.82 354.675 159.3C354.163 159.78 353.547 160.148 352.827 160.404C352.123 160.66 351.315 160.788 350.403 160.788ZM347.307 153.42L346.923 153.084H353.691L353.331 153.42C353.331 152.764 353.187 152.228 352.899 151.812C352.611 151.38 352.243 151.06 351.795 150.852C351.363 150.628 350.907 150.516 350.427 150.516C349.947 150.516 349.467 150.628 348.987 150.852C348.507 151.06 348.107 151.38 347.787 151.812C347.467 152.228 347.307 152.764 347.307 153.42ZM358.389 165.3V148.5H360.909L361.077 150.708V165.3H358.389ZM364.869 160.788C363.861 160.788 362.989 160.532 362.253 160.02C361.533 159.492 360.981 158.756 360.597 157.812C360.213 156.868 360.021 155.764 360.021 154.5C360.021 153.22 360.213 152.116 360.597 151.188C360.981 150.244 361.533 149.516 362.253 149.004C362.989 148.476 363.861 148.212 364.869 148.212C365.957 148.212 366.901 148.476 367.701 149.004C368.517 149.516 369.149 150.244 369.597 151.188C370.061 152.116 370.293 153.22 370.293 154.5C370.293 155.764 370.061 156.868 369.597 157.812C369.149 158.756 368.517 159.492 367.701 160.02C366.901 160.532 365.957 160.788 364.869 160.788ZM364.197 158.34C364.837 158.34 365.405 158.18 365.901 157.86C366.397 157.524 366.789 157.068 367.077 156.492C367.381 155.916 367.533 155.252 367.533 154.5C367.533 153.748 367.389 153.084 367.101 152.508C366.829 151.932 366.445 151.484 365.949 151.164C365.453 150.844 364.877 150.684 364.221 150.684C363.613 150.684 363.069 150.844 362.589 151.164C362.109 151.484 361.733 151.932 361.461 152.508C361.205 153.084 361.077 153.748 361.077 154.5C361.077 155.252 361.205 155.916 361.461 156.492C361.733 157.068 362.101 157.524 362.565 157.86C363.045 158.18 363.589 158.34 364.197 158.34ZM376.958 160.788C376.158 160.788 375.422 160.668 374.75 160.428C374.078 160.188 373.502 159.852 373.022 159.42C372.542 158.972 372.174 158.452 371.918 157.86L374.246 156.828C374.486 157.276 374.838 157.652 375.302 157.956C375.782 158.26 376.31 158.412 376.886 158.412C377.51 158.412 378.006 158.308 378.374 158.1C378.758 157.876 378.95 157.572 378.95 157.188C378.95 156.82 378.806 156.54 378.518 156.348C378.23 156.14 377.822 155.972 377.294 155.844L376.166 155.532C375.03 155.244 374.142 154.788 373.502 154.164C372.862 153.524 372.542 152.796 372.542 151.98C372.542 150.78 372.926 149.852 373.694 149.196C374.478 148.54 375.598 148.212 377.054 148.212C377.79 148.212 378.462 148.324 379.07 148.548C379.694 148.756 380.23 149.06 380.678 149.46C381.126 149.844 381.438 150.3 381.614 150.828L379.382 151.836C379.222 151.436 378.918 151.132 378.47 150.924C378.022 150.7 377.526 150.588 376.982 150.588C376.438 150.588 376.014 150.708 375.71 150.948C375.406 151.172 375.254 151.492 375.254 151.908C375.254 152.148 375.39 152.372 375.662 152.58C375.934 152.772 376.326 152.932 376.838 153.06L378.254 153.396C379.038 153.588 379.678 153.892 380.174 154.308C380.67 154.708 381.038 155.164 381.278 155.676C381.518 156.172 381.638 156.676 381.638 157.188C381.638 157.908 381.43 158.54 381.014 159.084C380.614 159.628 380.062 160.052 379.358 160.356C378.654 160.644 377.854 160.788 376.958 160.788ZM389.558 160.5V148.5H392.078L392.198 150.108C392.566 149.484 393.038 149.012 393.614 148.692C394.19 148.372 394.846 148.212 395.582 148.212C396.542 148.212 397.358 148.428 398.03 148.86C398.702 149.292 399.19 149.948 399.494 150.828C399.846 149.98 400.342 149.332 400.982 148.884C401.622 148.436 402.374 148.212 403.238 148.212C404.63 148.212 405.702 148.66 406.454 149.556C407.206 150.436 407.574 151.796 407.558 153.636V160.5H404.894V154.356C404.894 153.396 404.79 152.66 404.582 152.148C404.374 151.62 404.094 151.252 403.742 151.044C403.39 150.836 402.982 150.732 402.518 150.732C401.686 150.716 401.038 151.012 400.574 151.62C400.126 152.228 399.902 153.1 399.902 154.236V160.5H397.214V154.356C397.214 153.396 397.11 152.66 396.902 152.148C396.71 151.62 396.438 151.252 396.086 151.044C395.734 150.836 395.326 150.732 394.862 150.732C394.03 150.716 393.382 151.012 392.918 151.62C392.47 152.228 392.246 153.1 392.246 154.236V160.5H389.558ZM417.621 160.5L417.501 158.244V154.332C417.501 153.516 417.413 152.836 417.237 152.292C417.077 151.732 416.805 151.308 416.421 151.02C416.053 150.716 415.557 150.564 414.933 150.564C414.357 150.564 413.853 150.684 413.421 150.924C412.989 151.164 412.621 151.54 412.317 152.052L409.965 151.188C410.221 150.66 410.557 150.172 410.973 149.724C411.405 149.26 411.941 148.892 412.581 148.62C413.237 148.348 414.021 148.212 414.933 148.212C416.101 148.212 417.077 148.444 417.861 148.908C418.645 149.356 419.221 150.004 419.589 150.852C419.973 151.7 420.165 152.724 420.165 153.924L420.093 160.5H417.621ZM414.165 160.788C412.725 160.788 411.605 160.468 410.805 159.828C410.021 159.188 409.629 158.284 409.629 157.116C409.629 155.868 410.045 154.916 410.877 154.26C411.725 153.604 412.901 153.276 414.405 153.276H417.621V155.34H415.269C414.197 155.34 413.445 155.492 413.013 155.796C412.581 156.084 412.365 156.5 412.365 157.044C412.365 157.508 412.549 157.876 412.917 158.148C413.301 158.404 413.829 158.532 414.501 158.532C415.109 158.532 415.637 158.396 416.085 158.124C416.533 157.852 416.877 157.492 417.117 157.044C417.373 156.596 417.501 156.092 417.501 155.532H418.293C418.293 157.164 417.965 158.452 417.309 159.396C416.653 160.324 415.605 160.788 414.165 160.788ZM424.662 154.116C424.662 152.82 424.91 151.756 425.406 150.924C425.902 150.092 426.542 149.476 427.326 149.076C428.126 148.66 428.958 148.452 429.822 148.452V151.02C429.086 151.02 428.39 151.124 427.734 151.332C427.094 151.524 426.574 151.844 426.174 152.292C425.774 152.74 425.574 153.332 425.574 154.068L424.662 154.116ZM422.886 160.5V148.5H425.574V160.5H422.886ZM434.173 157.14L432.541 155.292L438.781 148.5H442.021L434.173 157.14ZM431.605 160.5V143.7H434.293V160.5H431.605ZM439.237 160.5L435.013 154.284L436.765 152.412L442.429 160.5H439.237ZM448.887 160.788C447.719 160.788 446.679 160.524 445.767 159.996C444.871 159.452 444.159 158.708 443.631 157.764C443.119 156.82 442.863 155.732 442.863 154.5C442.863 153.268 443.127 152.18 443.655 151.236C444.183 150.292 444.903 149.556 445.815 149.028C446.743 148.484 447.799 148.212 448.983 148.212C450.055 148.212 451.023 148.492 451.887 149.052C452.751 149.596 453.431 150.388 453.927 151.428C454.439 152.468 454.695 153.708 454.695 155.148H445.263L445.623 154.812C445.623 155.548 445.783 156.188 446.103 156.732C446.423 157.26 446.847 157.668 447.375 157.956C447.903 158.244 448.487 158.388 449.127 158.388C449.863 158.388 450.471 158.228 450.951 157.908C451.431 157.572 451.807 157.14 452.079 156.612L454.455 157.62C454.119 158.26 453.687 158.82 453.159 159.3C452.647 159.78 452.031 160.148 451.311 160.404C450.607 160.66 449.799 160.788 448.887 160.788ZM445.791 153.42L445.407 153.084H452.175L451.815 153.42C451.815 152.764 451.671 152.228 451.383 151.812C451.095 151.38 450.727 151.06 450.279 150.852C449.847 150.628 449.391 150.516 448.911 150.516C448.431 150.516 447.951 150.628 447.471 150.852C446.991 151.06 446.591 151.38 446.271 151.812C445.951 152.228 445.791 152.764 445.791 153.42ZM461.53 160.788C460.266 160.788 459.298 160.476 458.626 159.852C457.97 159.212 457.642 158.3 457.642 157.116V144.756H460.306V156.612C460.306 157.172 460.434 157.596 460.69 157.884C460.962 158.172 461.354 158.316 461.866 158.316C462.026 158.316 462.202 158.284 462.394 158.22C462.586 158.156 462.802 158.036 463.042 157.86L464.026 159.9C463.61 160.188 463.194 160.404 462.778 160.548C462.362 160.708 461.946 160.788 461.53 160.788ZM455.65 150.804V148.5H463.546V150.804H455.65ZM470.544 160.788C469.744 160.788 469.008 160.668 468.336 160.428C467.664 160.188 467.088 159.852 466.608 159.42C466.128 158.972 465.76 158.452 465.504 157.86L467.832 156.828C468.072 157.276 468.424 157.652 468.888 157.956C469.368 158.26 469.896 158.412 470.472 158.412C471.096 158.412 471.592 158.308 471.96 158.1C472.344 157.876 472.536 157.572 472.536 157.188C472.536 156.82 472.392 156.54 472.104 156.348C471.816 156.14 471.408 155.972 470.88 155.844L469.752 155.532C468.616 155.244 467.728 154.788 467.088 154.164C466.448 153.524 466.128 152.796 466.128 151.98C466.128 150.78 466.512 149.852 467.28 149.196C468.064 148.54 469.184 148.212 470.64 148.212C471.376 148.212 472.048 148.324 472.656 148.548C473.28 148.756 473.816 149.06 474.264 149.46C474.712 149.844 475.024 150.3 475.2 150.828L472.968 151.836C472.808 151.436 472.504 151.132 472.056 150.924C471.608 150.7 471.112 150.588 470.568 150.588C470.024 150.588 469.6 150.708 469.296 150.948C468.992 151.172 468.84 151.492 468.84 151.908C468.84 152.148 468.976 152.372 469.248 152.58C469.52 152.772 469.912 152.932 470.424 153.06L471.84 153.396C472.624 153.588 473.264 153.892 473.76 154.308C474.256 154.708 474.624 155.164 474.864 155.676C475.104 156.172 475.224 156.676 475.224 157.188C475.224 157.908 475.016 158.54 474.6 159.084C474.2 159.628 473.648 160.052 472.944 160.356C472.24 160.644 471.44 160.788 470.544 160.788ZM84.8162 196.788C83.9042 196.788 83.0722 196.652 82.3202 196.38C81.5682 196.108 80.9362 195.724 80.4242 195.228C79.9122 194.732 79.5442 194.172 79.3202 193.548L81.8162 192.612C81.9442 192.836 82.1202 193.084 82.3442 193.356C82.5682 193.628 82.8642 193.868 83.2322 194.076C83.6002 194.268 84.0722 194.364 84.6482 194.364C85.5602 194.364 86.2802 194.108 86.8082 193.596C87.3522 193.068 87.6242 192.404 87.6242 191.604C87.6242 191.028 87.4722 190.532 87.1682 190.116C86.8802 189.7 86.4242 189.38 85.8002 189.156C85.1922 188.932 84.4242 188.82 83.4962 188.82H82.7282V186.852H83.4242C84.4002 186.852 85.3042 186.964 86.1362 187.188C86.9842 187.412 87.7282 187.748 88.3682 188.196C89.0242 188.628 89.5282 189.156 89.8802 189.78C90.2482 190.404 90.4322 191.108 90.4322 191.892C90.4322 192.9 90.1682 193.772 89.6402 194.508C89.1282 195.244 88.4482 195.812 87.6002 196.212C86.7522 196.596 85.8242 196.788 84.8162 196.788ZM82.7282 188.388V186.516H83.4962C84.7282 186.516 85.6642 186.308 86.3042 185.892C86.9442 185.476 87.2642 184.892 87.2642 184.14C87.2642 183.708 87.1522 183.324 86.9282 182.988C86.7202 182.636 86.4162 182.356 86.0162 182.148C85.6162 181.94 85.1442 181.836 84.6002 181.836C84.2482 181.836 83.9042 181.892 83.5682 182.004C83.2322 182.116 82.9202 182.292 82.6322 182.532C82.3442 182.772 82.1042 183.084 81.9122 183.468L79.4882 182.58C79.7282 181.908 80.1122 181.34 80.6402 180.876C81.1682 180.396 81.7842 180.036 82.4882 179.796C83.1922 179.54 83.9282 179.412 84.6962 179.412C85.7202 179.412 86.6322 179.604 87.4322 179.988C88.2482 180.372 88.8882 180.908 89.3522 181.596C89.8322 182.268 90.0722 183.044 90.0722 183.924C90.0722 184.66 89.8882 185.308 89.5202 185.868C89.1682 186.428 88.6802 186.9 88.0562 187.284C87.4322 187.652 86.7202 187.932 85.9202 188.124C85.1362 188.3 84.2962 188.388 83.4002 188.388H82.7282ZM95.206 196.836C94.742 196.836 94.342 196.676 94.006 196.356C93.686 196.02 93.526 195.62 93.526 195.156C93.526 194.692 93.686 194.292 94.006 193.956C94.342 193.62 94.742 193.452 95.206 193.452C95.67 193.452 96.07 193.62 96.406 193.956C96.742 194.292 96.91 194.692 96.91 195.156C96.91 195.62 96.742 196.02 96.406 196.356C96.07 196.676 95.67 196.836 95.206 196.836ZM121.408 196.5L126.352 179.7H129.184L124.096 196.5H121.408ZM111.232 196.5L106.216 179.7H109.024L113.944 196.5H111.232ZM111.592 196.5L116.32 179.7H118.888L114.184 196.5H111.592ZM121.144 196.5L116.512 179.7H119.08L123.856 196.5H121.144ZM131.047 196.5V184.5H133.711V196.5H131.047ZM132.391 182.22C131.959 182.22 131.583 182.068 131.263 181.764C130.959 181.444 130.807 181.068 130.807 180.636C130.807 180.204 130.959 179.836 131.263 179.532C131.583 179.228 131.959 179.076 132.391 179.076C132.823 179.076 133.191 179.228 133.495 179.532C133.815 179.836 133.975 180.204 133.975 180.636C133.975 181.068 133.815 181.444 133.495 181.764C133.191 182.068 132.823 182.22 132.391 182.22ZM141.655 196.788C140.391 196.788 139.423 196.476 138.751 195.852C138.095 195.212 137.767 194.3 137.767 193.116V180.756H140.431V192.612C140.431 193.172 140.559 193.596 140.815 193.884C141.087 194.172 141.479 194.316 141.991 194.316C142.151 194.316 142.327 194.284 142.519 194.22C142.711 194.156 142.927 194.036 143.167 193.86L144.151 195.9C143.735 196.188 143.319 196.404 142.903 196.548C142.487 196.708 142.071 196.788 141.655 196.788ZM135.775 186.804V184.5H143.671V186.804H135.775ZM146.325 196.5V179.7H149.013V196.5H146.325ZM154.461 196.5V190.356H157.148V196.5H154.461ZM154.461 190.356C154.461 189.396 154.349 188.66 154.125 188.148C153.901 187.62 153.589 187.252 153.189 187.044C152.805 186.836 152.357 186.732 151.845 186.732C150.933 186.716 150.229 187.012 149.733 187.62C149.253 188.228 149.013 189.1 149.013 190.236H147.98C147.98 188.972 148.164 187.892 148.533 186.996C148.917 186.084 149.453 185.396 150.141 184.932C150.829 184.452 151.645 184.212 152.589 184.212C153.533 184.212 154.349 184.404 155.037 184.788C155.725 185.172 156.245 185.772 156.597 186.588C156.965 187.388 157.148 188.436 157.148 189.732V190.356H154.461ZM168.535 196.5L168.415 194.268V179.7H171.079V196.5H168.535ZM164.623 196.788C163.535 196.788 162.583 196.532 161.767 196.02C160.967 195.492 160.335 194.756 159.871 193.812C159.423 192.868 159.199 191.764 159.199 190.5C159.199 189.22 159.423 188.116 159.871 187.188C160.335 186.244 160.967 185.516 161.767 185.004C162.583 184.476 163.535 184.212 164.623 184.212C165.631 184.212 166.495 184.476 167.215 185.004C167.951 185.516 168.511 186.244 168.895 187.188C169.279 188.116 169.471 189.22 169.471 190.5C169.471 191.764 169.279 192.868 168.895 193.812C168.511 194.756 167.951 195.492 167.215 196.02C166.495 196.532 165.631 196.788 164.623 196.788ZM165.295 194.34C165.903 194.34 166.439 194.18 166.903 193.86C167.383 193.524 167.751 193.068 168.007 192.492C168.279 191.916 168.415 191.252 168.415 190.5C168.415 189.748 168.279 189.084 168.007 188.508C167.751 187.932 167.383 187.484 166.903 187.164C166.439 186.844 165.895 186.684 165.271 186.684C164.631 186.684 164.063 186.844 163.567 187.164C163.071 187.484 162.679 187.932 162.391 188.508C162.119 189.084 161.975 189.748 161.959 190.5C161.975 191.252 162.119 191.916 162.391 192.492C162.679 193.068 163.071 193.524 163.567 193.86C164.079 194.18 164.655 194.34 165.295 194.34ZM175.827 190.116C175.827 188.82 176.075 187.756 176.571 186.924C177.067 186.092 177.707 185.476 178.491 185.076C179.291 184.66 180.123 184.452 180.987 184.452V187.02C180.251 187.02 179.555 187.124 178.898 187.332C178.259 187.524 177.739 187.844 177.339 188.292C176.939 188.74 176.739 189.332 176.739 190.068L175.827 190.116ZM174.051 196.5V184.5H176.739V196.5H174.051ZM190.089 196.5L189.969 194.244V190.332C189.969 189.516 189.881 188.836 189.705 188.292C189.545 187.732 189.273 187.308 188.889 187.02C188.521 186.716 188.025 186.564 187.401 186.564C186.825 186.564 186.321 186.684 185.889 186.924C185.457 187.164 185.089 187.54 184.785 188.052L182.433 187.188C182.689 186.66 183.025 186.172 183.441 185.724C183.873 185.26 184.409 184.892 185.049 184.62C185.705 184.348 186.489 184.212 187.401 184.212C188.569 184.212 189.545 184.444 190.329 184.908C191.113 185.356 191.689 186.004 192.057 186.852C192.441 187.7 192.633 188.724 192.633 189.924L192.561 196.5H190.089ZM186.633 196.788C185.193 196.788 184.073 196.468 183.273 195.828C182.489 195.188 182.097 194.284 182.097 193.116C182.097 191.868 182.513 190.916 183.345 190.26C184.193 189.604 185.369 189.276 186.873 189.276H190.089V191.34H187.737C186.665 191.34 185.913 191.492 185.481 191.796C185.049 192.084 184.833 192.5 184.833 193.044C184.833 193.508 185.017 193.876 185.385 194.148C185.769 194.404 186.297 194.532 186.969 194.532C187.577 194.532 188.105 194.396 188.553 194.124C189.001 193.852 189.345 193.492 189.585 193.044C189.841 192.596 189.969 192.092 189.969 191.532H190.761C190.761 193.164 190.433 194.452 189.777 195.396C189.121 196.324 188.073 196.788 186.633 196.788ZM206.186 196.5L210.194 184.5H212.906L208.826 196.5H206.186ZM198.146 196.5L202.058 184.5H204.434L200.57 196.5H198.146ZM197.906 196.5L193.826 184.5H196.538L200.45 196.5H197.906ZM206.162 196.5L202.322 184.5H204.698L208.61 196.5H206.162ZM226.457 196.788C225.577 196.788 224.769 196.684 224.033 196.476C223.313 196.268 222.673 195.98 222.113 195.612C221.569 195.244 221.113 194.836 220.745 194.388C220.393 193.924 220.145 193.444 220.001 192.948L222.737 192.108C222.945 192.7 223.353 193.22 223.961 193.668C224.569 194.116 225.321 194.348 226.217 194.364C227.257 194.364 228.081 194.148 228.689 193.716C229.297 193.284 229.601 192.716 229.601 192.012C229.601 191.372 229.345 190.852 228.833 190.452C228.321 190.036 227.633 189.716 226.769 189.492L224.705 188.964C223.921 188.756 223.209 188.452 222.569 188.052C221.945 187.652 221.449 187.148 221.081 186.54C220.729 185.932 220.553 185.212 220.553 184.38C220.553 182.812 221.065 181.596 222.089 180.732C223.113 179.852 224.577 179.412 226.481 179.412C227.553 179.412 228.489 179.58 229.289 179.916C230.105 180.236 230.777 180.684 231.305 181.26C231.833 181.82 232.225 182.46 232.481 183.18L229.793 184.044C229.553 183.404 229.137 182.876 228.545 182.46C227.953 182.044 227.217 181.836 226.337 181.836C225.425 181.836 224.705 182.052 224.177 182.484C223.665 182.916 223.409 183.516 223.409 184.284C223.409 184.908 223.609 185.396 224.009 185.748C224.425 186.084 224.985 186.34 225.689 186.516L227.753 187.02C229.257 187.388 230.425 188.02 231.257 188.916C232.089 189.812 232.505 190.804 232.505 191.892C232.505 192.852 232.273 193.7 231.809 194.436C231.345 195.172 230.657 195.748 229.745 196.164C228.849 196.58 227.753 196.788 226.457 196.788ZM246.194 196.5L250.202 184.5H252.914L248.834 196.5H246.194ZM238.154 196.5L242.066 184.5H244.442L240.578 196.5H238.154ZM237.914 196.5L233.834 184.5H236.546L240.458 196.5H237.914ZM246.17 196.5L242.33 184.5H244.706L248.618 196.5H246.17ZM259.676 196.788C258.508 196.788 257.468 196.524 256.556 195.996C255.66 195.452 254.948 194.708 254.42 193.764C253.908 192.82 253.652 191.732 253.652 190.5C253.652 189.268 253.916 188.18 254.444 187.236C254.972 186.292 255.692 185.556 256.604 185.028C257.532 184.484 258.588 184.212 259.772 184.212C260.844 184.212 261.812 184.492 262.676 185.052C263.54 185.596 264.22 186.388 264.716 187.428C265.228 188.468 265.484 189.708 265.484 191.148H256.052L256.412 190.812C256.412 191.548 256.572 192.188 256.892 192.732C257.212 193.26 257.636 193.668 258.164 193.956C258.692 194.244 259.276 194.388 259.916 194.388C260.652 194.388 261.26 194.228 261.74 193.908C262.22 193.572 262.596 193.14 262.868 192.612L265.244 193.62C264.908 194.26 264.476 194.82 263.948 195.3C263.436 195.78 262.82 196.148 262.1 196.404C261.396 196.66 260.588 196.788 259.676 196.788ZM256.58 189.42L256.196 189.084H262.964L262.604 189.42C262.604 188.764 262.46 188.228 262.172 187.812C261.884 187.38 261.516 187.06 261.068 186.852C260.636 186.628 260.18 186.516 259.7 186.516C259.22 186.516 258.74 186.628 258.26 186.852C257.78 187.06 257.38 187.38 257.06 187.812C256.74 188.228 256.58 188.764 256.58 189.42ZM272.895 196.788C271.727 196.788 270.687 196.524 269.775 195.996C268.879 195.452 268.167 194.708 267.639 193.764C267.127 192.82 266.871 191.732 266.871 190.5C266.871 189.268 267.135 188.18 267.663 187.236C268.191 186.292 268.911 185.556 269.823 185.028C270.751 184.484 271.807 184.212 272.991 184.212C274.063 184.212 275.031 184.492 275.895 185.052C276.759 185.596 277.439 186.388 277.935 187.428C278.447 188.468 278.703 189.708 278.703 191.148H269.271L269.631 190.812C269.631 191.548 269.791 192.188 270.111 192.732C270.431 193.26 270.855 193.668 271.383 193.956C271.911 194.244 272.495 194.388 273.135 194.388C273.871 194.388 274.479 194.228 274.959 193.908C275.439 193.572 275.815 193.14 276.087 192.612L278.463 193.62C278.127 194.26 277.695 194.82 277.167 195.3C276.655 195.78 276.039 196.148 275.319 196.404C274.615 196.66 273.807 196.788 272.895 196.788ZM269.799 189.42L269.415 189.084H276.183L275.823 189.42C275.823 188.764 275.679 188.228 275.391 187.812C275.103 187.38 274.735 187.06 274.287 186.852C273.855 186.628 273.399 186.516 272.919 186.516C272.439 186.516 271.959 186.628 271.479 186.852C270.999 187.06 270.599 187.38 270.279 187.812C269.959 188.228 269.799 188.764 269.799 189.42ZM280.881 201.3V184.5H283.401L283.569 186.708V201.3H280.881ZM287.361 196.788C286.353 196.788 285.481 196.532 284.745 196.02C284.025 195.492 283.473 194.756 283.089 193.812C282.705 192.868 282.513 191.764 282.513 190.5C282.513 189.22 282.705 188.116 283.089 187.188C283.473 186.244 284.025 185.516 284.745 185.004C285.481 184.476 286.353 184.212 287.361 184.212C288.449 184.212 289.393 184.476 290.193 185.004C291.009 185.516 291.641 186.244 292.089 187.188C292.553 188.116 292.785 189.22 292.785 190.5C292.785 191.764 292.553 192.868 292.089 193.812C291.641 194.756 291.009 195.492 290.193 196.02C289.393 196.532 288.449 196.788 287.361 196.788ZM286.689 194.34C287.329 194.34 287.897 194.18 288.393 193.86C288.889 193.524 289.281 193.068 289.569 192.492C289.873 191.916 290.025 191.252 290.025 190.5C290.025 189.748 289.881 189.084 289.593 188.508C289.321 187.932 288.937 187.484 288.441 187.164C287.945 186.844 287.369 186.684 286.713 186.684C286.105 186.684 285.561 186.844 285.081 187.164C284.601 187.484 284.225 187.932 283.953 188.508C283.697 189.084 283.569 189.748 283.569 190.5C283.569 191.252 283.697 191.916 283.953 192.492C284.225 193.068 284.593 193.524 285.057 193.86C285.537 194.18 286.081 194.34 286.689 194.34ZM300.698 196.788C299.466 196.788 298.378 196.524 297.434 195.996C296.49 195.452 295.746 194.708 295.202 193.764C294.674 192.82 294.41 191.732 294.41 190.5C294.41 189.268 294.674 188.18 295.202 187.236C295.746 186.292 296.482 185.556 297.41 185.028C298.354 184.484 299.434 184.212 300.65 184.212C301.834 184.212 302.906 184.5 303.866 185.076C304.826 185.636 305.538 186.444 306.002 187.5L303.506 188.46C303.25 187.932 302.858 187.508 302.33 187.188C301.802 186.868 301.202 186.708 300.53 186.708C299.874 186.708 299.29 186.876 298.778 187.212C298.266 187.532 297.866 187.98 297.578 188.556C297.29 189.116 297.146 189.764 297.146 190.5C297.146 191.236 297.29 191.892 297.578 192.468C297.882 193.028 298.29 193.476 298.802 193.812C299.33 194.132 299.922 194.292 300.578 194.292C301.25 194.292 301.85 194.124 302.378 193.788C302.906 193.436 303.298 192.964 303.554 192.372L306.05 193.332C305.586 194.42 304.874 195.268 303.914 195.876C302.97 196.484 301.898 196.788 300.698 196.788ZM315.456 196.5L315.336 194.244V190.332C315.336 189.516 315.248 188.836 315.072 188.292C314.912 187.732 314.64 187.308 314.256 187.02C313.888 186.716 313.392 186.564 312.768 186.564C312.192 186.564 311.688 186.684 311.256 186.924C310.824 187.164 310.456 187.54 310.152 188.052L307.8 187.188C308.056 186.66 308.392 186.172 308.808 185.724C309.24 185.26 309.776 184.892 310.416 184.62C311.072 184.348 311.856 184.212 312.768 184.212C313.936 184.212 314.912 184.444 315.696 184.908C316.48 185.356 317.056 186.004 317.424 186.852C317.808 187.7 318 188.724 318 189.924L317.928 196.5H315.456ZM312 196.788C310.56 196.788 309.44 196.468 308.64 195.828C307.856 195.188 307.464 194.284 307.464 193.116C307.464 191.868 307.88 190.916 308.712 190.26C309.56 189.604 310.736 189.276 312.24 189.276H315.456V191.34H313.104C312.032 191.34 311.28 191.492 310.848 191.796C310.416 192.084 310.2 192.5 310.2 193.044C310.2 193.508 310.384 193.876 310.752 194.148C311.136 194.404 311.664 194.532 312.336 194.532C312.944 194.532 313.472 194.396 313.92 194.124C314.368 193.852 314.712 193.492 314.952 193.044C315.208 192.596 315.336 192.092 315.336 191.532H316.128C316.128 193.164 315.8 194.452 315.144 195.396C314.488 196.324 313.44 196.788 312 196.788ZM325.09 196.788C324.29 196.788 323.554 196.668 322.882 196.428C322.21 196.188 321.634 195.852 321.154 195.42C320.674 194.972 320.306 194.452 320.05 193.86L322.378 192.828C322.618 193.276 322.97 193.652 323.434 193.956C323.914 194.26 324.442 194.412 325.018 194.412C325.642 194.412 326.138 194.308 326.506 194.1C326.89 193.876 327.082 193.572 327.082 193.188C327.082 192.82 326.938 192.54 326.65 192.348C326.362 192.14 325.954 191.972 325.426 191.844L324.298 191.532C323.162 191.244 322.274 190.788 321.634 190.164C320.994 189.524 320.674 188.796 320.674 187.98C320.674 186.78 321.058 185.852 321.826 185.196C322.61 184.54 323.73 184.212 325.186 184.212C325.922 184.212 326.594 184.324 327.202 184.548C327.826 184.756 328.362 185.06 328.81 185.46C329.258 185.844 329.57 186.3 329.746 186.828L327.514 187.836C327.354 187.436 327.05 187.132 326.602 186.924C326.154 186.7 325.658 186.588 325.114 186.588C324.57 186.588 324.146 186.708 323.842 186.948C323.538 187.172 323.386 187.492 323.386 187.908C323.386 188.148 323.522 188.372 323.794 188.58C324.066 188.772 324.458 188.932 324.97 189.06L326.386 189.396C327.17 189.588 327.81 189.892 328.306 190.308C328.802 190.708 329.17 191.164 329.41 191.676C329.65 192.172 329.77 192.676 329.77 193.188C329.77 193.908 329.562 194.54 329.146 195.084C328.746 195.628 328.194 196.052 327.49 196.356C326.786 196.644 325.986 196.788 325.09 196.788ZM331.926 196.5V179.7H334.614V196.5H331.926ZM340.062 196.5V190.356H342.75V196.5H340.062ZM340.062 190.356C340.062 189.396 339.95 188.66 339.726 188.148C339.502 187.62 339.19 187.252 338.79 187.044C338.406 186.836 337.958 186.732 337.446 186.732C336.534 186.716 335.83 187.012 335.334 187.62C334.854 188.228 334.614 189.1 334.614 190.236H333.582C333.582 188.972 333.766 187.892 334.134 186.996C334.518 186.084 335.054 185.396 335.742 184.932C336.43 184.452 337.246 184.212 338.19 184.212C339.134 184.212 339.95 184.404 340.638 184.788C341.326 185.172 341.846 185.772 342.198 186.588C342.566 187.388 342.75 188.436 342.75 189.732V190.356H340.062ZM362.373 196.5L366.381 184.5H369.093L365.013 196.5H362.373ZM354.333 196.5L358.245 184.5H360.621L356.757 196.5H354.333ZM354.093 196.5L350.013 184.5H352.725L356.637 196.5H354.093ZM362.349 196.5L358.509 184.5H360.885L364.797 196.5H362.349ZM371 196.5V184.5H373.664V196.5H371ZM372.344 182.22C371.912 182.22 371.536 182.068 371.216 181.764C370.912 181.444 370.76 181.068 370.76 180.636C370.76 180.204 370.912 179.836 371.216 179.532C371.536 179.228 371.912 179.076 372.344 179.076C372.776 179.076 373.144 179.228 373.448 179.532C373.768 179.836 373.928 180.204 373.928 180.636C373.928 181.068 373.768 181.444 373.448 181.764C373.144 182.068 372.776 182.22 372.344 182.22ZM376.832 196.5V184.5H379.352L379.52 186.708V196.5H376.832ZM384.968 196.5V190.356H387.656V196.5H384.968ZM384.968 190.356C384.968 189.396 384.856 188.66 384.632 188.148C384.424 187.62 384.12 187.252 383.72 187.044C383.336 186.836 382.88 186.732 382.352 186.732C381.456 186.716 380.76 187.012 380.264 187.62C379.768 188.228 379.52 189.1 379.52 190.236H378.512C378.512 188.972 378.696 187.892 379.064 186.996C379.432 186.084 379.96 185.396 380.648 184.932C381.336 184.452 382.152 184.212 383.096 184.212C384.056 184.212 384.872 184.404 385.544 184.788C386.232 185.172 386.752 185.772 387.104 186.588C387.472 187.388 387.656 188.436 387.656 189.732V190.356H384.968ZM390.379 196.5V184.5H392.899L393.067 186.708V196.5H390.379ZM398.515 196.5V190.356H401.203V196.5H398.515ZM398.515 190.356C398.515 189.396 398.403 188.66 398.179 188.148C397.971 187.62 397.667 187.252 397.267 187.044C396.883 186.836 396.427 186.732 395.899 186.732C395.003 186.716 394.307 187.012 393.811 187.62C393.315 188.228 393.067 189.1 393.067 190.236H392.059C392.059 188.972 392.243 187.892 392.611 186.996C392.979 186.084 393.507 185.396 394.195 184.932C394.883 184.452 395.699 184.212 396.643 184.212C397.603 184.212 398.419 184.404 399.091 184.788C399.779 185.172 400.299 185.772 400.651 186.588C401.019 187.388 401.203 188.436 401.203 189.732V190.356H398.515ZM404.094 196.5V184.5H406.758V196.5H404.094ZM405.438 182.22C405.006 182.22 404.63 182.068 404.31 181.764C404.006 181.444 403.854 181.068 403.854 180.636C403.854 180.204 404.006 179.836 404.31 179.532C404.63 179.228 405.006 179.076 405.438 179.076C405.87 179.076 406.238 179.228 406.542 179.532C406.862 179.836 407.022 180.204 407.022 180.636C407.022 181.068 406.862 181.444 406.542 181.764C406.238 182.068 405.87 182.22 405.438 182.22ZM409.926 196.5V184.5H412.446L412.614 186.708V196.5H409.926ZM418.062 196.5V190.356H420.75V196.5H418.062ZM418.062 190.356C418.062 189.396 417.95 188.66 417.726 188.148C417.518 187.62 417.214 187.252 416.814 187.044C416.43 186.836 415.974 186.732 415.446 186.732C414.55 186.716 413.854 187.012 413.358 187.62C412.862 188.228 412.614 189.1 412.614 190.236H411.605C411.605 188.972 411.789 187.892 412.158 186.996C412.526 186.084 413.054 185.396 413.742 184.932C414.43 184.452 415.246 184.212 416.19 184.212C417.15 184.212 417.966 184.404 418.638 184.788C419.326 185.172 419.846 185.772 420.198 186.588C420.566 187.388 420.75 188.436 420.75 189.732V190.356H418.062ZM428.632 201.612C427.784 201.612 427.016 201.54 426.328 201.396C425.656 201.252 425.088 201.084 424.624 200.892C424.16 200.7 423.8 200.516 423.544 200.34L424.576 198.18C424.8 198.292 425.096 198.428 425.464 198.588C425.848 198.764 426.296 198.916 426.808 199.044C427.32 199.172 427.896 199.236 428.536 199.236C429.224 199.236 429.84 199.092 430.384 198.804C430.928 198.532 431.352 198.108 431.656 197.532C431.96 196.956 432.112 196.22 432.112 195.324V184.5H434.8V195.252C434.8 196.612 434.544 197.764 434.032 198.708C433.52 199.668 432.8 200.388 431.872 200.868C430.944 201.364 429.864 201.612 428.632 201.612ZM428.224 196.26C427.136 196.26 426.184 196.012 425.368 195.516C424.568 195.02 423.936 194.332 423.472 193.452C423.024 192.556 422.8 191.524 422.8 190.356C422.8 189.108 423.024 188.028 423.472 187.116C423.936 186.204 424.568 185.492 425.368 184.98C426.184 184.468 427.136 184.212 428.224 184.212C429.2 184.212 430.048 184.468 430.768 184.98C431.504 185.492 432.072 186.212 432.472 187.14C432.872 188.052 433.072 189.132 433.072 190.38C433.072 191.564 432.872 192.596 432.472 193.476C432.072 194.356 431.504 195.044 430.768 195.54C430.048 196.02 429.2 196.26 428.224 196.26ZM428.968 193.98C429.576 193.98 430.104 193.82 430.552 193.5C431.016 193.18 431.376 192.748 431.632 192.204C431.888 191.644 432.016 191.004 432.016 190.284C432.016 189.548 431.888 188.908 431.632 188.364C431.376 187.804 431.016 187.372 430.552 187.068C430.088 186.748 429.552 186.588 428.944 186.588C428.304 186.588 427.736 186.748 427.24 187.068C426.76 187.372 426.376 187.804 426.088 188.364C425.816 188.908 425.68 189.548 425.68 190.284C425.68 191.004 425.816 191.644 426.088 192.204C426.376 192.748 426.768 193.18 427.264 193.5C427.76 193.82 428.328 193.98 428.968 193.98ZM442.137 196.788C441.337 196.788 440.601 196.668 439.929 196.428C439.257 196.188 438.681 195.852 438.201 195.42C437.721 194.972 437.353 194.452 437.097 193.86L439.425 192.828C439.665 193.276 440.017 193.652 440.481 193.956C440.961 194.26 441.489 194.412 442.065 194.412C442.689 194.412 443.185 194.308 443.553 194.1C443.937 193.876 444.129 193.572 444.129 193.188C444.129 192.82 443.985 192.54 443.697 192.348C443.409 192.14 443.001 191.972 442.473 191.844L441.345 191.532C440.209 191.244 439.321 190.788 438.681 190.164C438.041 189.524 437.721 188.796 437.721 187.98C437.721 186.78 438.105 185.852 438.873 185.196C439.657 184.54 440.777 184.212 442.233 184.212C442.969 184.212 443.641 184.324 444.249 184.548C444.873 184.756 445.409 185.06 445.857 185.46C446.305 185.844 446.617 186.3 446.793 186.828L444.561 187.836C444.401 187.436 444.097 187.132 443.649 186.924C443.201 186.7 442.705 186.588 442.161 186.588C441.617 186.588 441.193 186.708 440.889 186.948C440.585 187.172 440.433 187.492 440.433 187.908C440.433 188.148 440.569 188.372 440.841 188.58C441.113 188.772 441.505 188.932 442.017 189.06L443.433 189.396C444.217 189.588 444.857 189.892 445.353 190.308C445.849 190.708 446.217 191.164 446.457 191.676C446.697 192.172 446.817 192.676 446.817 193.188C446.817 193.908 446.609 194.54 446.193 195.084C445.793 195.628 445.241 196.052 444.537 196.356C443.833 196.644 443.033 196.788 442.137 196.788ZM449.837 191.268L449.669 179.7H452.621L452.453 191.268H449.837ZM451.133 196.86C450.669 196.86 450.269 196.692 449.933 196.356C449.613 196.02 449.453 195.62 449.453 195.156C449.453 194.692 449.613 194.3 449.933 193.98C450.269 193.644 450.669 193.476 451.133 193.476C451.597 193.476 451.997 193.644 452.333 193.98C452.669 194.3 452.837 194.692 452.837 195.156C452.837 195.62 452.669 196.02 452.333 196.356C451.997 196.692 451.597 196.86 451.133 196.86Z" fill="white"/>
<g clip-path="url(#clip0_8_38)">
<g clip-path="url(#clip1_8_38)">
<path d="M218.879 258.396C216.046 267.46 208.156 273.982 198.866 273.982L195.285 273.994C195.885 273.989 196.478 273.957 197.065 273.9C205.509 273.068 212.521 266.832 215.153 258.396H218.88H218.879Z" fill="#B45309"/>
<path d="M219.744 254.578C219.672 255.08 219.584 255.576 219.482 256.068H215.755C215.856 255.577 215.943 255.08 216.015 254.578H219.744Z" fill="#B45309"/>
<path d="M219.944 249.301H216.213C215.457 238.043 207.251 229.036 196.936 228.089C196.342 228.034 195.742 228.006 195.135 228.006H199.557C210.392 228.385 219.166 237.636 219.944 249.301Z" fill="#B45309"/>
<path d="M220 250.988C220 252.209 219.912 253.408 219.744 254.578H216.015C216.183 253.412 216.27 252.217 216.27 251C216.27 250.429 216.251 249.862 216.213 249.3H219.944C219.981 249.858 220 250.421 220 250.988V250.988Z" fill="#D97708"/>
<path d="M219.483 256.068C219.319 256.86 219.117 257.637 218.879 258.396H215.152C215.39 257.637 215.591 256.86 215.755 256.068H219.483Z" fill="#D97708"/>
<path d="M195.135 228C183.462 228 174 238.297 174 251C174 263.703 183.462 274 195.135 274C206.808 274 216.27 263.703 216.27 251C216.27 238.297 206.808 228 195.135 228ZM195.135 269.501C185.746 269.501 178.134 261.218 178.134 251C178.134 241.595 184.583 233.829 192.931 232.653C184.993 234.212 178.971 241.77 178.971 250.859C178.971 261.077 186.582 269.36 195.971 269.36C196.716 269.36 197.45 269.308 198.169 269.207C197.185 269.4 196.171 269.501 195.135 269.501H195.135Z" fill="#FDD34E"/>
<path d="M198.169 269.207C197.185 269.4 196.171 269.501 195.135 269.501C185.746 269.501 178.135 261.218 178.135 251C178.135 241.595 184.583 233.829 192.932 232.653C184.993 234.212 178.971 241.771 178.971 250.859C178.971 261.077 186.583 269.36 195.972 269.36C196.716 269.36 197.45 269.308 198.17 269.207H198.169Z" fill="#B45309"/>
<path d="M212.135 251C212.135 260.091 206.11 267.65 198.169 269.207C197.45 269.308 196.716 269.36 195.971 269.36C186.582 269.36 178.971 261.077 178.971 250.859C178.971 241.77 184.993 234.212 192.931 232.653C193.653 232.551 194.388 232.499 195.134 232.499C204.523 232.499 212.135 240.782 212.135 251H212.135Z" fill="#D97708"/>
<path d="M196.04 265.49C194.729 265.49 193.531 265.321 192.447 264.985C191.362 264.647 190.409 264.181 189.586 263.584C188.764 262.987 188.085 262.319 187.549 261.58C187.012 260.841 186.637 260.069 186.423 259.265L190.499 257.903C190.808 258.864 191.416 259.706 192.322 260.432C193.227 261.159 194.348 261.535 195.683 261.561C197.232 261.561 198.459 261.211 199.365 260.511C200.271 259.81 200.724 258.889 200.724 257.748C200.724 256.71 200.342 255.861 199.579 255.199C198.816 254.538 197.791 254.026 196.505 253.662L193.43 252.806C192.261 252.469 191.207 251.976 190.266 251.328C189.324 250.68 188.585 249.862 188.049 248.877C187.513 247.891 187.245 246.724 187.245 245.375C187.245 242.833 188.007 240.855 189.533 239.441C191.058 238.027 193.239 237.321 196.076 237.321C197.672 237.321 199.072 237.587 200.276 238.118C201.48 238.65 202.475 239.376 203.261 240.297C204.048 241.218 204.632 242.262 205.014 243.429L201.009 244.83C200.652 243.793 200.032 242.937 199.15 242.262C198.268 241.588 197.172 241.25 195.861 241.25C194.55 241.25 193.436 241.601 192.661 242.301C191.886 243.001 191.499 243.974 191.499 245.219C191.499 246.231 191.803 247.015 192.411 247.573C193.019 248.13 193.847 248.552 194.896 248.837L197.971 249.654C200.211 250.251 201.951 251.276 203.191 252.728C204.43 254.18 205.05 255.789 205.05 257.552C205.05 259.109 204.704 260.484 204.013 261.677C203.322 262.87 202.303 263.804 200.956 264.478C199.609 265.152 197.971 265.49 196.04 265.49L196.04 265.49Z" fill="#B45309"/>
<path d="M195.47 264.999C194.159 264.999 192.961 264.83 191.877 264.494C190.792 264.156 189.839 263.69 189.016 263.093C188.194 262.496 187.515 261.828 186.978 261.089C186.442 260.35 186.067 259.578 185.853 258.774L189.929 257.412C190.238 258.373 190.846 259.215 191.752 259.941C192.657 260.668 193.778 261.044 195.112 261.07C196.661 261.07 197.889 260.72 198.795 260.02C199.701 259.319 200.153 258.398 200.153 257.257C200.153 256.219 199.772 255.37 199.009 254.708C198.246 254.047 197.221 253.535 195.935 253.171L192.86 252.315C191.691 251.978 190.637 251.485 189.696 250.837C188.754 250.189 188.015 249.371 187.479 248.386C186.943 247.4 186.675 246.233 186.675 244.884C186.675 242.342 187.437 240.364 188.963 238.95C190.488 237.536 192.669 236.83 195.506 236.83C197.102 236.83 198.502 237.096 199.706 237.627C200.91 238.159 201.905 238.885 202.691 239.806C203.478 240.727 204.062 241.771 204.444 242.938L200.439 244.339C200.082 243.302 199.462 242.446 198.58 241.771C197.698 241.097 196.602 240.759 195.291 240.759C193.98 240.759 192.866 241.11 192.091 241.81C191.316 242.51 190.929 243.483 190.929 244.728C190.929 245.74 191.233 246.524 191.841 247.082C192.448 247.639 193.277 248.061 194.326 248.346L197.401 249.163C199.641 249.76 201.381 250.785 202.621 252.237C203.86 253.689 204.48 255.298 204.48 257.061C204.48 258.618 204.134 259.993 203.443 261.186C202.752 262.379 201.733 263.313 200.386 263.987C199.039 264.661 197.401 264.999 195.47 264.999L195.47 264.999Z" fill="#FDD34E"/>
</g>
<path d="M229.75 269V237.65L230.4 234H236.3V269H229.75ZM222.35 245.05V238.85C223.183 238.917 224.083 238.717 225.05 238.25C226.017 237.75 226.967 237.117 227.9 236.35C228.867 235.55 229.7 234.75 230.4 233.95L234.75 238.2C233.55 239.533 232.283 240.75 230.95 241.85C229.617 242.917 228.233 243.75 226.8 244.35C225.4 244.95 223.917 245.183 222.35 245.05ZM282.408 257.1L269.558 244.3L273.458 240.2L287.708 254.15L282.408 257.1ZM256.208 256.95V251.3H283.708V256.95H256.208ZM273.308 267.9L269.408 263.8L282.458 251.05L287.708 254.15L273.308 267.9ZM316.671 267.8C314.537 267.8 312.604 267.467 310.871 266.8C309.137 266.133 307.704 265.233 306.571 264.1C305.471 262.967 304.771 261.75 304.471 260.45L310.571 258.65C310.937 259.65 311.604 260.517 312.571 261.25C313.571 261.95 314.821 262.317 316.321 262.35C317.887 262.383 319.154 262.05 320.121 261.35C321.121 260.65 321.621 259.717 321.621 258.55C321.621 257.617 321.221 256.817 320.421 256.15C319.654 255.45 318.587 254.933 317.221 254.6L313.121 253.6C311.587 253.167 310.237 252.55 309.071 251.75C307.904 250.95 307.004 249.967 306.371 248.8C305.737 247.6 305.421 246.217 305.421 244.65C305.421 241.683 306.387 239.367 308.321 237.7C310.287 236.033 313.071 235.2 316.671 235.2C318.671 235.2 320.421 235.483 321.921 236.05C323.454 236.617 324.737 237.45 325.771 238.55C326.804 239.617 327.587 240.9 328.121 242.4L322.021 244.25C321.687 243.283 321.037 242.45 320.071 241.75C319.137 241.017 317.937 240.65 316.471 240.65C315.037 240.65 313.904 241 313.071 241.7C312.237 242.367 311.821 243.3 311.821 244.5C311.821 245.467 312.137 246.25 312.771 246.85C313.437 247.417 314.337 247.833 315.471 248.1L319.621 249.15C322.321 249.817 324.404 251.017 325.871 252.75C327.371 254.45 328.121 256.35 328.121 258.45C328.121 260.35 327.671 262 326.771 263.4C325.871 264.8 324.571 265.883 322.871 266.65C321.171 267.417 319.104 267.8 316.671 267.8ZM314.021 274.15V265.45H319.521V274.15H314.021ZM314.021 238.7V230H319.521V238.7H314.021ZM339.906 269V237.65L340.556 234H346.456V269H339.906ZM332.506 245.05V238.85C333.34 238.917 334.24 238.717 335.206 238.25C336.173 237.75 337.123 237.117 338.056 236.35C339.023 235.55 339.856 234.75 340.556 233.95L344.906 238.2C343.706 239.533 342.44 240.75 341.106 241.85C339.773 242.917 338.39 243.75 336.956 244.35C335.556 244.95 334.073 245.183 332.506 245.05ZM356.5 269.21C355.63 269.21 354.875 269.04 354.235 268.7C353.595 268.36 353.1 267.885 352.75 267.275C352.41 266.655 352.24 265.925 352.24 265.085V258.5H354.295V265.085C354.295 265.535 354.385 265.93 354.565 266.27C354.755 266.6 355.015 266.855 355.345 267.035C355.685 267.215 356.08 267.305 356.53 267.305C356.98 267.305 357.37 267.215 357.7 267.035C358.04 266.855 358.3 266.6 358.48 266.27C358.67 265.93 358.765 265.535 358.765 265.085V258.5H360.82V265.085C360.82 265.925 360.64 266.655 360.28 267.275C359.93 267.885 359.43 268.36 358.78 268.7C358.14 269.04 357.38 269.21 356.5 269.21ZM366.477 269.18C365.947 269.18 365.452 269.115 364.992 268.985C364.532 268.855 364.122 268.675 363.762 268.445C363.402 268.205 363.102 267.94 362.862 267.65C362.632 267.36 362.482 267.055 362.412 266.735L364.422 266.135C364.552 266.475 364.782 266.77 365.112 267.02C365.442 267.26 365.857 267.385 366.357 267.395C366.887 267.405 367.317 267.29 367.647 267.05C367.987 266.81 368.157 266.5 368.157 266.12C368.157 265.79 368.022 265.515 367.752 265.295C367.492 265.065 367.132 264.89 366.672 264.77L365.307 264.41C364.797 264.28 364.347 264.085 363.957 263.825C363.567 263.555 363.262 263.225 363.042 262.835C362.822 262.445 362.712 261.99 362.712 261.47C362.712 260.48 363.037 259.71 363.687 259.16C364.347 258.6 365.277 258.32 366.477 258.32C367.147 258.32 367.732 258.42 368.232 258.62C368.742 258.81 369.167 259.085 369.507 259.445C369.847 259.805 370.107 260.23 370.287 260.72L368.292 261.335C368.172 260.995 367.952 260.705 367.632 260.465C367.312 260.225 366.907 260.105 366.417 260.105C365.917 260.105 365.522 260.22 365.232 260.45C364.952 260.68 364.812 261.005 364.812 261.425C364.812 261.755 364.922 262.015 365.142 262.205C365.372 262.395 365.682 262.54 366.072 262.64L367.452 262.985C368.352 263.205 369.052 263.6 369.552 264.17C370.052 264.74 370.302 265.375 370.302 266.075C370.302 266.695 370.152 267.24 369.852 267.71C369.552 268.17 369.117 268.53 368.547 268.79C367.977 269.05 367.287 269.18 366.477 269.18ZM372.063 269V258.5H375.423C376.493 258.5 377.438 258.725 378.258 259.175C379.088 259.625 379.733 260.245 380.193 261.035C380.663 261.815 380.898 262.72 380.898 263.75C380.898 264.77 380.663 265.675 380.193 266.465C379.733 267.255 379.088 267.875 378.258 268.325C377.438 268.775 376.493 269 375.423 269H372.063ZM374.118 267.08H375.423C375.903 267.08 376.348 266.995 376.758 266.825C377.168 266.655 377.523 266.42 377.823 266.12C378.133 265.82 378.373 265.47 378.543 265.07C378.713 264.66 378.798 264.22 378.798 263.75C378.798 263.28 378.713 262.845 378.543 262.445C378.373 262.035 378.133 261.68 377.823 261.38C377.523 261.08 377.168 260.845 376.758 260.675C376.348 260.505 375.903 260.42 375.423 260.42H374.118V267.08Z" fill="white"/>
</g>
<defs>
<linearGradient id="paint0_linear_8_38" x1="278.5" y1="10" x2="278.5" y2="304" gradientUnits="userSpaceOnUse">
<stop stop-color="#6365F0"/>
<stop offset="1" stop-color="#393A8A"/>
</linearGradient>
<clipPath id="clip0_8_38">
<rect width="356" height="64" fill="white" transform="translate(100.5 219)"/>
</clipPath>
<clipPath id="clip1_8_38">
<rect width="46" height="46" fill="white" transform="translate(174 228)"/>
</clipPath>
</defs>
</svg>
