<?xml version="1.0" encoding="UTF-8"?><svg
  id="Layer_2"
  xmlns="http://www.w3.org/2000/svg"
  viewBox="0 0 1500 1500"
>
  <defs>
    <style>
      .cls-1 {
        fill: #b45309;
      }
      .cls-2 {
        fill: #fdd34e;
      }
      .cls-3 {
        fill: #d97708;
      }
    </style>
  </defs>
  <path
    class="cls-1"
    d="M1463.46,991.16c-92.4,295.59-349.68,508.26-652.62,508.26l-116.75.37c19.54-.15,38.89-1.18,58.02-3.06,275.37-27.12,504.01-230.47,589.83-505.57h121.53Z"
  />
  <path
    class="cls-1"
    d="M1491.64,866.66c-2.35,16.38-5.2,32.57-8.52,48.59h-121.56c3.31-16,6.15-32.21,8.5-48.59h121.58Z"
  />
  <path
    class="cls-1"
    d="M1498.17,694.59h-121.67C1351.85,327.49,1084.27,33.78,747.93,2.89c-19.37-1.77-38.95-2.68-58.74-2.68h144.2c353.3,12.36,639.42,314.02,664.78,694.38Z"
  />
  <path
    class="cls-3"
    d="M1500,749.62c0,39.82-2.86,78.91-8.36,117.04h-121.58c5.46-38.01,8.3-76.97,8.3-116.65,0-18.64-.62-37.13-1.86-55.43h121.67c1.22,18.17,1.83,36.53,1.83,55.03Z"
  />
  <path
    class="cls-3"
    d="M1483.13,915.25c-5.35,25.83-11.93,51.17-19.67,75.92h-121.53c7.73-24.75,14.3-50.08,19.64-75.92h121.56Z"
  />
  <path
    class="cls-2"
    d="M689.18,0C308.55,0,0,335.78,0,750s308.55,750,689.18,750,689.18-335.78,689.18-750S1069.81,0,689.18,0ZM689.18,1353.29c-306.17,0-554.37-270.11-554.37-603.29,0-306.7,210.29-559.94,482.52-598.28-258.86,50.85-455.24,297.31-455.24,593.68,0,333.19,248.2,603.3,554.37,603.3,24.28,0,48.21-1.7,71.67-5-32.11,6.3-65.17,9.59-98.94,9.59Z"
  />
  <path
    class="cls-1"
    d="M788.13,1343.71c-32.11,6.3-65.17,9.59-98.94,9.59-306.17,0-554.37-270.11-554.37-603.29,0-306.7,210.29-559.94,482.52-598.28-258.86,50.85-455.24,297.31-455.24,593.68,0,333.19,248.2,603.3,554.37,603.3,24.28,0,48.21-1.7,71.67-5Z"
  />
  <path
    class="cls-3"
    d="M1243.54,750c0,296.43-196.46,542.94-455.41,593.7-23.45,3.3-47.38,5-71.67,5-306.16,0-554.37-270.11-554.37-603.3,0-296.37,196.38-542.83,455.24-593.68,23.52-3.31,47.5-5.02,71.84-5.02,306.16,0,554.36,270.11,554.36,603.3Z"
  />
  <path
    class="cls-1"
    d="M718.7,1222.51c-42.76,0-81.83-5.51-117.18-16.49-35.36-11-66.45-26.22-93.27-45.68-26.81-19.45-48.96-41.23-66.45-65.34-17.49-24.11-29.73-49.27-36.71-75.49l132.91-44.4c10.09,31.31,29.92,58.79,59.45,82.47,29.53,23.69,66.06,35.95,109.59,36.8,50.51,0,90.55-11.41,120.08-34.25,29.53-22.84,44.3-52.87,44.3-90.09,0-33.84-12.44-61.53-37.32-83.11-24.87-21.56-58.29-38.27-100.25-50.12l-100.27-27.92c-38.1-10.98-72.48-27.05-103.18-48.19-30.7-21.14-54.79-47.8-72.28-79.94-17.49-32.14-26.22-70.2-26.22-114.19,0-82.88,24.86-147.39,74.6-193.49,49.74-46.1,120.86-69.15,213.36-69.15,52.07,0,97.72,8.68,136.98,26.01,39.24,17.35,71.69,41.03,97.34,71.05,25.65,30.03,44.7,64.07,57.14,102.14l-130.58,45.67c-11.66-33.82-31.87-61.74-60.63-83.73s-64.51-32.99-107.25-32.99-79.09,11.43-104.34,34.25c-25.27,22.84-37.89,54.57-37.89,95.16,0,32.99,9.9,58.57,29.73,76.75,19.81,18.18,46.82,31.93,81.03,41.23l100.27,26.65c73.06,19.46,129.79,52.87,170.21,100.23,40.42,47.36,60.63,99.8,60.63,157.31,0,50.76-11.28,95.59-33.82,134.49-22.53,38.91-55.76,69.36-99.68,91.35-43.92,21.99-97.34,32.99-160.29,32.99Z"
  />
  <path
    class="cls-2"
    d="M700.11,1206.5c-42.76,0-81.83-5.51-117.18-16.49-35.36-11-66.45-26.22-93.27-45.68-26.81-19.45-48.96-41.23-66.45-65.34-17.49-24.11-29.73-49.27-36.71-75.49l132.91-44.4c10.09,31.31,29.92,58.79,59.45,82.47,29.53,23.69,66.06,35.95,109.59,36.8,50.51,0,90.55-11.41,120.08-34.25,29.53-22.84,44.3-52.87,44.3-90.09,0-33.84-12.44-61.53-37.32-83.11-24.87-21.56-58.29-38.27-100.25-50.12l-100.27-27.92c-38.1-10.98-72.48-27.05-103.18-48.19-30.7-21.14-54.79-47.8-72.28-79.94-17.49-32.14-26.22-70.2-26.22-114.19,0-82.88,24.86-147.39,74.6-193.49,49.74-46.1,120.86-69.15,213.36-69.15,52.07,0,97.72,8.68,136.98,26.01,39.24,17.35,71.69,41.03,97.34,71.05,25.65,30.03,44.7,64.07,57.14,102.14l-130.58,45.67c-11.66-33.82-31.87-61.74-60.63-83.73-28.75-21.99-64.51-32.99-107.25-32.99s-79.09,11.43-104.34,34.25c-25.27,22.84-37.89,54.57-37.89,95.16,0,32.99,9.9,58.57,29.73,76.75,19.81,18.18,46.82,31.93,81.03,41.23l100.27,26.65c73.06,19.46,129.79,52.87,170.21,100.23,40.42,47.36,60.63,99.8,60.63,157.31,0,50.76-11.28,95.59-33.82,134.49-22.53,38.91-55.76,69.36-99.68,91.35s-97.34,32.99-160.29,32.99Z"
  />
</svg>
