<?xml version="1.0" encoding="UTF-8"?><svg
  id="Layer_3"
  xmlns="http://www.w3.org/2000/svg"
  viewBox="0 0 1500 1500"
>
  <defs>
    <style>
      .cls-1 {
        fill: #fdd34e;
      }
      .cls-2 {
        fill: #d97708;
      }
    </style>
  </defs>
  <circle class="cls-1" cx="750" cy="750" r="740.77" />
  <circle class="cls-2" cx="750" cy="750" r="595.86" />
  <path
    class="cls-1"
    d="M757.87,1203.63c-45.96,0-87.95-5.44-125.96-16.28-38.01-10.86-71.43-25.9-100.25-45.12-28.82-19.21-52.63-40.73-71.43-64.53-18.8-23.81-31.95-48.66-39.46-74.56l142.85-43.86c10.84,30.92,32.16,58.07,63.9,81.45,31.75,23.4,71,35.51,117.8,36.35,54.29,0,97.32-11.27,129.07-33.83,31.75-22.56,47.62-52.22,47.62-88.98,0-33.42-13.38-60.77-40.11-82.08-26.73-21.29-62.65-37.8-107.76-49.5l-107.77-27.57c-40.95-10.84-77.91-26.72-110.9-47.6-32.99-20.88-58.89-47.21-77.69-78.95-18.8-31.75-28.19-69.34-28.19-112.79,0-81.86,26.72-145.57,80.18-191.11,53.47-45.53,129.91-68.3,229.33-68.3,55.96,0,105.04,8.57,147.23,25.69,42.18,17.14,77.05,40.52,104.63,70.18,27.57,29.66,48.05,63.29,61.42,100.88l-140.36,45.1c-12.54-33.4-34.26-60.98-65.17-82.7-30.91-21.72-69.34-32.58-115.28-32.58s-85.01,11.29-112.15,33.83c-27.16,22.56-40.73,53.9-40.73,93.99,0,32.58,10.64,57.85,31.95,75.81,21.29,17.96,50.32,31.54,87.09,40.73l107.77,26.32c78.53,19.23,139.5,52.22,182.95,99,43.44,46.78,65.17,98.57,65.17,155.37,0,50.13-12.13,94.42-36.35,132.83-24.22,38.43-59.93,68.5-107.14,90.22-47.21,21.72-104.63,32.58-172.29,32.58Z"
  />
</svg>
