<?xml version="1.0" encoding="UTF-8"?><svg id="Icon" xmlns="http://www.w3.org/2000/svg" viewBox="0 0 1500 1500"><defs><style>.cls-1{fill:#f9a9d4;}.cls-1,.cls-2,.cls-3,.cls-4,.cls-5,.cls-6{stroke-width:0px;}.cls-2{fill:#f473b7;}.cls-3{fill:#fbcfe8;}.cls-4{fill:#ec4899;}.cls-5{fill:#fff;}.cls-6{fill:#dc2777;}</style></defs><g id="Icon_01_-_Camera"><polygon class="cls-2" points="750 139.63 750 502.57 502.57 750 139.63 750 750 139.63"/><polygon class="cls-1" points="1360.37 750 998.67 750 750.62 501.96 750 502.57 750 139.63 1360.37 750"/><polygon class="cls-2" points="1360.37 750 750 1360.37 750 998.26 750.62 998.87 999.07 750.41 998.67 750 1360.37 750"/><polygon class="cls-1" points="750 998.26 750 1360.37 139.63 750 502.57 750 502.16 750.41 750 998.26"/><polygon class="cls-3" points="999.07 750.41 750.62 998.87 750 998.26 502.16 750.41 750.62 501.96 998.67 750 999.07 750.41"/><polygon class="cls-4" points="750 1360.37 631.66 1478.75 21.25 868.34 139.63 750 750 1360.37"/><polygon class="cls-6" points="750 139.63 139.63 750 21.25 631.66 631.66 21.25 750 139.63"/><polygon class="cls-4" points="1478.75 631.66 1360.37 750 750 139.63 868.34 21.25 1478.75 631.66"/><polygon class="cls-6" points="1478.75 868.34 868.34 1478.75 750 1360.37 1360.37 750 1478.75 868.34"/><polygon class="cls-2" points="1478.75 631.66 1478.75 868.34 1360.37 750 1478.75 631.66"/><polygon class="cls-1" points="868.34 21.25 750 139.63 631.66 21.25 868.34 21.25"/><polygon class="cls-2" points="139.63 750 21.25 868.34 21.25 631.66 139.63 750"/><polygon class="cls-1" points="868.34 1478.75 631.66 1478.75 750 1360.37 868.34 1478.75"/><path class="cls-5" d="M720.34,750.3c-120.74,0-218.59,97.85-218.59,218.59,0-120.74-97.85-218.59-218.59-218.59,120.74,0,218.59-97.85,218.59-218.59,0,120.74,97.85,218.59,218.59,218.59Z"/><path class="cls-5" d="M694.59,1054.92c-60.37,0-109.3,48.93-109.3,109.3,0-60.37-48.93-109.3-109.3-109.3,60.37,0,109.3-48.93,109.3-109.3,0,60.37,48.93,109.3,109.3,109.3Z"/></g></svg>