<?xml version="1.0" encoding="UTF-8"?><svg id="Icon" xmlns="http://www.w3.org/2000/svg" xmlns:xlink="http://www.w3.org/1999/xlink" viewBox="0 0 1500 1500"><defs><style>.cls-1{mask:url(#mask);}.cls-2{fill:url(#linear-gradient);}.cls-2,.cls-3,.cls-4,.cls-5{stroke-width:0px;}.cls-3{fill:url(#radial-gradient);}.cls-4{fill:url(#radial-gradient-2);}.cls-5{fill:#fff;}</style><radialGradient id="radial-gradient" cx="760" cy="782.5" fx="760" fy="782.5" r="739.06" gradientTransform="translate(0 -22.2) scale(.99)" gradientUnits="userSpaceOnUse"><stop offset="0" stop-color="#000"/><stop offset=".96" stop-color="#fff"/></radialGradient><mask id="mask" x="0" y="0" width="1500" height="1500" maskUnits="userSpaceOnUse"><rect class="cls-3" x="0" width="1500" height="1500"/></mask><linearGradient id="linear-gradient" x1="347.01" y1="347.01" x2="1319.22" y2="1319.22" gradientUnits="userSpaceOnUse"><stop offset="0" stop-color="#f472b6"/><stop offset=".31" stop-color="#d15bc8"/><stop offset=".76" stop-color="#a43ee0"/><stop offset=".99" stop-color="#9333ea"/></linearGradient><radialGradient id="radial-gradient-2" cx="459.5" cy="400.5" fx="459.5" fy="400.5" r="341.5" gradientUnits="userSpaceOnUse"><stop offset="0" stop-color="#fff" stop-opacity=".5"/><stop offset=".45" stop-color="rgba(255,255,255,.25)" stop-opacity=".25"/><stop offset=".81" stop-color="rgba(255,255,255,.07)" stop-opacity=".07"/><stop offset=".99" stop-color="#fff" stop-opacity="0"/></radialGradient></defs><g id="Icon_01_-_Camera"><g class="cls-1"><circle class="cls-2" cx="750" cy="750" r="682"/></g><circle class="cls-4" cx="459.5" cy="400.5" r="341.5"/><path class="cls-5" d="M618,400.5c-87.55,0-158.5,70.95-158.5,158.5,0-87.55-70.95-158.5-158.5-158.5,87.55,0,158.5-70.95,158.5-158.5,0,87.55,70.95,158.5,158.5,158.5Z"/><path class="cls-5" d="M360,540.75c-32.43,0-58.71,26.28-58.71,58.71,0-32.43-26.28-58.71-58.71-58.71,32.43,0,58.71-26.28,58.71-58.71,0,32.43,26.28,58.71,58.71,58.71Z"/></g></svg>