<?xml version="1.0" encoding="UTF-8"?><svg id="Icon" xmlns="http://www.w3.org/2000/svg" viewBox="0 0 1500 1500"><defs><style>.cls-1{fill:#f9a9d4;}.cls-1,.cls-2,.cls-3,.cls-4,.cls-5,.cls-6,.cls-7{stroke-width:0px;}.cls-2{fill:#bf185d;}.cls-3{fill:#f473b7;}.cls-4{fill:#fbcfe8;}.cls-5{fill:#ec4899;}.cls-6{fill:#fff;}.cls-7{fill:#dc2777;}</style></defs><g id="Icon_01_-_Camera"><polygon class="cls-3" points="750 249.01 750 546.91 546.91 750 249.01 750 750 249.01"/><polygon class="cls-1" points="1251 750 954.12 750 750.51 546.41 750 546.91 750 249.01 1251 750"/><polygon class="cls-3" points="1251 750 750 1251 750 953.77 750.51 954.28 954.45 750.34 954.12 750 1251 750"/><polygon class="cls-1" points="750 953.77 750 1251 249.01 750 546.91 750 546.57 750.34 750 953.77"/><polygon class="cls-4" points="954.45 750.34 750.51 954.28 750 953.77 546.57 750.34 750.51 546.41 954.12 750 954.45 750.34"/><polygon class="cls-5" points="750 1250.99 652.88 1348.16 151.84 847.13 249.01 750 750 1250.99"/><polygon class="cls-7" points="750 249.01 249.01 750 151.84 652.87 652.88 151.84 750 249.01"/><polygon class="cls-5" points="1348.17 652.87 1251.01 750 750 249.01 847.13 151.84 1348.17 652.87"/><polygon class="cls-7" points="1348.17 847.13 847.13 1348.16 750 1250.99 1251.01 750 1348.17 847.13"/><polygon class="cls-3" points="1348.17 652.87 1348.17 847.13 1251.01 750 1348.17 652.87"/><polygon class="cls-1" points="847.13 151.84 750 249.01 652.88 151.84 847.13 151.84"/><polygon class="cls-3" points="249.01 750 151.84 847.13 151.84 652.87 249.01 750"/><polygon class="cls-1" points="847.13 1348.16 652.88 1348.16 750 1250.99 847.13 1348.16"/><polygon class="cls-3" points="694.16 1479.2 521.85 1389.5 652.88 1348.16 694.16 1479.2"/><polygon class="cls-3" points="978.15 1389.5 805.85 1479.2 847.13 1348.16 978.15 1389.5"/><polygon class="cls-3" points="694.16 20.8 652.88 151.84 521.85 110.5 694.16 20.8"/><polygon class="cls-3" points="978.15 110.5 847.13 151.84 805.85 20.8 978.15 110.5"/><polygon class="cls-5" points="151.84 847.13 110.5 978.15 20.8 805.85 151.84 847.13"/><polygon class="cls-5" points="151.84 652.87 151.84 652.88 20.81 694.16 110.5 521.85 151.84 652.87"/><polygon class="cls-5" points="1479.2 805.84 1389.5 978.15 1348.17 847.13 1479.2 805.84"/><polygon class="cls-5" points="1479.2 694.16 1348.17 652.87 1389.5 521.85 1479.2 694.16"/><polygon class="cls-2" points="1389.5 521.85 1348.17 652.87 847.13 151.84 978.15 110.5 1389.5 521.85"/><polygon class="cls-7" points="1479.2 694.16 1479.2 805.84 1348.17 847.13 1348.17 652.87 1479.2 694.16"/><polygon class="cls-2" points="1389.5 978.15 978.15 1389.5 847.13 1348.16 1348.17 847.13 1389.5 978.15"/><polygon class="cls-5" points="847.13 1348.16 805.85 1479.2 694.16 1479.2 652.88 1348.16 847.13 1348.16"/><polygon class="cls-2" points="652.88 1348.16 521.85 1389.5 110.5 978.15 151.84 847.13 652.88 1348.16"/><polygon class="cls-7" points="151.84 652.88 151.84 847.13 20.8 805.85 20.81 694.16 151.84 652.88"/><polygon class="cls-2" points="652.88 151.84 151.84 652.87 110.5 521.85 521.85 110.5 652.88 151.84"/><polygon class="cls-5" points="847.13 151.84 652.88 151.84 694.16 20.8 805.85 20.8 847.13 151.84"/><path class="cls-6" d="M769.29,749.99c-118.76,0-215.01,96.25-215.01,215.01,0-118.76-96.25-215.01-215.01-215.01,118.76,0,215.01-96.25,215.01-215.01,0,118.76,96.25,215.01,215.01,215.01Z"/></g></svg>