<?xml version="1.0" encoding="UTF-8"?><svg id="Icon" xmlns="http://www.w3.org/2000/svg" viewBox="0 0 1500 1500"><defs><style>.cls-1{fill:#c0dbfe;}.cls-1,.cls-2,.cls-3{stroke-width:0px;}.cls-2{fill:#2663eb;}.cls-3{fill:#61a6fb;}</style></defs><g id="Icon_01_-_Camera"><polygon class="cls-2" points="750 119.6 750 494.45 494.45 750 119.6 750 750 119.6"/><polygon class="cls-3" points="1380.4 750 1006.83 750 750.63 493.81 750 494.45 750 119.6 1380.4 750"/><polygon class="cls-2" points="1380.4 750 750 1380.4 750 1006.41 750.63 1007.04 1007.25 750.42 1006.83 750 1380.4 750"/><polygon class="cls-3" points="750 1006.41 750 1380.4 119.6 750 494.45 750 494.03 750.42 750 1006.41"/><polygon class="cls-1" points="1007.25 750.42 750.63 1007.04 750 1006.41 494.03 750.42 494.45 750 750.63 493.81 1006.83 750 1007.25 750.42"/></g></svg>