<?xml version="1.0" encoding="UTF-8"?><svg id="Icon" xmlns="http://www.w3.org/2000/svg" viewBox="0 0 1500 1500"><defs><style>.cls-1{fill:#d946ef;}.cls-1,.cls-2,.cls-3{stroke-width:0px;}.cls-2{fill:#a21caf;}.cls-3{fill:#f0abfc;}</style></defs><g id="Icon_02_-_Image"><polygon class="cls-2" points="750 65.01 750 472.32 472.32 750 65.01 750 750 65.01"/><polygon class="cls-1" points="1434.99 750 1029.07 750 750.69 471.63 750 472.32 750 65.01 1434.99 750"/><polygon class="cls-2" points="1434.99 750 750 1434.99 750 1028.61 750.69 1029.3 1029.53 750.46 1029.07 750 1434.99 750"/><polygon class="cls-1" points="750 1028.61 750 1434.99 65.01 750 472.32 750 471.86 750.46 750 1028.61"/><polygon class="cls-3" points="1029.53 750.46 750.69 1029.3 750 1028.61 471.86 750.46 472.32 750 750.69 471.63 1029.07 750 1029.53 750.46"/></g></svg>