<?xml version="1.0" encoding="UTF-8"?><svg id="Icon" xmlns="http://www.w3.org/2000/svg" viewBox="0 0 1500 1500"><defs><style>.cls-1{fill:#9334eb;}.cls-1,.cls-2,.cls-3,.cls-4,.cls-5{stroke-width:0px;}.cls-2{fill:#c084fc;}.cls-3{fill:#7e22cf;}.cls-4{fill:#a856f7;}.cls-5{fill:#d8b5fe;}</style></defs><g id="Icon_01_-_Camera"><polygon class="cls-4" points="750 173.48 750 516.29 516.29 750 173.48 750 750 173.48"/><polygon class="cls-2" points="1326.52 750 984.88 750 750.58 515.71 750 516.29 750 173.48 1326.52 750"/><polygon class="cls-4" points="1326.52 750 750 1326.52 750 984.49 750.58 985.07 985.26 750.39 984.88 750 1326.52 750"/><polygon class="cls-2" points="750 984.49 750 1326.52 173.48 750 516.29 750 515.9 750.39 750 984.49"/><polygon class="cls-5" points="985.26 750.39 750.58 985.07 750 984.49 515.9 750.39 750.58 515.71 984.88 750 985.26 750.39"/><polygon class="cls-1" points="750 1326.52 638.23 1438.34 61.66 861.77 173.48 750 750 1326.52"/><polygon class="cls-3" points="750 173.48 173.48 750 61.66 638.23 638.23 61.66 750 173.48"/><polygon class="cls-1" points="1438.34 638.23 1326.52 750 750 173.48 861.77 61.66 1438.34 638.23"/><polygon class="cls-3" points="1438.34 861.77 861.77 1438.34 750 1326.52 1326.52 750 1438.34 861.77"/><polygon class="cls-4" points="1438.34 638.23 1438.34 861.77 1326.52 750 1438.34 638.23"/><polygon class="cls-2" points="861.77 61.66 750 173.48 638.23 61.66 861.77 61.66"/><polygon class="cls-4" points="173.48 750 61.66 861.77 61.66 638.23 173.48 750"/><polygon class="cls-2" points="861.77 1438.34 638.23 1438.34 750 1326.52 861.77 1438.34"/></g></svg>