<!-- from https://discord.com/branding but modified smile -->

<svg xmlns="http://www.w3.org/2000/svg" viewBox="0 0 24 24" fill="none">
  <path
    d="M19.5773 5.35453C18.1752 4.71262 16.695 4.25723 15.1746 3.99999C14.9665 4.37192 14.7783 4.75459 14.6106 5.14639C12.9911 4.90235 11.3441 4.90235 9.72456 5.14639C9.55681 4.75463 9.36855 4.37197 9.16058 3.99999C7.63918 4.2594 6.15805 4.71587 4.75457 5.35788C1.96828 9.48024 1.21297 13.5002 1.59062 17.4631C3.22234 18.6687 5.0487 19.5856 6.99031 20.1739C7.4275 19.5859 8.09529 18.3982 8.42771 17.7452L6.7721 17.1039C8.46082 17.8981 10.304 18.3098 12.1701 18.3098C14.0362 18.3098 15.8794 17.8981 17.5681 17.1039L15.9125 17.7452C16.2445 18.3979 16.909 19.5867 17.3465 20.1739C19.2898 19.5879 21.1176 18.6715 22.7496 17.4648C23.1927 12.8691 21.9926 8.88606 19.5773 5.35453Z"
    stroke="currentColor"
    strokeWidth="2"
    strokeLinejoin="round"
  />
  <path
    d="M8.62557 15.026C7.57316 15.026 6.7037 14.0709 6.7037 12.896C6.7037 11.721 7.54295 10.7576 8.62221 10.7576C9.70148 10.7576 10.5642 11.721 10.5458 12.896C10.5273 14.0709 9.69812 15.026 8.62557 15.026ZM15.7155 15.026C14.6614 15.026 13.7953 14.0709 13.7953 12.896C13.7953 11.721 14.6345 10.7576 15.7155 10.7576C16.7964 10.7576 17.6525 11.721 17.634 12.896C17.6155 14.0709 16.788 15.026 15.7155 15.026Z"
    fill="currentColor"
  />
</svg>
