<!-- Icon from Bootstrap: https://icons.getbootstrap.com/ -->

<svg
  xmlns="http://www.w3.org/2000/svg"
  width="18"
  height="18"
  fill="currentColor"
  viewBox="0 0 18 18"
>
  <g>
    <path d="M15.24,16.04s-.02,.02-.03,.03c.01,0,.01-.02,.02-.03h.01Z" />
    <path
      d="M9.03,8.89c-.12,.1-.22,.22-.3,.35l-.52,.9c-.06,.13-.1,.25-.13,.36-.02,.12-.03,.23-.03,.31,0,.22,.05,.43,.18,.67,0,.01,.01,.01,.01,.02h-.68c-.39,0-.7,.3-.7,.66v3.68c0,.36-.32,.66-.71,.66H3.69c-.62,0-1.12-.47-1.12-1.04v-6.82L7.75,4.5l1.25-1,1.25,1,3.13,2.5h-.87c-.11,0-.21,.03-.32,.06-.23,.08-.44,.21-.61,.41-.1,.12-.18,.24-.25,.44-.03,.08-.05,.17-.05,.19-.02,.09-.03,.17-.03,.25-.11,.05-.2,.1-.28,.15-.04,.02-.07,.04-.11,.06-.1,.04-.2,.09-.28,.17-.08-.04-.17-.08-.2-.09l-.16-.05c-.07,0-.23-.03-.31-.03-.14,0-.27,.02-.39,.06-.04,0-.08,.02-.11,.04-.03,0-.06,.02-.09,.03"
    />
    <path
      d="M1.5,8.04c-.16,0-.31-.07-.42-.2-.18-.23-.15-.57,.08-.75L8.68,1.08c.2-.16,.47-.16,.67,0l7.49,6c.23,.18,.27,.52,.08,.75-.19,.23-.52,.27-.75,.08L9.01,2.19,1.83,7.92c-.1,.08-.22,.12-.33,.12Z"
    />
  </g>
  <path
    d="M17.19,13.88s0-.04-.01-.05c0-.02,0-.03-.01-.04,0-.01,0-.03-.01-.03,0-.03-.02-.05-.04-.07-.01,0-.04-.04-.06-.06-.02,0-.03-.02-.04-.03l-.44-.25s-.03-.03-.05-.05c-.05-.04-.08-.1-.08-.17l.08-.49v-.16s.01-.03,0-.05c.01-.08,0-.16,0-.23v-.02c0-.07,0-.11-.01-.17l-.07-.43c0-.07,.03-.12,.06-.17l.53-.31s.08-.07,.11-.14c.01,0,.03-.06,.03-.09,.01-.04,.01-.09,0-.13v-.02l-.04-.1-.54-.92-.03-.04s-.03-.04-.05-.05c-.02,0-.04-.02-.06-.03-.04-.02-.08-.03-.13-.03l-.11,.02-.51,.28s-.04,.02-.07,.03c-.04,.01-.09,.01-.13,0-.02,0-.04-.01-.05-.01l-.03-.02-.02-.02-.13-.1s-.04-.04-.06-.06c-.04-.03-.08-.06-.13-.1-.08-.06-.17-.11-.26-.17-.06-.03-.12-.06-.18-.09-.02,0-.05-.02-.08-.04-.02,0-.05-.02-.07-.03-.05-.02-.11-.05-.16-.07-.06-.01-.12-.03-.18-.05h0c-.08-.05-.14-.1-.16-.18h0s-.01-.05-.01-.06v-.5s-.01-.08-.03-.15c-.01-.02-.02-.04-.03-.06s-.03-.04-.05-.05c-.02,0-.04-.03-.05-.04-.01,0-.03-.02-.04-.03-.02-.01-.05-.02-.08-.03-.03,0-.05,0-.08,0h-1.12s-.07,.04-.09,.05c-.02,.01-.04,.03-.06,.06t-.03,.03s-.03,.04-.05,.07h0s-.02,.07-.02,.1c-.01,0-.01,.03-.01,.04v.52c0,.1-.06,.18-.15,.22l-.36,.14c-.1,.04-.2,.1-.29,.15l-.04,.02c-.06,.03-.12,.07-.17,.1-.01,0-.01,0-.02,0-.01,.01-.03,.02-.04,.03t-.01,.02s-.03,0-.04,.02h0s-.04,.03-.06,.05c-.05,.04-.08,.06-.12,.09l-.12,.1h-.01c-.06,.06-.14,.08-.22,.06l-.06-.03-.5-.27s-.02-.01-.03-.01c-.02,0-.03,0-.04,0-.02,0-.04,0-.05,0l-.1,.02h-.01s-.03,0-.04,0c-.02,.02-.04,.02-.06,.04-.04,.03-.08,.06-.1,.1l-.44,.77-.07,.13c-.04,.06-.04,.13-.04,.18s.01,.11,.05,.18l.04,.06s.07,.05,.09,.07l.15,.09,.33,.19,.1,.05-.02,.13-.04,.21c-.03,.2-.05,.38-.05,.57,0,.18,.02,.36,.05,.55l.04,.21s-.01,0-.01,.02c0,.08-.04,.16-.12,.21l-.51,.31h0s-.02,.04-.02,.04l-.06,.09h0s-.02,.08-.02,.11c0,.07,.02,.13,.05,.19,.01,0,.01,.01,.01,.01l.13,.24,.38,.64s.08,.09,.13,.13c.01,0,.02,.01,.03,.01,.1,.04,.22,.04,.32-.01l.44-.26s.04-.02,.06-.02c.02-.01,.04-.01,.06-.01,.03,0,.06,.01,.1,.02l.03,.02,.04,.03,.13,.11c.14,.11,.22,.17,.27,.2,.02,0,.03,0,.04,0l.03,.03,.06,.04s.06,.03,.13,.07c.1,.06,.2,.1,.29,.14,.01,0,.01,0,.02,0h.01s.27,.11,.27,.11c.04,.01,.08,.03,.11,.06,.03,.04,.05,.07,.06,.12,.01,.02,.01,.03,.01,.06v.54s.01,.02,.01,.02c-.01,.02,0,.03,0,.04,.01,.03,.03,.06,.04,.09,.01,0,.02,.02,.03,.04l.08,.07s.05,.03,.08,.04c.06,.02,.08,.02,.1,.02h1.06s.06,0,.09-.02c.03,0,.06-.02,.08-.03t.01-.01s.04-.03,.06-.05l.04-.05,.05-.13v-.04s.01-.59,.01-.59c.03-.08,.08-.14,.16-.17l.14-.05s.05-.02,.08-.03c0,0,.02-.01,.03-.02h.01s.05-.02,.07-.04c.01,.01,.02,0,.03,0,.05-.02,.1-.05,.15-.07,.01,0,.01-.01,.02-.01l.09-.05c.09-.05,.13-.08,.16-.1,.02,0,.04-.02,.06-.04,.05-.03,.09-.05,.13-.08,.03-.02,.06-.04,.09-.06,.01,0,.01-.02,.02-.03h.02s.03-.03,.04-.04l.13-.11h.01c.06-.06,.14-.08,.22-.06l.5,.28s.05,.03,.07,.02h.02s.05,.03,.07,.03h.04s0-.01,0-.01c.03,0,.07,0,.1-.02,.04,0,.07-.04,.12-.08,0,0,.04-.05,.06-.08,0,0,0,0,.02-.04l.11-.19c.15-.25,.36-.62,.39-.67h0s.03-.09,.03-.11c.01-.03,.01-.06,.01-.07h-.01Zm-4.07,.49c-.97,0-1.79-.7-1.98-1.61-.03-.13-.04-.27-.04-.41s0-.28,.04-.41c.19-.92,1.01-1.62,1.98-1.62,.13,0,.26,0,.38,.04,.12,.02,.23,.05,.34,.1h.02c.22,.09,.43,.21,.6,.37,.11,.09,.2,.2,.28,.31,.05,.05,.09,.1,.11,.16,.19,.31,.3,.66,.3,1.05,0,1.11-.91,2.02-2.03,2.02Z"
  />
</svg>
