<svg
  xmlns="http://www.w3.org/2000/svg"
  viewBox="0 0 24 24"
  fill="none"
  stroke="'currentcolor"
  stroke="0.6"
>
  <g>
    <path
      d="M10.3658 10.0374L8.8716 8.63551C10.5199 7.47108 11.3174 6.56878 13.2607 6.01869L12.0467 4.52336C9.70998 5.16457 9.22716 5.52036 6.63035 7.04673M10.3658 10.0374H11.5798M10.3658 10.0374L6.25681 15.8318M11.5798 10.0374L7.96839 19.2897M11.5798 10.0374L14.2879 9.52336L16.9961 9.00934M16.9961 9.00934L20.358 11.2523M16.9961 9.00934L11.7491 19.2897M20.358 11.2523L22.3191 14.8972M20.358 11.2523L15.8186 19.2897M22.3191 14.8972L21.5 21.5L14.2879 22L15.8186 19.2897M22.3191 14.8972L23 19.2897H21.7742M6.25681 15.8318L0.5 14L1 10.5C1 10.5 3.21047 8.80472 4.39069 8.07477M6.25681 15.8318L7.96839 19.2897M4.76265 2L6.63035 2.93458C6.22908 4.66471 6.29887 5.41563 6.63035 7.04673M4.76265 2L2.70817 3.96262L4.39069 3.49533M4.76265 2C4.64865 2.52717 4.46314 3.01554 4.39069 3.49533M6.63035 7.04673C6.63035 7.04673 5.39863 7.45137 4.39069 8.07477M15.8186 19.2897H11.7491M11.7491 19.2897L10.3658 22H6.91051L7.96839 19.2897M4.39069 8.07477C4.28171 5.61763 4.15291 5.07006 4.39069 3.49533"
      stroke-linejoin="round"
      stroke-linecap="round"
    />
  </g>
</svg>
