<svg xmlns="http://www.w3.org/2000/svg" fill="currentColor" viewBox="0 0 18 18">
  <path
    d="M8.22,4.59c-.66,.37-1.19,.7-1.6,.97s-.82,.63-1.24,1.08c-.39,.42-.69,.86-.9,1.32-.21,.46-.36,1.05-.44,1.78h1.01c.87,0,1.55,.21,2.05,.64s.75,1.05,.75,1.88c0,.59-.22,1.14-.66,1.65s-1.05,.77-1.82,.77c-1.2,0-2.07-.4-2.58-1.18-.52-.79-.78-1.83-.78-3.12,0-.91,.2-1.74,.59-2.48,.39-.75,.87-1.42,1.43-2,.57-.6,1.18-1.11,1.83-1.53,.64-.42,1.18-.76,1.62-1.03l.76,1.26Zm7.77,0c-.66,.37-1.19,.7-1.6,.97s-.82,.63-1.24,1.08c-.41,.43-.71,.88-.91,1.33-.2,.45-.35,1.04-.43,1.77h1.01c.87,0,1.55,.21,2.05,.64s.75,1.05,.75,1.88c0,.59-.22,1.14-.66,1.65s-1.05,.77-1.82,.77c-1.2,0-2.07-.4-2.58-1.18-.52-.79-.78-1.83-.78-3.12,0-.91,.2-1.74,.59-2.48,.39-.75,.87-1.42,1.43-2,.57-.6,1.18-1.11,1.83-1.53,.64-.42,1.18-.76,1.62-1.03l.76,1.26Z"
  />
</svg>
